<svg width="194" height="194" viewBox="0 0 194 194" fill="none" xmlns="http://www.w3.org/2000/svg">
<rect x="0.5" y="0.5" width="193" height="193" rx="96.5" fill="#FFDD55"/>
<rect x="0.5" y="0.5" width="193" height="193" rx="96.5" stroke="#FFDD55"/>
<path fill-rule="evenodd" clip-rule="evenodd" d="M99.2699 106.165H102.367C102.447 105.759 102.509 105.349 102.561 104.928C102.647 104.222 102.69 103.5 102.69 102.76C102.69 97.898 100.728 93.4993 97.5649 90.3132C94.397 87.1275 90.0229 85.1599 85.1875 85.1599C80.3522 85.1599 75.9784 87.1324 72.8101 90.3132C69.6422 93.4989 67.6855 97.8976 67.6855 102.76C67.6855 107.622 69.6471 112.021 72.8101 115.207C75.978 118.393 80.3522 120.36 85.1875 120.36C87.7807 120.36 90.2314 119.797 92.4351 118.789C94.5961 117.8 96.5197 116.377 98.106 114.634V107.326C98.106 106.686 98.6287 106.165 99.2699 106.165ZM86.3514 116.042C86.3514 116.687 85.829 117.212 85.1878 117.212C84.5467 117.212 84.0242 116.687 84.0242 116.042V113.492C83.1408 113.373 82.3096 113.124 81.5688 112.766C80.4432 112.226 79.5028 111.434 78.8711 110.483C78.5148 109.948 78.6573 109.222 79.1893 108.864C79.7212 108.506 80.4431 108.649 80.7993 109.184C81.1983 109.781 81.8109 110.292 82.5708 110.655C83.3307 111.018 84.2284 111.228 85.1924 111.228C86.6031 111.228 87.8616 110.784 88.7593 110.072C89.5809 109.418 90.0892 108.534 90.0892 107.579C90.0892 106.624 89.581 105.74 88.7593 105.086C87.8616 104.374 86.6031 103.93 85.1924 103.93C83.2546 103.93 81.4878 103.295 80.1913 102.263C78.8187 101.174 77.9733 99.6459 77.9733 97.9408C77.9733 96.2356 78.8234 94.7122 80.1913 93.6184C81.2219 92.8016 82.5517 92.2285 84.0287 92.0279V89.4775C84.0287 88.8327 84.5512 88.3074 85.1923 88.3074C85.8335 88.3074 86.356 88.8327 86.356 89.4775V92.0279C87.1301 92.133 87.8663 92.3383 88.5407 92.6297C89.5951 93.0882 90.5023 93.7616 91.172 94.5784C91.5804 95.0751 91.5092 95.8106 91.0105 96.2165C90.5165 96.6273 89.7851 96.5556 89.3815 96.0589C88.9493 95.5336 88.3461 95.0894 87.6242 94.7741C86.907 94.4637 86.0807 94.287 85.1925 94.287C83.7819 94.287 82.5233 94.7311 81.6257 95.4428C80.804 96.0971 80.2958 96.9759 80.2958 97.936C80.2958 98.8912 80.8039 99.7747 81.6257 100.429C82.5233 101.141 83.7819 101.585 85.1925 101.585C87.1303 101.585 88.8971 102.22 90.1937 103.252C91.5662 104.341 92.4116 105.869 92.4116 107.574C92.4116 109.279 91.5615 110.803 90.1937 111.897C89.163 112.718 87.8332 113.286 86.3562 113.487L86.3514 116.042ZM104.732 106.165C104.784 105.85 104.831 105.53 104.869 105.215C104.969 104.408 105.016 103.591 105.016 102.765C105.016 97.258 102.799 92.2718 99.208 88.6612C95.6222 85.0553 90.6638 82.8201 85.1879 82.8201C79.7121 82.8201 74.7535 85.0505 71.1631 88.6612C67.5773 92.2719 65.3546 97.2533 65.3546 102.765C65.3546 108.272 67.5725 113.258 71.1631 116.864C74.7489 120.474 79.7072 122.705 85.1879 122.705C88.1088 122.705 90.8873 122.065 93.3997 120.914C95.1143 120.126 96.7005 119.104 98.1064 117.89V135.241H97.9022L72.4738 135.237C67.1544 135.237 62.8657 133.541 59.6502 130.661C56.0738 127.466 53.7799 122.79 52.8299 117.35C51.8658 111.824 52.2838 105.524 54.136 99.1771C57.2422 88.5551 64.3567 77.8132 75.7503 70.2864H94.6203C101.398 74.7616 106.66 80.3735 110.464 86.4196C114.477 92.7957 116.871 99.6491 117.707 106.164L104.732 106.165ZM94.202 67.9468L101.184 56.7612C100.685 56.4078 100.144 56.1069 99.5641 55.8777C98.7235 55.5433 97.8021 55.3618 96.8332 55.3618C95.9831 55.3618 95.1709 55.5003 94.4157 55.7582C93.6273 56.0257 92.9054 56.4221 92.2595 56.9188C91.7513 57.3105 91.0247 57.2197 90.6353 56.7087C90.526 56.5654 90.4548 56.403 90.4168 56.2359C90.0891 54.7839 89.3624 53.5326 88.3887 52.6538C87.4721 51.8275 86.3228 51.3308 85.0879 51.3308C83.8484 51.3308 82.7038 51.8228 81.7871 52.6538C80.8087 53.5373 80.0821 54.7935 79.7543 56.2502C79.6119 56.8758 78.9944 57.2722 78.3675 57.1337C78.1918 57.0955 78.0303 57.0143 77.8973 56.9093C77.2609 56.4173 76.539 56.0257 75.7554 55.7582C75.0002 55.5003 74.188 55.3618 73.3379 55.3618C72.369 55.3618 71.4476 55.5433 70.607 55.8776C70.0275 56.1069 69.4813 56.403 68.9874 56.7612L75.9691 67.9468L94.202 67.9468ZM73.7695 68.8161L66.4791 57.1337C66.1894 56.6704 66.2559 56.0448 66.6739 55.6579C67.5715 54.8221 68.6164 54.1582 69.761 53.7045C70.8724 53.2651 72.0787 53.0263 73.3374 53.0263C74.4392 53.0263 75.503 53.2125 76.5005 53.5516C77.0087 53.7283 77.5027 53.9433 77.9728 54.1964C78.4952 52.9116 79.2741 51.7941 80.2383 50.9247C81.5777 49.7164 83.259 49 85.0875 49C86.916 49 88.5973 49.7164 89.9367 50.9247C90.8961 51.7892 91.675 52.9116 92.2022 54.1964C92.6724 53.9433 93.1616 53.7283 93.6745 53.5516C94.6719 53.2125 95.7357 53.0263 96.8377 53.0263C98.0963 53.0263 99.3026 53.2651 100.414 53.7045C101.535 54.1486 102.561 54.7934 103.444 55.6054C103.895 55.9731 104.014 56.6275 103.696 57.1337L96.4672 68.7158C103.264 73.3199 108.569 79.0322 112.44 85.1792C116.7 91.947 119.213 99.2401 120.058 106.165H159.536C160.177 106.165 160.699 106.691 160.699 107.335V109.485H162.836C163.478 109.485 164 110.01 164 110.655V143.83C164 144.475 163.478 145 162.836 145L102.571 144.995C101.93 144.995 101.408 144.47 101.408 143.825V141.676H99.2705C98.6293 141.676 98.1069 141.15 98.1069 140.506V137.573C98.0214 137.573 97.9549 137.578 97.9027 137.578H72.4743C66.547 137.578 61.7406 135.658 58.1029 132.41C54.1181 128.847 51.5771 123.703 50.537 117.753C49.5111 111.888 49.948 105.22 51.9095 98.5199C55.0917 87.64 62.2918 76.64 73.7706 68.8173L73.7695 68.8161ZM129.4 131.115C131.376 131.115 133.166 130.308 134.458 129.009C135.755 127.705 136.553 125.909 136.553 123.922C136.553 121.936 135.75 120.135 134.458 118.836C133.161 117.532 131.376 116.73 129.4 116.73C127.424 116.73 125.633 117.537 124.342 118.836C123.045 120.14 122.247 121.936 122.247 123.922C122.247 125.909 123.05 127.71 124.342 129.009C125.633 130.308 127.424 131.115 129.4 131.115ZM136.101 130.662C137.816 128.937 138.88 126.554 138.88 123.918C138.88 121.286 137.821 118.903 136.101 117.179C134.387 115.455 132.017 114.385 129.395 114.385C126.778 114.385 124.408 115.45 122.689 117.179C120.974 118.903 119.91 121.286 119.91 123.918C119.91 126.549 120.969 128.933 122.689 130.662C124.403 132.386 126.778 133.456 129.395 133.456C132.017 133.456 134.387 132.386 136.101 130.662ZM130.563 129.071V128.656C131.019 128.517 131.432 128.302 131.779 128.025C132.477 127.466 132.914 126.678 132.914 125.79C132.914 124.902 132.482 124.114 131.779 123.555C131.157 123.058 130.312 122.752 129.4 122.752C129.015 122.752 128.683 122.643 128.455 122.461C128.307 122.342 128.212 122.198 128.212 122.055C128.212 121.912 128.303 121.769 128.455 121.649C128.683 121.468 129.015 121.358 129.4 121.358C129.642 121.358 129.87 121.406 130.06 121.487C130.24 121.563 130.383 121.664 130.473 121.778C130.882 122.275 131.608 122.346 132.102 121.941C132.596 121.53 132.667 120.799 132.264 120.302C131.931 119.896 131.489 119.562 130.977 119.342C130.844 119.285 130.706 119.233 130.563 119.19V118.774C130.563 118.129 130.041 117.604 129.4 117.604C128.759 117.604 128.236 118.129 128.236 118.774V119.19C127.78 119.328 127.367 119.543 127.02 119.82C126.322 120.379 125.885 121.167 125.885 122.055C125.885 122.944 126.317 123.732 127.02 124.29C127.642 124.787 128.488 125.093 129.4 125.093C129.784 125.093 130.117 125.203 130.34 125.384C130.487 125.503 130.582 125.647 130.582 125.79C130.582 125.933 130.492 126.077 130.34 126.196C130.112 126.378 129.78 126.487 129.4 126.487C129.134 126.487 128.891 126.43 128.687 126.335C128.507 126.249 128.364 126.134 128.284 126.015C127.927 125.48 127.205 125.336 126.674 125.695C126.142 126.053 125.999 126.779 126.355 127.314C126.674 127.791 127.134 128.183 127.685 128.45C127.861 128.532 128.041 128.603 128.231 128.66V129.076C128.231 129.721 128.754 130.246 129.395 130.246C130.041 130.237 130.563 129.716 130.563 129.071ZM160.689 111.82V140.506C160.689 141.15 160.166 141.676 159.525 141.676H103.733V142.655H161.662V111.82L160.689 111.82ZM151.351 138.141H107.443C106.802 138.141 106.279 137.616 106.279 136.971C106.279 136.001 105.89 135.123 105.254 134.482C104.622 133.847 103.748 133.456 102.779 133.456C102.138 133.456 101.615 132.93 101.615 132.285L101.625 115.554C101.625 114.91 102.147 114.384 102.788 114.384C103.753 114.384 104.627 113.993 105.263 113.357C105.895 112.722 106.289 111.843 106.289 110.869C106.289 110.224 106.811 109.699 107.452 109.699H151.361C152.002 109.699 152.524 110.224 152.524 110.869C152.524 111.838 152.914 112.717 153.55 113.357C154.182 113.993 155.056 114.384 156.025 114.384C156.666 114.384 157.188 114.91 157.188 115.554V132.29C157.188 132.935 156.666 133.461 156.025 133.461C155.061 133.461 154.187 133.852 153.55 134.487C152.918 135.123 152.524 136.001 152.524 136.976C152.515 137.621 151.992 138.141 151.351 138.141ZM108.492 135.805H150.307C150.539 134.659 151.105 133.632 151.898 132.835C152.691 132.037 153.712 131.469 154.852 131.235L154.847 116.605C153.707 116.371 152.686 115.803 151.893 115.005C151.1 114.208 150.535 113.181 150.302 112.035L108.492 112.039C108.26 113.186 107.694 114.212 106.901 115.01C106.108 115.808 105.087 116.376 103.947 116.61V131.235C105.087 131.469 106.108 132.037 106.901 132.835C107.695 133.632 108.26 134.654 108.492 135.805ZM158.362 108.505V139.34H100.432V108.505H158.362Z" fill="black"/>
</svg>
