<svg width="69" height="69" viewBox="0 0 69 69" fill="none" xmlns="http://www.w3.org/2000/svg">
<path d="M12.7119 56.7983C11.4104 56.7983 9.93488 56.2438 8.41935 55.1532C5.84205 53.2987 3.57929 50.1681 4.40857 48.7548C4.67467 48.3012 5.33143 47.8485 6.94781 48.2643C8.91167 48.7568 10.4501 48.667 11.5176 47.9965C12.7809 47.2031 13.0271 45.7968 13.066 45.4933C12.8714 44.745 11.5374 39.1043 14.5452 35.6352C16.0234 33.9304 18.2968 33.0456 21.3025 33.0058C23.4953 32.9766 25.2463 33.6688 26.5189 35.0644C30.9415 39.9131 28.0152 51.6568 27.8885 52.1543C27.8282 52.3911 27.5632 52.5394 27.2973 52.486C27.031 52.4323 26.8641 52.1968 26.9244 51.9601C26.9544 51.8423 29.8723 40.1353 25.7509 35.6177C24.6638 34.4263 23.2138 33.8647 21.3175 33.8848C18.6282 33.9205 16.6131 34.6901 15.3282 36.172C12.4586 39.4817 14.0297 45.2985 14.0458 45.357C14.0579 45.4001 14.0623 45.4447 14.0593 45.4889C14.0536 45.5733 13.8977 47.5711 12.0976 48.7085C10.7737 49.545 8.9499 49.68 6.67627 49.1096C5.93514 48.9186 5.41596 48.9384 5.28513 49.1613C4.87041 49.868 6.42121 52.584 9.04118 54.4695C10.2881 55.3668 12.643 56.6786 14.4042 55.3822C14.6145 55.2275 14.926 55.2536 15.1002 55.4406C15.2743 55.6275 15.2449 55.9048 15.0346 56.0597C14.3632 56.5539 13.5759 56.7983 12.7119 56.7983Z" fill="black"/>
<path d="M32.0604 64.324C28.2439 64.324 24.4101 63.5448 21.1684 62.1001C17.8054 60.6013 15.3543 58.4837 14.4438 56.29C13.4196 53.8223 14.3451 51.4158 17.0497 49.5138C22.6886 45.613 21.8178 38.4045 21.8084 38.3323C21.7769 38.0911 21.9709 37.8728 22.2419 37.8447C22.5123 37.8163 22.7583 37.9888 22.7902 38.2298C22.8319 38.5451 23.7415 45.9985 17.6597 50.2058C15.2871 51.8744 14.4947 53.8738 15.3711 55.9856C16.9538 59.7994 24.1334 63.7303 32.9678 63.4293C38.3456 63.2464 51.4447 60.9379 57.0567 43.5221C56.8962 42.3406 56.0326 35.2568 58.0944 33.4548C58.5107 33.0911 59.0334 32.9369 59.6066 33.0097C60.7046 33.1422 62.5472 30.8639 63.3683 27.6134C64.5661 22.8717 63.3269 17.0957 56.2571 15.1057C50.9746 13.5788 46.568 14.2961 43.1569 17.2371C40.9224 19.1634 39.8678 21.4497 39.6287 22.0185C39.9712 22.942 41.3426 26.9286 40.1917 28.6837C39.602 29.5826 39.3875 30.4438 39.618 30.9872C39.7111 31.207 39.8686 31.3512 40.0858 31.4157C40.108 31.4223 40.1297 31.4303 40.1507 31.4396C41.4805 32.0311 41.2432 33.9679 41.0576 34.4632C40.8702 34.9629 40.9397 35.3715 41.2759 35.7492C42.4933 37.1162 46.7417 37.5283 48.2881 37.4036C48.5556 37.381 48.8002 37.5595 48.825 37.8016C48.8498 38.0434 48.6496 38.2572 48.3775 38.2792C47.1213 38.382 42.1567 38.1545 40.501 36.2952C39.9614 35.6891 39.8295 34.9596 40.1199 34.1852C40.2601 33.8111 40.3402 32.5405 39.7322 32.2373C39.2532 32.0832 38.8851 31.7509 38.693 31.2974C38.3486 30.4852 38.5778 29.3996 39.3377 28.2407C40.1904 26.9408 39.1219 23.4083 38.6383 22.1569C38.6032 22.0662 38.6024 21.9677 38.6361 21.8766C38.6798 21.7588 39.7355 18.9622 42.469 16.6056C45.0093 14.4156 49.5162 12.2324 56.5591 14.2683C64.2634 16.4367 65.6269 22.6835 64.333 27.806C63.5599 30.867 61.6402 33.8936 59.6939 33.8939C59.6193 33.8939 59.545 33.8895 59.4704 33.8804C59.1959 33.8455 58.9866 33.9078 58.7876 34.0817C57.2826 35.3969 57.7451 41.3279 58.0502 43.5023C58.0585 43.5607 58.0535 43.6204 58.0352 43.6771C55.8186 50.6066 52.2201 55.9233 47.34 59.4798C43.2528 62.4583 38.2962 64.1278 33.0058 64.3077C32.6911 64.3186 32.3756 64.3238 32.0604 64.324Z" fill="black"/>
<path d="M37.2204 38.8461C36.8428 38.8461 36.5734 38.5423 36.1853 38.1044C35.2585 37.0591 33.537 35.1161 29.5617 35.2037C29.2895 35.2166 29.0619 35.0182 29.0548 34.7755C29.0479 34.5328 29.2634 34.331 29.5363 34.3247C33.9987 34.2211 36.0011 36.4767 36.9614 37.5598C37.0095 37.6142 37.0612 37.6727 37.112 37.7285C37.9627 36.2721 41.1709 36.0992 41.5545 36.0835C41.8245 36.0726 42.058 36.2601 42.0705 36.5025C42.083 36.7449 41.8721 36.9506 41.5996 36.9619C40.7497 36.9971 38.2515 37.3114 37.9311 38.2611C37.889 38.3856 37.7612 38.7649 37.3484 38.8347C37.3043 38.8426 37.2618 38.8461 37.2204 38.8461Z" fill="black"/>
<path d="M29.5493 35.2042C29.3885 35.2042 29.2309 35.1346 29.136 35.0063C27.7085 33.0783 26.362 32.1058 25.2417 32.1976C23.9808 32.2994 23.2555 33.7491 23.2484 33.7639C23.1419 33.9874 22.8521 34.0919 22.6002 33.9969C22.3489 33.9021 22.2316 33.644 22.3382 33.4204C22.3761 33.3409 23.2879 31.4724 25.1523 31.3219C26.6784 31.1993 28.2977 32.2754 29.9615 34.5227C30.1118 34.7255 30.0485 34.9983 29.8206 35.1318C29.7369 35.1807 29.6425 35.2042 29.5493 35.2042Z" fill="black"/>
<path d="M33.3377 46.6346C33.2342 46.6346 33.1298 46.6059 33.0408 46.5461C32.8231 46.4002 32.779 46.1257 32.9426 45.9318C33.8968 44.8003 36.4716 43.1403 39.3883 44.9561C41.9437 46.4714 47.2945 42.6469 49.1399 41.0449C49.3352 40.8757 49.6482 40.8784 49.8389 41.0524C50.0295 41.2262 50.0259 41.5045 49.8305 41.6741C49.5821 41.8896 44.5927 46.1767 40.7867 46.1771C40.0813 46.1771 39.417 46.03 38.8306 45.6822C35.9649 43.8983 33.8224 46.355 33.7326 46.4604C33.6354 46.5744 33.4875 46.6346 33.3377 46.6346Z" fill="black"/>
<path d="M32.679 61.0201C29.8425 61.0201 27.874 60.5656 27.776 60.5426C27.5122 60.4805 27.355 60.2401 27.4247 60.0054C27.4944 59.7706 27.7653 59.6309 28.0288 59.6925C28.0563 59.6989 30.8193 60.3329 34.4267 60.08C39.2284 59.7429 43.1739 58.0788 46.1539 55.1339C46.3363 54.9535 46.6488 54.9385 46.8518 55.1012C47.0547 55.2636 47.0711 55.5416 46.8886 55.722C42.9493 59.6151 37.9606 60.7188 34.4695 60.9588C33.8436 61.0021 33.2438 61.0201 32.679 61.0201Z" fill="black"/>
<path d="M60.3614 21.7208C60.1577 21.7208 59.9667 21.608 59.8952 21.4274C58.0785 16.8489 53.2116 17.2995 53.0053 17.3211C52.7348 17.3495 52.4889 17.1772 52.4566 16.9364C52.4245 16.6956 52.6169 16.4772 52.8873 16.4481C52.9453 16.4415 58.7424 15.88 60.8275 21.1346C60.9184 21.3637 60.7832 21.6147 60.5258 21.6956C60.4714 21.7126 60.4159 21.7208 60.3614 21.7208Z" fill="black"/>
<path d="M32.0071 68.9162C26.3737 68.9162 20.9756 67.663 15.963 65.1916C15.9569 65.1885 15.9509 65.1855 15.9449 65.1822C11.2042 62.6054 6.871 58.6635 4.05643 54.3668C1.76863 50.8745 -0.608472 45.4846 1.05931 39.6388C5.02939 27.119 11.4591 20.1585 23.2557 15.6025C29.2432 13.2645 30.7987 11.1301 33.8979 6.87796C34.2155 6.44212 34.5484 5.98547 34.9028 5.50581C36.619 3.06311 38.2367 2.1249 41.2114 0.948981C41.2261 0.943119 41.2409 0.938136 41.256 0.933593C41.9838 0.717871 42.822 0.608398 43.7472 0.608398C48.1056 0.608398 53.5261 3.00977 55.6543 4.04222C55.6607 4.04529 55.6671 4.04866 55.6736 4.05204C58.2514 5.43972 61.9145 7.77353 64.7267 11.0105C67.5724 14.2859 68.8189 17.6579 68.4315 21.033C68.0631 23.8737 67.3749 25.7472 66.7675 27.4001C65.718 30.2568 64.8892 32.5133 66.1187 38.3467C67.1119 42.7639 67.5041 45.6751 66.73 48.3912C65.9099 51.2679 63.7613 53.7783 60.5607 56.8963C52.8778 64.534 42.4692 68.9162 32.0071 68.9162ZM16.4516 64.4271C21.3132 66.8226 26.5466 68.0369 32.0071 68.0369C42.1883 68.0369 52.3283 63.7616 59.8274 56.3072C66.7693 49.5444 67.0335 46.8979 65.1484 38.5142C63.8708 32.4543 64.7776 29.9857 65.8279 27.1272C66.4205 25.5139 67.0925 23.6851 67.4487 20.9381C68.402 12.6284 58.3059 6.49869 55.1708 4.80955C53.1024 3.80686 47.8715 1.48785 43.747 1.48785C42.9378 1.48785 42.2125 1.57988 41.5905 1.76146C38.7666 2.87905 37.3258 3.71614 35.7348 5.98034C35.3755 6.46674 35.044 6.92193 34.7273 7.3563C31.6221 11.6168 29.9116 13.9638 23.6513 16.4084C12.1584 20.847 5.8903 27.643 2.01414 39.8663C-0.664987 49.2579 7.45065 59.5311 16.4516 64.4271Z" fill="black"/>
<path d="M9.28118 39.7474C9.20242 39.7474 9.12267 39.7307 9.04836 39.6954C8.80763 39.5809 8.71685 39.3144 8.8457 39.1003C10.5283 36.3023 10.6339 34.4203 10.7361 32.6002C10.8564 30.4557 10.97 28.4301 13.8546 25.5335C18.8547 20.1966 25.2605 19.4112 25.5307 19.3805C25.8019 19.3501 26.0491 19.5198 26.0839 19.7606C26.1185 20.0012 25.9275 20.2215 25.6569 20.2524C25.5945 20.2596 19.3556 21.0353 14.6043 26.1064C11.9402 28.7821 11.8397 30.5718 11.7234 32.644C11.6209 34.4716 11.5046 36.5431 9.71748 39.515C9.62834 39.6632 9.45764 39.7474 9.28118 39.7474Z" fill="black"/>
</svg>
