<svg width="197" height="195" viewBox="0 0 197 195" fill="none" xmlns="http://www.w3.org/2000/svg">
<rect y="0.898438" width="197" height="194" rx="97" fill="#FFDD55"/>
<path d="M48.4978 56.2947L52.0913 57.5897L53.3466 61.3114C53.5764 61.9921 54.5444 61.9921 54.7742 61.3114L56.0295 57.5897L59.6185 56.2947C60.2815 56.056 60.2815 55.1145 59.6185 54.8759L56.0295 53.5809L54.7742 49.8592C54.5665 49.2448 53.5499 49.2448 53.3466 49.8592L52.0868 53.5809L48.4934 54.8759C47.8348 55.1146 47.8348 56.0561 48.4978 56.2947Z" fill="black"/>
<path d="M141.736 142.187L141.175 140.529C140.967 139.915 139.951 139.919 139.748 140.529L139.186 142.187L137.591 142.761C136.928 143 136.928 143.942 137.591 144.18L139.186 144.755L139.748 146.412C139.977 147.093 140.945 147.093 141.175 146.412L141.736 144.755L143.332 144.18C143.995 143.942 143.995 143 143.332 142.761L141.736 142.187Z" fill="black"/>
<path d="M59.999 136.062L59.2874 133.95C59.0576 133.269 58.0896 133.265 57.8598 133.95L57.1438 136.062L55.1061 136.796C54.4431 137.035 54.4431 137.976 55.1061 138.215L57.1438 138.949L57.8598 141.061C58.0896 141.742 59.0576 141.747 59.2874 141.061L59.999 138.949L62.0367 138.215C62.6997 137.976 62.6997 137.035 62.0367 136.796L59.999 136.062Z" fill="black"/>
<path d="M137.295 78.1781L139.805 79.0842L140.685 81.6876C140.915 82.3683 141.883 82.3683 142.112 81.6876L142.992 79.0842L145.503 78.1781C146.166 77.9395 146.166 76.998 145.503 76.7593L142.992 75.8532L142.112 73.2498C141.905 72.6355 140.888 72.6355 140.685 73.2498L139.805 75.8532L137.295 76.7593C136.632 76.998 136.632 77.9439 137.295 78.1781Z" fill="black"/>
<path d="M56.8516 67.8763C53.3333 69.1272 51.4901 72.9902 52.741 76.4997C61.3732 100.832 74.9866 139.466 75.2118 139.807C75.3753 140.518 75.309 140.169 75.7687 141.57C76.9841 144.991 80.7544 146.804 84.1843 145.588L106.43 137.712L108.538 143.661C108.768 144.302 109.652 144.337 109.935 143.727L113.139 136.792L119.323 140.364C119.937 140.713 120.64 140.112 120.41 139.458L118.306 133.508C129.321 129.61 127.071 130.405 137.657 126.657C138.873 126.215 139.514 124.858 139.089 123.638C137.772 119.912 116.543 59.9512 113.176 50.4397C112.734 49.2287 111.381 48.5834 110.157 49.0033C55.3892 68.3895 56.8425 67.8763 56.8516 67.8763ZM77.427 133.168L56.9625 75.3285C56.1757 73.1317 56.6442 70.8024 57.9658 69.0831L61.4355 67.8544L83.6324 130.535C79.5926 132.055 78.8458 131.992 77.427 133.168ZM137.14 125.234L117.803 132.081L116.159 127.435L129.913 122.565C130.859 122.233 130.346 120.805 129.409 121.141C108.994 128.372 143.818 116.041 84.2903 137.115C83.8969 137.252 83.6936 137.685 83.8307 138.078C83.9677 138.467 84.3964 138.68 84.7942 138.538L104.282 131.638L105.926 136.279L83.6809 144.156C81.0422 145.093 78.1295 143.701 77.1924 141.066C76.8918 140.169 76.9139 140.302 76.6399 139.395C76.6399 139.113 76.0476 136.92 77.7183 134.953C78.2797 134.29 79.0355 133.756 79.8886 133.459C135.673 113.725 133.318 114.467 133.658 114.476C134.096 114.489 134.281 114.71 134.449 115.042L137.667 124.129C137.822 124.576 137.587 125.071 137.14 125.234ZM110.935 50.3733C111.293 50.3733 111.628 50.5943 111.757 50.9435L133.715 112.968C132.924 112.938 106.413 122.542 85.0552 130.034L62.8583 67.3504C112.68 49.7237 110.647 50.3733 110.935 50.3733Z" fill="black"/>
<path d="M89.1353 91.5437C90.6779 95.8975 95.4558 98.1781 99.814 96.6355C104.168 95.093 106.448 90.315 104.906 85.9569C103.363 81.6032 98.5853 79.3225 94.2271 80.8651C89.8734 82.4077 87.5971 87.1856 89.1353 91.5437Z" fill="black"/>
<path d="M96.8121 74.7231L96.1623 77.2867C96.0607 77.6889 96.3038 78.1 96.706 78.2061C97.1082 78.3077 97.5193 78.0646 97.6209 77.6624C98.2751 74.8867 98.4784 74.7673 98.2928 74.3562L96.98 71.3948C96.812 71.0103 96.3656 70.8423 95.9855 71.0103C95.6054 71.1783 95.433 71.6247 95.6009 72.0048L96.8121 74.7231Z" fill="black"/>
<path d="M84.7675 77.7433L87.4725 78.9898L88.6747 81.3412C89.1256 82.2208 90.4736 81.5445 90.0184 80.6517C88.7278 78.234 88.7587 77.9201 88.3388 77.7257L85.3951 76.3732C85.0194 76.2008 84.5685 76.3644 84.3961 76.7445C84.2238 77.1202 84.3874 77.5709 84.7675 77.7433Z" fill="black"/>
<path d="M102.753 80.131C105.108 78.6768 105.405 78.7033 105.573 78.2702L106.739 75.2469C106.89 74.858 106.695 74.4204 106.306 74.2701C105.917 74.1198 105.48 74.3099 105.329 74.7033L104.26 77.4834L101.988 78.8315C101.63 79.0436 101.511 79.5077 101.723 79.8657C101.931 80.2238 102.395 80.3387 102.753 80.131Z" fill="black"/>
<path d="M107.217 85.1861C106.806 85.2259 106.496 85.5927 106.536 86.0082C106.576 86.4281 106.947 86.7287 107.358 86.6889L110.249 86.4237C110.704 86.3839 110.669 86.1806 113.051 83.9927C113.776 83.3076 112.742 82.2115 112.013 82.8966L109.851 84.943L107.217 85.1861Z" fill="black"/>
<path d="M110.117 94.6106L107.703 93.5366C106.797 93.1255 106.174 94.5046 107.089 94.9157L109.741 96.1002C110.156 96.2859 110.227 96.0914 113.374 95.3533C114.342 95.1102 113.975 93.6472 113.007 93.8902L110.117 94.6106Z" fill="black"/>
<path d="M88.3842 95.6061C85.657 95.9022 85.3741 95.7563 85.0427 96.0746L82.6913 98.3023C82.2007 98.7708 82.5278 99.6061 83.2084 99.6061C83.7388 99.6061 83.8317 99.2083 85.8914 97.3519L88.5256 97.1088C89.5246 97.016 89.3742 95.5087 88.3842 95.6061Z" fill="black"/>
<path d="M93.0638 99.9274L91.1632 102.12C90.8671 102.465 91.0306 102.575 90.8273 105.815C90.7787 106.814 92.286 106.893 92.3345 105.886L92.4759 102.911L94.2085 100.913C94.8582 100.157 93.718 99.1716 93.0638 99.9274Z" fill="black"/>
<path d="M79.6447 88.3242L82.531 87.5949C85.0194 88.6822 84.9663 88.7353 85.2536 88.7353C86.0669 88.7353 86.3011 87.6214 85.563 87.29L82.911 86.1054C82.4955 85.9198 82.438 86.1098 79.2778 86.8524C78.3054 87.1043 78.6723 88.5673 79.6447 88.3242Z" fill="black"/>
<path d="M106.563 101.973L103.624 101.496L101.834 99.5508C101.157 98.8171 100.048 99.8337 100.724 100.572C102.7 102.649 102.678 102.87 103.124 102.945C106.073 103.423 106.347 103.476 106.444 103.476C107.363 103.471 107.474 102.119 106.563 101.973Z" fill="black"/>
<path d="M103.58 65.5182L105.86 65.5315L107.315 67.3834C107.757 67.9492 108.671 67.6265 108.663 66.906L108.627 64.5546L110.395 63.105C110.939 62.6585 110.629 61.7701 109.922 61.7657L107.637 61.7524L106.183 59.9049C105.745 59.3436 104.826 59.6574 104.835 60.3823L104.87 62.7337L103.102 64.1834C102.559 64.6298 102.872 65.5138 103.58 65.5182Z" fill="black"/>
<path d="M70.5315 72.9755L71.8177 72.9843L72.6398 74.0319C73.0818 74.5976 73.9968 74.275 73.9879 73.5545L73.9703 72.2241L74.9648 71.4108C75.5084 70.96 75.1946 70.0759 74.4918 70.0715L73.2056 70.0627L72.3835 69.0152C71.9415 68.4494 71.0266 68.7721 71.0354 69.4925L71.0531 70.823L70.0586 71.6362C69.5149 72.0827 69.8243 72.9667 70.5315 72.9755Z" fill="black"/>
<path d="M119.35 109.721L120.636 109.73C121.308 110.486 121.458 111.06 122.051 111.06C122.466 111.06 122.811 110.72 122.807 110.296L122.789 108.97L123.783 108.156C124.327 107.71 124.018 106.822 123.31 106.817L122.024 106.808L121.207 105.765C120.765 105.199 119.85 105.522 119.858 106.243L119.876 107.569L118.873 108.386C118.329 108.833 118.643 109.717 119.35 109.721Z" fill="black"/>
<path d="M88.7021 113.695C87.3053 114.19 86.5716 115.723 87.0667 117.125C87.4645 118.243 88.512 118.919 89.5993 118.919C91.4469 118.919 92.7552 117.093 92.132 115.33C91.8933 114.654 90.0943 113.2 88.7021 113.695Z" fill="black"/>
</svg>
