<svg width="195" height="194" viewBox="0 0 195 194" fill="none" xmlns="http://www.w3.org/2000/svg">
<rect x="0.5" width="194" height="194" rx="97" fill="#FFDD55"/>
<path d="M63.0789 116.402H61.3864C60.84 116.402 60.3902 116.83 60.3615 117.376L59.4043 135.332L61.5466 133.687L62.2326 120.839L62.8653 132.674L63.3089 132.335C63.7608 131.988 64.3092 131.809 64.8741 131.75L64.1038 117.376C64.0751 116.83 63.6232 116.402 63.0789 116.402Z" fill="black"/>
<path d="M121.711 104.661H119.809C119.263 104.661 118.813 105.088 118.784 105.635L117.166 136.005C117.159 136.108 117.114 136.196 117.096 136.295L117.494 136.765L119.252 135.409L120.76 107.144L122.148 133.179L124.122 131.655L122.736 105.635C122.709 105.088 122.257 104.661 121.711 104.661Z" fill="black"/>
<path d="M156.269 110.732C156.074 110.496 155.783 110.356 155.474 110.356H142.98V112.41H152.457L117.19 139.589L103.667 123.617C103.309 123.196 102.683 123.136 102.25 123.473L74.9625 144.828L65.9701 134.117C65.6148 133.692 64.9904 133.63 64.557 133.963L40.585 152.371L41.8358 153.999L65.0273 136.191L74.0258 146.909C74.3853 147.338 75.0117 147.398 75.4451 147.057L102.738 125.7L116.256 141.665C116.611 142.082 117.235 142.144 117.669 141.815L153.928 113.873L152.003 123.467L154.016 123.872L156.479 111.585C156.54 111.283 156.462 110.971 156.269 110.732Z" fill="black"/>
<path d="M120.758 62.413C126.106 62.413 130.105 55.7294 130.105 49.7523C130.105 43.919 126.349 40 120.758 40C115.169 40 111.414 43.919 111.414 49.7523C111.414 55.7294 115.409 62.413 120.758 62.413ZM120.758 42.054C125.188 42.054 128.051 45.0774 128.051 49.7523C128.051 55.2036 124.506 60.3591 120.758 60.3591C117.011 60.3591 113.468 55.2036 113.468 49.7523C113.468 45.0774 116.327 42.054 120.758 42.054Z" fill="black"/>
<path d="M62.2286 78.9983C67.0575 78.9983 70.6643 72.9842 70.6643 67.6089C70.6643 62.3446 67.2752 58.8076 62.2286 58.8076C57.184 58.8076 53.7949 62.3446 53.7949 67.6089C53.7949 72.9863 57.4017 78.9983 62.2286 78.9983ZM62.2286 60.8616C66.1065 60.8616 68.6103 63.5092 68.6103 67.6089C68.6103 72.407 65.5088 76.9443 62.2286 76.9443C58.9484 76.9443 55.8489 72.407 55.8489 67.6089C55.8489 63.5092 58.3548 60.8616 62.2286 60.8616Z" fill="black"/>
<path d="M43.3784 117.112C45.5166 117.46 47.4514 116.04 47.8088 113.962C47.8253 113.882 48.6469 109.587 49.4582 105.384L51.6559 141.282L53.6216 139.774L51.0151 97.2279C50.9822 96.7164 50.5714 96.3529 50.0621 96.3139C49.5629 96.2666 49.0782 96.661 48.9693 97.1601C48.7475 98.1624 45.911 112.947 45.7836 113.627C45.6172 114.588 44.7443 115.258 43.7214 115.087C42.8218 114.935 42.1707 114.095 42.2384 113.214L44.6847 92.1833C44.7525 91.8649 44.8306 91.5466 44.9476 91.1974C45.1181 90.6264 45.3954 89.9814 45.761 89.3077C46.4532 88.0979 47.472 87.0052 48.577 86.2925C51.8079 84.1071 54.1002 83.647 55.4558 83.647H59.5104L56.9285 101.085C56.8772 101.436 57.0086 101.79 57.2797 102.018L61.5664 105.655C61.7574 105.818 61.9936 105.9 62.2298 105.9C62.466 105.9 62.7023 105.818 62.8933 105.655L67.1799 102.018C67.4511 101.79 67.5825 101.436 67.5312 101.085L64.9473 83.647H69.0039C70.9572 83.647 73.272 84.5384 75.9011 86.3048C76.9836 87.0052 78.0003 88.0979 78.6822 89.2872C79.0684 89.9958 79.3375 90.6182 79.5182 91.2261C79.625 91.5466 79.701 91.8649 79.7524 92.0868L82.2151 113.179C82.287 114.097 81.6379 114.935 80.7321 115.089C80.6294 115.108 80.5288 115.116 80.4302 115.116C79.5593 115.116 78.8219 114.492 78.6699 113.594L77.7621 108.428C77.4827 106.867 75.7224 98.2015 75.4636 97.0451C75.3384 96.5542 74.9132 96.2358 74.373 96.2707C73.8677 96.3159 73.4733 96.7267 73.4425 97.232L71.0106 136.929L72.929 139.213L75.022 105.099C75.3609 106.789 75.6485 108.241 75.745 108.784L76.655 113.974C76.9733 115.823 78.5631 117.166 80.4343 117.166C80.6479 117.166 80.8677 117.147 81.0833 117.112C83.0244 116.784 84.4252 114.985 84.265 112.976L81.7837 91.752C81.6995 91.3617 81.603 90.9715 81.4839 90.61C81.2703 89.8931 80.9478 89.1372 80.4815 88.2807C79.6189 86.7772 78.3885 85.4606 77.037 84.5856C74.0793 82.5974 71.3762 81.5889 69.008 81.5889H55.4599C53.0732 81.5889 50.3701 82.5974 47.4514 84.5754C46.0794 85.4606 44.847 86.7752 43.9741 88.3013C43.5222 89.1331 43.1997 89.8849 42.9943 90.575C42.8649 90.9673 42.7663 91.3576 42.6657 91.8444L40.2009 113.013C40.0427 115.017 41.4127 116.78 43.3784 117.112ZM62.8748 83.6449L65.4176 100.82L62.2298 103.523L59.0421 100.82L61.5828 83.6449H62.8748Z" fill="black"/>
<path d="M99.6139 105.21C101.927 105.6 104.057 104.039 104.441 101.771C104.459 101.675 105.521 96.1373 106.482 91.1605L108.635 126.304L110.851 128.921L108.041 83.0164C108.009 82.4844 107.573 82.0654 107.043 82.0511C107.033 82.0511 107.023 82.0511 107.014 82.0511C106.495 82.0511 106.051 82.4372 105.992 82.9569C105.743 84.0824 102.559 100.677 102.418 101.437C102.22 102.583 101.154 103.396 99.961 103.18C98.8847 102.998 98.1083 101.997 98.1925 100.937L100.939 77.3166C101.019 76.951 101.109 76.5875 101.239 76.1952C101.436 75.5358 101.742 74.8252 102.163 74.0467C102.952 72.6726 104.11 71.4299 105.365 70.6207C109.013 68.1477 111.617 67.628 113.158 67.628H117.857L114.935 87.3503C114.883 87.7016 115.015 88.0548 115.286 88.2828L120.098 92.3682C120.289 92.5305 120.525 92.6126 120.762 92.6126C120.998 92.6126 121.234 92.5305 121.425 92.3682L126.238 88.2828C126.509 88.0548 126.64 87.7016 126.589 87.3503L123.666 67.628H128.366C129.9 67.628 132.498 68.1477 136.181 70.633C137.415 71.4299 138.572 72.6726 139.346 74.0262C139.782 74.8252 140.088 75.5317 140.293 76.2239C140.416 76.5895 140.505 76.951 140.564 77.2139L143.329 100.898C143.417 101.993 142.641 102.996 141.562 103.176C141.439 103.199 141.32 103.209 141.201 103.209C140.162 103.209 139.28 102.464 139.1 101.395L138.083 95.593C137.777 93.8964 135.797 84.1564 135.503 82.8398C135.388 82.3448 134.901 82.012 134.419 82.0511C133.911 82.0942 133.511 82.5029 133.48 83.0123L130.818 126.495L132.979 124.829L135.057 90.8688C135.52 93.159 135.937 95.2541 136.062 95.9545L137.083 101.782C137.428 103.799 139.159 105.263 141.203 105.263C141.435 105.263 141.673 105.243 141.909 105.204C144.027 104.842 145.551 102.88 145.377 100.699L142.585 76.8894C142.493 76.454 142.384 76.0206 142.248 75.6118C142.012 74.8128 141.651 73.9748 141.135 73.03C140.192 71.3806 138.792 69.8812 137.309 68.9241C134.02 66.7037 131.011 65.5781 128.363 65.5781H113.152C110.529 65.5781 107.435 66.7345 104.227 68.9117C102.703 69.8935 101.337 71.3539 100.364 73.0505C99.8604 73.9769 99.5009 74.8149 99.2709 75.5872C99.1312 76.0247 99.0203 76.454 98.9094 76.9839L96.1447 100.74C95.9701 102.924 97.4634 104.844 99.6139 105.21ZM121.587 67.6321L124.469 87.0915L120.756 90.2423L117.042 87.0915L119.924 67.6321H121.587Z" fill="black"/>
</svg>
