<svg width="69" height="87" viewBox="0 0 69 87" fill="none" xmlns="http://www.w3.org/2000/svg">
<path d="M64.537 57.2251H4.46289V12.1006H64.537V57.2251ZM5.32539 56.3651H63.6745V12.9606H5.32539V56.3651Z" fill="black"/>
<path d="M6.64062 14.1084V55.2164H62.3581V14.1084H6.64062ZM34.0633 34.6624L22.3761 43.2569C15.9915 42.7629 13.9905 40.2909 12.2262 38.1079C11.0966 36.7113 10.0209 35.3807 7.99233 34.6885C10.0754 34.0769 11.1643 32.7105 12.3069 31.2761C14.0705 29.0635 16.0702 26.5564 22.3761 26.0679L34.0633 34.6624ZM22.6148 25.6021C23.282 21.7328 25.9165 20.8432 28.7075 19.9117C31.0942 19.115 33.5548 18.2942 34.4994 15.4328C35.444 18.2942 37.9045 19.115 40.2912 19.9117C43.083 20.8432 45.7174 21.7328 46.3846 25.6021L34.4994 34.3418L22.6148 25.6021ZM34.4994 34.983L46.3839 43.7227C45.7167 47.5913 43.0823 48.4816 40.2906 49.4131C37.9038 50.2098 35.4433 51.0313 34.4987 53.892C33.5541 51.0313 31.0935 50.2098 28.7068 49.4131C25.9158 48.4816 23.2814 47.5913 22.6141 43.7227L34.4994 34.983ZM34.9355 34.6624L46.6227 26.0679C52.9286 26.5564 54.9275 29.0635 56.6912 31.2761C57.8345 32.7105 58.9233 34.0769 61.0064 34.6885C58.9785 35.3807 57.9021 36.7106 56.7726 38.1079C55.0082 40.2909 53.0066 42.7629 46.6227 43.2569L34.9355 34.6624ZM57.0969 30.9548C55.3243 28.7305 53.3102 26.2241 47.2437 25.6111L61.8406 14.8769V34.3439C59.4622 33.8953 58.3547 32.533 57.0969 30.9548ZM46.8469 25.2616C46.0555 21.3014 43.2134 20.3431 40.4555 19.4225C37.9156 18.5749 35.5171 17.7651 34.8216 14.6237H61.3128L46.8469 25.2616ZM28.5433 19.4225C25.7854 20.3431 22.9439 21.3014 22.1518 25.2616L7.68598 14.6244H34.1771C33.4816 17.7658 31.0839 18.5749 28.5433 19.4225ZM21.7551 25.6111C15.6893 26.2241 13.6745 28.7305 11.9019 30.9548C10.644 32.533 9.53656 33.8953 7.15813 34.3445V14.8769L21.7551 25.6111ZM7.15813 34.9961C9.47929 35.5589 10.5771 36.8901 11.8232 38.4313C13.5979 40.626 15.6141 43.0987 21.7544 43.713L7.15813 54.4472V34.9961ZM22.1518 44.0625C22.9433 48.0227 25.7854 48.9817 28.5433 49.9016C31.0832 50.7499 33.4816 51.559 34.1771 54.7004H7.68598L22.1518 44.0625ZM40.4555 49.9016C43.2134 48.9811 46.0555 48.0227 46.8469 44.0625L61.3128 54.7004H34.8209C35.5171 51.5597 37.9149 50.7499 40.4555 49.9016ZM47.2437 43.713C53.384 43.098 55.4009 40.626 57.1755 38.4313C58.4217 36.8901 59.5195 35.5589 61.8406 34.9961V54.4472L47.2437 43.713Z" fill="black"/>
<path d="M11.6422 23.417L11.9396 24.1511L12.7318 24.2068L12.1239 24.7152L12.315 25.4837L11.6422 25.0648L10.9688 25.4837L11.1606 24.7152L10.5527 24.2068L11.3442 24.1511L11.6422 23.417Z" fill="black"/>
<path d="M11.6422 43.3682L11.9396 44.1023L12.7318 44.158L12.1239 44.6664L12.315 45.4349L11.6422 45.0159L10.9688 45.4349L11.1606 44.6664L10.5527 44.158L11.3442 44.1023L11.6422 43.3682Z" fill="black"/>
<path d="M57.1813 23.417L57.4787 24.1511L58.2708 24.2068L57.6629 24.7152L57.8541 25.4837L57.1813 25.0648L56.5079 25.4837L56.6997 24.7152L56.0918 24.2068L56.8832 24.1511L57.1813 23.417Z" fill="black"/>
<path d="M57.1813 43.3682L57.4787 44.1023L58.2708 44.158L57.6629 44.6664L57.8541 45.4349L57.1813 45.0159L56.5079 45.4349L56.6997 44.6664L56.0918 44.158L56.8832 44.1023L57.1813 43.3682Z" fill="black"/>
<path d="M21.9919 17.2246L22.2892 17.9587L23.0814 18.0144L22.4735 18.5229L22.6646 19.2914L21.9919 18.8724L21.3184 19.2914L21.5102 18.5229L20.9023 18.0144L21.6938 17.9587L21.9919 17.2246Z" fill="black"/>
<path d="M48.2126 17.2246L48.5099 17.9587L49.3021 18.0144L48.6942 18.5229L48.8853 19.2914L48.2126 18.8724L47.5391 19.2914L47.7309 18.5229L47.123 18.0144L47.9145 17.9587L48.2126 17.2246Z" fill="black"/>
<path d="M21.9919 50.249L22.2892 50.9831L23.0814 51.0388L22.4735 51.5473L22.6646 52.3158L21.9919 51.8968L21.3184 52.3158L21.5102 51.5473L20.9023 51.0388L21.6938 50.9831L21.9919 50.249Z" fill="black"/>
<path d="M48.2106 50.249L48.508 50.9831L49.3001 51.0388L48.6922 51.5473L48.8834 52.3158L48.2106 51.8968L47.5372 52.3158L47.729 51.5473L47.1211 51.0388L47.9125 50.9831L48.2106 50.249Z" fill="black"/>
<path d="M35.9349 27.2385C34.5342 27.2385 33.3984 26.106 33.3984 24.7094C33.3984 23.9079 33.78 23.202 34.363 22.7383C33.2673 23.0176 32.4531 24.0008 32.4531 25.1807C32.4531 26.5773 33.5889 27.7098 34.9896 27.7098C35.5864 27.7098 36.1281 27.4958 36.5614 27.1518C36.3606 27.2027 36.1529 27.2385 35.9349 27.2385Z" fill="black"/>
<path d="M37.0636 43.8485L37.864 43.2582L36.9097 42.9768L37.4589 42.1498L36.4653 42.2104L36.6979 41.2458L35.7857 41.6421L35.6739 40.6562L34.9522 41.3394L34.5085 40.4512L34.0648 41.3394L33.3431 40.6562L33.2306 41.6421L32.3184 41.2458L32.551 42.2104L31.5574 42.1498L32.1066 42.9768L31.1523 43.2582L31.9527 43.8485L31.1523 44.4388L32.1066 44.7202L31.5574 45.5472L32.551 45.486L32.3184 46.4505L33.2306 46.0549L33.3431 47.0408L34.0641 46.3583L34.5078 47.2465L34.9522 46.3583L35.6739 47.0415L35.7864 46.0556L36.6986 46.4512L36.466 45.4866L37.4596 45.5479L36.9104 44.7209L37.8647 44.4395L37.0636 43.8485ZM34.5085 46.0625C33.2824 46.0625 32.2888 45.0718 32.2888 43.8492C32.2888 42.6266 33.2824 41.6359 34.5085 41.6359C35.7346 41.6359 36.7282 42.6266 36.7282 43.8492C36.7282 45.0711 35.7339 46.0625 34.5085 46.0625Z" fill="black"/>
</svg>
