<svg width="194" height="194" viewBox="0 0 194 194" fill="none" xmlns="http://www.w3.org/2000/svg">
<rect x="0.500488" y="0.5" width="193" height="193" rx="96.5" fill="#FFDD55"/>
<rect x="0.500488" y="0.5" width="193" height="193" rx="96.5" stroke="#FFDD55"/>
<path d="M140.658 65.4035H119.088V51.7797C119.088 51.3493 118.738 51 118.308 51H53.7801C53.3498 51 53.0005 51.3493 53.0005 51.7797V120.72C53.0005 126.375 57.5646 130.975 63.1751 130.975H71.5954V142.22C71.5954 142.651 71.9447 143 72.3751 143H144.221C144.651 143 145 142.651 145 142.22V69.7774C145 67.3651 143.053 65.4035 140.658 65.4035ZM137.363 66.9628C136.72 67.7253 136.318 68.6999 136.318 69.7758V74.0936V120.72C136.318 125.515 132.454 129.415 127.704 129.415C122.955 129.415 119.089 125.515 119.089 120.72V66.9628H137.363ZM54.5598 120.72V52.5593H117.528V120.72C117.528 124.382 119.442 127.602 122.314 129.415H63.1751C58.4254 129.417 54.5598 125.515 54.5598 120.72ZM143.441 141.441H73.1547V130.976H127.703C132.902 130.976 137.196 127.022 137.798 121.941C137.845 121.842 137.876 121.731 137.876 121.612V120.724V74.0936V69.7758C137.876 68.2243 139.123 66.9628 140.658 66.9628C142.192 66.9628 143.441 68.2258 143.441 69.7758V141.441Z" fill="black"/>
<path d="M59.6737 65.1319H112.254C112.684 65.1319 113.034 64.7826 113.034 64.3522V58.7465C113.034 58.3161 112.684 57.9668 112.254 57.9668H59.6737C59.2433 57.9668 58.894 58.3161 58.894 58.7465V64.3538C58.894 64.7842 59.2418 65.1319 59.6737 65.1319ZM60.4534 59.5261H111.474V63.5741H60.4534V59.5261Z" fill="black"/>
<path d="M59.6737 87.8325H85.9639C86.3942 87.8325 86.7435 87.4832 86.7435 87.0528V70.2308C86.7435 69.8005 86.3942 69.4512 85.9639 69.4512H59.6737C59.2433 69.4512 58.894 69.8005 58.894 70.2308V87.0528C58.894 87.4832 59.2418 87.8325 59.6737 87.8325ZM60.4534 71.0105H85.1842V86.2731H60.4534V71.0105Z" fill="black"/>
<path d="M112.255 69.4512H90.6752C90.2448 69.4512 89.8955 69.8005 89.8955 70.2308C89.8955 70.6612 90.2448 71.0105 90.6752 71.0105H112.255C112.685 71.0105 113.034 70.6612 113.034 70.2308C113.034 69.8005 112.685 69.4512 112.255 69.4512Z" fill="black"/>
<path d="M112.255 73.6562H90.6752C90.2448 73.6562 89.8955 74.0055 89.8955 74.4359C89.8955 74.8663 90.2448 75.2156 90.6752 75.2156H112.255C112.685 75.2156 113.034 74.8663 113.034 74.4359C113.034 74.0055 112.685 73.6562 112.255 73.6562Z" fill="black"/>
<path d="M112.255 77.8613H90.6752C90.2448 77.8613 89.8955 78.2106 89.8955 78.641C89.8955 79.0714 90.2448 79.4207 90.6752 79.4207H112.255C112.685 79.4207 113.034 79.0714 113.034 78.641C113.034 78.2106 112.685 77.8613 112.255 77.8613Z" fill="black"/>
<path d="M112.255 82.0664H90.6752C90.2448 82.0664 89.8955 82.4157 89.8955 82.8461C89.8955 83.2764 90.2448 83.6257 90.6752 83.6257H112.255C112.685 83.6257 113.034 83.2764 113.034 82.8461C113.034 82.4157 112.685 82.0664 112.255 82.0664Z" fill="black"/>
<path d="M112.255 86.2734H90.6752C90.2448 86.2734 89.8955 86.6227 89.8955 87.0531C89.8955 87.4835 90.2448 87.8328 90.6752 87.8328H112.255C112.685 87.8328 113.034 87.4835 113.034 87.0531C113.034 86.6227 112.685 86.2734 112.255 86.2734Z" fill="black"/>
<path d="M112.255 105.63H91.5472C91.1169 105.63 90.7676 105.979 90.7676 106.41C90.7676 106.84 91.1169 107.189 91.5472 107.189H112.255C112.685 107.189 113.035 106.84 113.035 106.41C113.035 105.979 112.685 105.63 112.255 105.63Z" fill="black"/>
<path d="M112.255 109.834H91.5472C91.1169 109.834 90.7676 110.183 90.7676 110.614C90.7676 111.044 91.1169 111.393 91.5472 111.393H112.255C112.685 111.393 113.035 111.044 113.035 110.614C113.035 110.183 112.685 109.834 112.255 109.834Z" fill="black"/>
<path d="M112.255 114.04H91.5472C91.1169 114.04 90.7676 114.389 90.7676 114.82C90.7676 115.25 91.1169 115.599 91.5472 115.599H112.255C112.685 115.599 113.035 115.25 113.035 114.82C113.035 114.389 112.685 114.04 112.255 114.04Z" fill="black"/>
<path d="M112.255 118.245H91.5472C91.1169 118.245 90.7676 118.594 90.7676 119.025C90.7676 119.455 91.1169 119.804 91.5472 119.804H112.255C112.685 119.804 113.035 119.455 113.035 119.025C113.035 118.594 112.685 118.245 112.255 118.245Z" fill="black"/>
<path d="M112.255 122.45H91.5472C91.1169 122.45 90.7676 122.799 90.7676 123.23C90.7676 123.66 91.1169 124.01 91.5472 124.01H112.255C112.685 124.01 113.035 123.66 113.035 123.23C113.035 122.799 112.685 122.45 112.255 122.45Z" fill="black"/>
<path d="M112.255 92.5518H91.5472C91.1169 92.5518 90.7676 92.901 90.7676 93.3314V102.093C90.7676 102.524 91.1169 102.873 91.5472 102.873H112.255C112.685 102.873 113.035 102.524 113.035 102.093V93.3314C113.035 92.901 112.685 92.5518 112.255 92.5518ZM111.475 101.314H92.3269V94.1111H111.475V101.314Z" fill="black"/>
<path d="M59.6737 94.2859H85.9639C86.3942 94.2859 86.7435 93.9366 86.7435 93.5062C86.7435 93.0759 86.3942 92.7266 85.9639 92.7266H59.6737C59.2433 92.7266 58.894 93.0759 58.894 93.5062C58.894 93.9366 59.2418 94.2859 59.6737 94.2859Z" fill="black"/>
<path d="M59.6737 98.4919H85.9639C86.3942 98.4919 86.7435 98.1427 86.7435 97.7123C86.7435 97.2819 86.3942 96.9326 85.9639 96.9326H59.6737C59.2433 96.9326 58.894 97.2819 58.894 97.7123C58.894 98.1427 59.2418 98.4919 59.6737 98.4919Z" fill="black"/>
<path d="M59.6737 102.698H85.9639C86.3942 102.698 86.7435 102.349 86.7435 101.918C86.7435 101.488 86.3942 101.139 85.9639 101.139H59.6737C59.2433 101.139 58.894 101.488 58.894 101.918C58.894 102.349 59.2418 102.698 59.6737 102.698Z" fill="black"/>
<path d="M59.6737 119.804H85.9218C86.3521 119.804 86.7014 119.455 86.7014 119.025C86.7014 118.594 86.3521 118.245 85.9218 118.245H59.6737C59.2433 118.245 58.894 118.594 58.894 119.025C58.894 119.455 59.2418 119.804 59.6737 119.804Z" fill="black"/>
<path d="M86.7014 123.23C86.7014 122.799 86.3521 122.45 85.9218 122.45H59.6737C59.2433 122.45 58.894 122.799 58.894 123.23C58.894 123.66 59.2433 124.01 59.6737 124.01H85.9218C86.3537 124.01 86.7014 123.662 86.7014 123.23Z" fill="black"/>
<path d="M59.6737 115.6H85.9639C86.3942 115.6 86.7435 115.251 86.7435 114.821V106.41C86.7435 105.979 86.3942 105.63 85.9639 105.63H59.6737C59.2433 105.63 58.894 105.979 58.894 106.41V114.821C58.894 115.251 59.2418 115.6 59.6737 115.6ZM60.4534 107.189H85.1842V114.041H60.4534V107.189Z" fill="black"/>
</svg>
