<svg width="195" height="194" viewBox="0 0 195 194" fill="none" xmlns="http://www.w3.org/2000/svg">
<rect x="0.5" width="194" height="194" rx="97" fill="#FFDD55"/>
<path d="M139.196 57.8159H133.11V54.0647C133.11 50.1677 129.943 47 126.046 47C122.149 47 118.981 50.1677 118.981 54.0647V57.8159H103.57V54.0647C103.57 50.1677 100.402 47 96.5052 47C92.6082 47 89.4405 50.1677 89.4405 54.0647V57.8159H74.0399V54.0647C74.0399 50.1677 70.8722 47 66.9751 47C63.0781 47 59.9104 50.1677 59.9104 54.0647V57.8159H53.8148C49.7823 57.8159 46.5 61.0982 46.5 65.1307V139.685C46.5 143.718 49.7823 147 53.8148 147H139.185C143.218 147 146.5 143.718 146.5 139.685V65.1307C146.51 61.0982 143.228 57.8159 139.196 57.8159ZM121.409 54.0647C121.409 51.5118 123.482 49.4383 126.035 49.4383C128.588 49.4383 130.662 51.5118 130.662 54.0647V63.9949C130.662 66.5478 128.588 68.6213 126.035 68.6213C123.482 68.6213 121.409 66.5478 121.409 63.9949V54.0647ZM91.8788 54.0647C91.8788 51.5118 93.9523 49.4383 96.5052 49.4383C99.0581 49.4383 101.132 51.5118 101.132 54.0647V63.9949C101.132 66.5478 99.0581 68.6213 96.5052 68.6213C93.9523 68.6213 91.8788 66.5478 91.8788 63.9949V54.0647ZM62.3383 54.0647C62.3383 51.5118 64.4118 49.4383 66.9647 49.4383C69.5176 49.4383 71.5912 51.5118 71.5912 54.0647V63.9949C71.5912 66.5478 69.5176 68.6213 66.9647 68.6213C64.4118 68.6213 62.3383 66.5478 62.3383 63.9949V54.0647ZM53.8148 60.2541H59.9V64.0053C59.9 67.9024 63.0677 71.07 66.9647 71.07C70.8618 71.07 74.0294 67.9024 74.0294 64.0053V60.2541H89.4301V64.0053C89.4301 67.9024 92.5977 71.07 96.4948 71.07C100.392 71.07 103.559 67.9024 103.559 64.0053V60.2541H118.96V64.0053C118.96 67.9024 122.128 71.07 126.025 71.07C129.922 71.07 133.09 67.9024 133.09 64.0053V60.2541H139.175C141.863 60.2541 144.051 62.4423 144.051 65.1307V76.7489H48.9383V65.1307C48.9383 62.4423 51.1264 60.2541 53.8148 60.2541ZM139.196 144.572H53.8148C51.1264 144.572 48.9383 142.384 48.9383 139.696V79.1976H144.072V139.696C144.072 142.384 141.884 144.572 139.196 144.572ZM127.067 116.147L125.056 116.084L123.66 114.625C123.368 114.323 122.941 114.188 122.524 114.271C122.107 114.354 121.774 114.657 121.628 115.053L120.95 116.949L119.137 117.824C118.762 118.012 118.502 118.376 118.45 118.793C118.408 119.21 118.585 119.627 118.918 119.887L120.513 121.127L120.784 123.128C120.836 123.545 121.107 123.909 121.492 124.076C121.648 124.149 121.815 124.18 121.992 124.18C122.232 124.18 122.472 124.107 122.68 123.972L124.347 122.836L126.327 123.19C126.744 123.263 127.171 123.118 127.452 122.805C127.734 122.492 127.838 122.055 127.713 121.648L127.15 119.71L128.109 117.939C128.307 117.564 128.307 117.116 128.088 116.751C127.88 116.386 127.494 116.157 127.067 116.147ZM124.67 119.919L124.827 120.44L124.285 120.346C123.972 120.294 123.649 120.356 123.378 120.533L122.93 120.836L122.857 120.294C122.815 119.981 122.649 119.689 122.399 119.491L121.971 119.158L122.461 118.918C122.753 118.783 122.972 118.533 123.076 118.231L123.264 117.72L123.639 118.116C123.857 118.345 124.16 118.481 124.483 118.491L125.025 118.512L124.764 118.991C124.618 119.283 124.576 119.606 124.67 119.919ZM104.018 92.5559L104.289 94.5565C104.341 94.9733 104.612 95.338 104.997 95.5047C105.154 95.5777 105.32 95.6089 105.498 95.6089C105.737 95.6089 105.977 95.536 106.185 95.4005L107.852 94.2648L109.832 94.619C110.249 94.692 110.676 94.5461 110.958 94.2335C111.239 93.9209 111.343 93.4833 111.218 93.0769L110.655 91.1388L111.614 89.357C111.812 88.9819 111.812 88.5338 111.593 88.1691C111.385 87.8044 110.999 87.5752 110.572 87.5648L108.561 87.5022L107.165 86.0435C106.873 85.7413 106.446 85.6058 106.029 85.6892C105.612 85.7725 105.279 86.0747 105.133 86.4707L104.456 88.3671L102.643 89.2424C102.267 89.4299 102.007 89.7946 101.955 90.2114C101.913 90.6282 102.09 91.045 102.424 91.3055L104.018 92.5559ZM105.966 90.3677C106.258 90.2323 106.477 89.9822 106.581 89.68L106.769 89.1694L107.144 89.5654C107.363 89.7946 107.665 89.9301 107.988 89.9405L108.53 89.9613L108.269 90.4407C108.113 90.722 108.082 91.0554 108.176 91.3576L108.332 91.8786L107.8 91.7848C107.488 91.7223 107.165 91.7952 106.894 91.9724L106.446 92.2746L106.373 91.7327C106.331 91.4201 106.164 91.1284 105.914 90.9304L105.487 90.597L105.966 90.3677ZM115.647 117.095C114.094 117.209 112.594 117.595 111.26 118.074C110.395 115.73 109.249 113.25 107.884 110.77L113.427 107.571C114.011 107.238 114.209 106.487 113.875 105.904C113.542 105.32 112.792 105.122 112.208 105.456L106.665 108.655C105.237 106.289 103.653 104.039 102.028 102.08C103.101 101.173 104.185 100.069 105.06 98.7766C105.435 98.2243 105.3 97.4637 104.737 97.0782C104.185 96.703 103.424 96.8385 103.038 97.4012C102.288 98.4953 101.35 99.4539 100.402 100.246C96.7032 96.3071 92.952 94.0876 90.347 95.5985C89.9094 95.8486 89.5655 96.2029 89.2634 96.6093L89.2529 96.5988L62.7134 130.276C61.984 131.193 61.7235 132.287 61.9423 133.433C62.0674 134.111 62.3279 134.788 62.7134 135.455C63.0989 136.122 63.5574 136.684 64.0784 137.132C64.8078 137.758 65.6727 138.081 66.6 138.081C66.798 138.081 66.996 138.07 67.2044 138.039L109.655 131.86C110.218 131.808 110.687 131.641 111.072 131.422C112.469 130.62 113.886 128.494 112.719 122.92C112.552 122.107 112.323 121.263 112.062 120.398C113.219 119.971 114.521 119.627 115.855 119.533C116.522 119.481 117.032 118.897 116.98 118.231C116.907 117.543 116.324 117.043 115.647 117.095ZM92.0767 113.396C92.2435 121.513 94.2128 126.316 97.568 131.151L90.1282 132.235C86.9085 126.817 83.9284 118.564 87.3565 102.986L88.3672 101.715C88.659 105.029 90.0553 109.217 92.0767 113.396ZM94.9526 118.679C97.4222 122.711 100.194 126.191 102.872 128.588C103.549 129.192 104.174 129.693 104.768 130.109L100.277 130.766C97.5472 127.046 95.7445 123.618 94.9526 118.679ZM78.0932 114.719L84.0742 107.133C82.4591 117.387 83.5637 125.452 87.5232 132.61L80.4064 133.642C77.989 128.213 77.2388 122.159 78.0932 114.719ZM77.9161 134.017L71.1327 135.007C70.2157 132.037 69.7364 128.859 69.7156 125.347L75.384 118.158C75.0923 124.139 75.9259 129.286 77.9161 134.017ZM66.8397 135.621C66.3916 135.684 66.0061 135.58 65.6518 135.278C65.3392 135.007 65.0579 134.652 64.8078 134.236C64.5577 133.808 64.4014 133.392 64.3181 132.985C64.2347 132.537 64.3285 132.152 64.6098 131.787L67.3711 128.296C67.5691 130.787 67.9859 133.131 68.6423 135.361L66.8397 135.621ZM110.312 123.42C111.083 127.119 110.541 128.901 109.843 129.307C109.145 129.713 107.321 129.297 104.508 126.775C101.715 124.274 98.7872 120.481 96.2551 116.095C90.6909 106.456 89.7844 98.7766 91.6078 97.7242C92.6915 97.099 95.3173 98.4953 98.4433 101.736C97.245 102.517 96.3385 102.945 96.3072 102.955C95.6924 103.236 95.4319 103.955 95.7133 104.57C95.9217 105.018 96.3593 105.279 96.8178 105.279C96.9845 105.279 97.1617 105.247 97.3284 105.164C97.4222 105.122 98.5996 104.57 100.09 103.559C101.548 105.299 103.07 107.415 104.56 109.884L100.11 112.458C99.527 112.791 99.329 113.542 99.6624 114.125C99.8917 114.521 100.298 114.74 100.715 114.74C100.923 114.74 101.132 114.688 101.319 114.573L105.769 111.999C107.081 114.396 108.186 116.782 109.009 119.033C107.384 119.825 106.321 120.565 106.227 120.627C105.675 121.013 105.55 121.773 105.935 122.326C106.175 122.659 106.55 122.836 106.936 122.836C107.175 122.836 107.425 122.763 107.634 122.617C107.655 122.607 108.478 122.034 109.77 121.377C109.989 122.076 110.176 122.763 110.312 123.42ZM115.845 96.776C116.043 96.776 116.241 96.7239 116.428 96.6301L121.867 93.6708C122.211 93.4833 122.44 93.1498 122.492 92.7643C122.545 92.3788 122.409 91.9932 122.128 91.7223L118.522 88.2629C118.21 87.9711 117.772 87.8565 117.355 87.9607C116.939 88.0753 116.616 88.3879 116.501 88.8047L114.667 95.2234C114.532 95.6923 114.698 96.2029 115.073 96.5155C115.303 96.6926 115.574 96.776 115.845 96.776ZM118.293 91.4201L119.231 92.3162L117.814 93.0873L118.293 91.4201ZM130.422 105.893C130.328 105.518 130.057 105.206 129.703 105.06C129.338 104.914 128.932 104.945 128.599 105.143L123.368 108.342C122.951 108.603 122.722 109.082 122.795 109.572C122.868 110.061 123.232 110.447 123.701 110.572L130.12 112.177C130.214 112.197 130.318 112.218 130.412 112.218C130.735 112.218 131.037 112.093 131.276 111.864C131.579 111.562 131.704 111.124 131.599 110.707L130.422 105.893ZM127.129 108.905L128.463 108.092L128.765 109.311L127.129 108.905ZM118.939 99.3914C116.96 99.3914 115.344 101.006 115.344 102.986C115.344 104.966 116.96 106.581 118.939 106.581C120.919 106.581 122.534 104.966 122.534 102.986C122.534 101.006 120.929 99.3914 118.939 99.3914ZM118.939 104.143C118.304 104.143 117.783 103.622 117.783 102.986C117.783 102.351 118.304 101.83 118.939 101.83C119.575 101.83 120.096 102.351 120.096 102.986C120.096 103.622 119.575 104.143 118.939 104.143Z" fill="black"/>
</svg>
