<svg width="99" height="99" viewBox="0 0 99 99" fill="none" xmlns="http://www.w3.org/2000/svg">
<path d="M0.997793 7.4197L4.59125 8.71472L5.84655 12.4364C6.07639 13.1171 7.04437 13.1171 7.27418 12.4364L8.52949 8.71472L12.1185 7.4197C12.7815 7.18102 12.7815 6.23953 12.1185 6.0009L8.52949 4.70588L7.27418 0.984221C7.06645 0.369843 6.04989 0.369843 5.84655 0.984221L4.58684 4.70588L0.99338 6.0009C0.334805 6.23958 0.334797 7.18107 0.997793 7.4197Z" fill="black"/>
<path d="M94.2367 93.3109L93.6754 91.6535C93.4676 91.0391 92.4511 91.0435 92.2477 91.6535L91.6864 93.3109L90.0908 93.8855C89.4278 94.1242 89.4278 95.0657 90.0908 95.3043L91.6864 95.8789L92.2477 97.5363C92.4776 98.217 93.4456 98.217 93.6754 97.5363L94.2367 95.8789L95.8324 95.3043C96.4954 95.0656 96.4954 94.1241 95.8324 93.8855L94.2367 93.3109Z" fill="black"/>
<path d="M12.499 87.1874L11.7874 85.0747C11.5576 84.394 10.5896 84.3896 10.3598 85.0747L9.64377 87.1874L7.60614 87.9211C6.94314 88.1598 6.94314 89.1013 7.60614 89.3399L9.64377 90.0737L10.3598 92.1864C10.5896 92.8671 11.5576 92.8715 11.7874 92.1864L12.499 90.0737L14.5367 89.3399C15.1997 89.1013 15.1997 88.1598 14.5367 87.9211L12.499 87.1874Z" fill="black"/>
<path d="M89.7946 29.3031L92.3052 30.2092L93.1848 32.8126C93.4146 33.4933 94.3826 33.4933 94.6124 32.8126L95.492 30.2092L98.0026 29.3031C98.6656 29.0645 98.6656 28.123 98.0026 27.8843L95.492 26.9782L94.6124 24.3748C94.4047 23.7605 93.3881 23.7605 93.1848 24.3748L92.3052 26.9782L89.7946 27.8843C89.1316 28.123 89.1316 29.0689 89.7946 29.3031Z" fill="black"/>
<path d="M9.35184 19.0013C5.83351 20.2522 3.99039 24.1152 5.24128 27.6247C13.8735 51.9568 27.4868 90.5911 27.712 90.9317C27.8755 91.6434 27.8092 91.2942 28.2689 92.6953C29.4844 96.1163 33.2546 97.9286 36.6846 96.7131L58.9301 88.8367L61.0385 94.786C61.2683 95.4269 62.1523 95.4623 62.4352 94.8523L65.6396 87.9174L71.8231 91.4887C72.4375 91.8378 73.1403 91.2367 72.9105 90.5826L70.8065 84.6333C81.8211 80.7349 79.5713 81.5305 90.1577 77.7823C91.3731 77.3403 92.014 75.9834 91.5897 74.7634C90.2725 71.0374 69.0432 11.0762 65.6758 1.56472C65.2338 0.353659 63.8813 -0.291643 62.6569 0.128262C7.8894 19.5145 9.34279 19.0013 9.35184 19.0013ZM29.9273 84.293L9.46273 26.4535C8.67598 24.2567 9.14449 21.9274 10.4661 20.2081L13.9357 18.9794L36.1326 81.6595C32.0928 83.1801 31.3461 83.1174 29.9273 84.293ZM89.6406 76.3592L70.3031 83.2058L68.6589 78.5603L82.4135 73.6895C83.3594 73.358 82.8467 71.9304 81.9097 72.2663C61.4938 79.4973 96.3184 67.1657 36.7906 88.2399C36.3972 88.3769 36.1939 88.81 36.3309 89.2034C36.4679 89.5924 36.8967 89.8045 37.2944 89.6631L56.7825 82.7635L58.4267 87.4045L36.1812 95.2808C33.5425 96.2179 30.6297 94.8256 29.6926 92.1912C29.3921 91.294 29.4141 91.4266 29.1401 90.5204C29.1401 90.2376 28.5478 88.0453 30.2186 86.0783C30.7799 85.4154 31.5358 84.8805 32.3888 84.5844C88.1736 64.8497 85.8178 65.592 86.1583 65.601C86.5959 65.6143 86.7816 65.8353 86.9495 66.1668L90.1673 75.2542C90.322 75.7006 90.087 76.1957 89.6406 76.3592ZM63.4348 1.49828C63.7928 1.49828 64.1287 1.71928 64.2569 2.06846L86.215 64.0935C85.4239 64.0626 58.9128 73.6671 37.5554 81.159L15.3585 18.4754C65.1802 0.84869 63.1474 1.49828 63.4348 1.49828Z" fill="black"/>
<path d="M41.6356 42.6658C43.1781 47.0195 47.9561 49.3002 52.3142 47.7576C56.6679 46.215 58.9486 41.4371 57.406 37.079C55.8634 32.7252 51.0855 30.4446 46.7274 31.9871C42.3736 33.5297 40.0974 38.3077 41.6356 42.6658Z" fill="black"/>
<path d="M49.3123 25.8481L48.6626 28.4117C48.5609 28.8139 48.804 29.225 49.2062 29.3311C49.6085 29.4327 50.0195 29.1896 50.1212 28.7874C50.7753 26.0117 50.9786 25.8923 50.793 25.4812L49.4802 22.5198C49.3123 22.1353 48.8658 21.9673 48.4857 22.1353C48.1056 22.3033 47.9332 22.7497 48.1012 23.1298L49.3123 25.8481Z" fill="black"/>
<path d="M37.2678 28.8664L39.9728 30.1128L41.175 32.4642C41.6258 33.3438 42.9739 32.6676 42.5187 31.7747C41.2281 29.357 41.2589 29.0431 40.839 28.8487L37.8953 27.4962C37.5196 27.3239 37.0688 27.4874 36.8964 27.8675C36.724 28.2432 36.8877 28.694 37.2678 28.8664Z" fill="black"/>
<path d="M55.2527 31.253C57.6085 29.7988 57.9047 29.8254 58.0726 29.3923L59.2394 26.369C59.3897 25.98 59.1952 25.5424 58.8063 25.3922C58.4173 25.2419 57.9797 25.4319 57.8295 25.8253L56.7598 28.6055L54.488 29.9535C54.13 30.1657 54.0106 30.6298 54.2228 30.9878C54.4305 31.3458 54.8946 31.4608 55.2527 31.253Z" fill="black"/>
<path d="M59.7168 36.3101C59.3058 36.3499 58.9964 36.7168 59.0362 37.1322C59.0759 37.5521 59.4472 37.8527 59.8583 37.8129L62.749 37.5477C63.2042 37.5079 63.1688 37.3046 65.5513 35.1168C66.2761 34.4317 65.2419 33.3355 64.5126 34.0206L62.3511 36.0671L59.7168 36.3101Z" fill="black"/>
<path d="M62.6169 45.7386L60.2036 44.6645C59.2975 44.2535 58.6742 45.6325 59.5892 46.0436L62.2412 47.2282C62.6567 47.4138 62.7274 47.2193 65.8744 46.4812C66.8424 46.2381 66.4755 44.7751 65.5075 45.0182L62.6169 45.7386Z" fill="black"/>
<path d="M40.8839 46.7281C38.1568 47.0243 37.8739 46.8784 37.5425 47.1966L35.1911 49.4244C34.7004 49.8929 35.0275 50.7282 35.7082 50.7282C36.2386 50.7282 36.3314 50.3304 38.3911 48.474L41.0254 48.2309C42.0243 48.1381 41.874 46.6308 40.8839 46.7281Z" fill="black"/>
<path d="M45.5638 51.0505L43.6632 53.2428C43.3671 53.5876 43.5306 53.698 43.3273 56.9379C43.2787 57.9368 44.786 58.0163 44.8345 57.0086L44.9759 54.0339L46.7085 52.0361C47.3582 51.2803 46.218 50.2946 45.5638 51.0505Z" fill="black"/>
<path d="M32.1447 39.4482L35.031 38.7189C37.5194 39.8063 37.4663 39.8593 37.7536 39.8593C38.5669 39.8593 38.8011 38.7454 38.063 38.414L35.411 37.2294C34.9955 37.0438 34.938 37.2338 31.7778 37.9764C30.8054 38.2283 31.1723 39.6913 32.1447 39.4482Z" fill="black"/>
<path d="M59.0631 53.1L56.1238 52.6226L54.3338 50.6778C53.6575 49.944 52.5481 50.9606 53.2243 51.6988C55.2001 53.7761 55.178 53.9971 55.6244 54.0723C58.5725 54.5497 58.8466 54.6027 58.9438 54.6027C59.8632 54.5983 59.9737 53.2458 59.0631 53.1Z" fill="black"/>
<path d="M56.0794 16.6461L58.3601 16.6594L59.8143 18.5113C60.2563 19.0771 61.1712 18.7544 61.1624 18.034L61.127 15.6826L62.895 14.2329C63.4387 13.7865 63.1293 12.898 62.4221 12.8936L60.137 12.8804L58.6827 11.0328C58.2452 10.4715 57.3258 10.7853 57.3347 11.5102L57.37 13.8616L55.602 15.3113C55.0584 15.7577 55.3722 16.6417 56.0794 16.6461Z" fill="black"/>
<path d="M23.0315 24.1024L24.3177 24.1113L25.1398 25.1588C25.5818 25.7246 26.4968 25.4019 26.4879 24.6815L26.4703 23.351L27.4648 22.5377C28.0084 22.0869 27.6946 21.2029 26.9918 21.1985L25.7056 21.1897L24.8835 20.1421C24.4415 19.5764 23.5266 19.899 23.5354 20.6195L23.5531 21.9499L22.5586 22.7632C22.0149 23.2096 22.3243 24.0936 23.0315 24.1024Z" fill="black"/>
<path d="M71.8499 60.849L73.1361 60.8578C73.8079 61.6136 73.9582 62.1883 74.5505 62.1883C74.966 62.1883 75.3107 61.8479 75.3063 61.4236L75.2886 60.0976L76.2831 59.2843C76.8268 58.8379 76.5174 57.9495 75.8102 57.9451L74.524 57.9362L73.7063 56.8931C73.2643 56.3273 72.3494 56.65 72.3582 57.3705L72.3759 58.6965L71.3725 59.5142C70.8289 59.9606 71.1427 60.8446 71.8499 60.849Z" fill="black"/>
<path d="M41.2023 64.8177C39.8056 65.3127 39.0719 66.8465 39.5669 68.2475C39.9647 69.3658 41.0122 70.042 42.0996 70.042C43.9471 70.042 45.2555 68.2165 44.6323 66.453C44.3936 65.7767 42.5945 64.3227 41.2023 64.8177Z" fill="black"/>
</svg>
