<svg width="98" height="101" viewBox="0 0 98 101" fill="none" xmlns="http://www.w3.org/2000/svg">
<path d="M49.1127 61.0984C32.5127 61.0984 19.0127 47.5984 19.0127 30.9984C19.0127 14.3984 32.5127 0.898438 49.1127 0.898438C65.7127 0.898438 79.2127 14.3984 79.2127 30.9984C79.2127 47.5984 65.7127 61.0984 49.1127 61.0984ZM49.1127 3.09844C33.7127 3.09844 21.3127 15.5984 21.3127 30.8984C21.3127 46.2984 33.8127 58.6984 49.1127 58.6984C64.5127 58.6984 76.9127 46.1984 76.9127 30.8984C76.9127 15.5984 64.5127 3.09844 49.1127 3.09844Z" fill="black"/>
<path d="M45.7128 53.2969C45.1128 53.2969 44.6128 52.7969 44.6128 52.1969V41.3969C44.6128 40.7969 45.1128 40.2969 45.7128 40.2969C46.3128 40.2969 46.8128 40.7969 46.8128 41.3969V52.1969C46.8128 52.7969 46.3128 53.2969 45.7128 53.2969Z" fill="black"/>
<path d="M52.4125 53.2969C51.8125 53.2969 51.3125 52.7969 51.3125 52.1969V41.3969C51.3125 40.7969 51.8125 40.2969 52.4125 40.2969C53.0125 40.2969 53.5125 40.7969 53.5125 41.3969V52.1969C53.6125 52.7969 53.1125 53.2969 52.4125 53.2969Z" fill="black"/>
<path d="M54.2126 56.3969C53.6126 56.3969 53.1126 55.8969 53.1126 55.2969C53.1126 53.7969 51.3126 52.4969 49.1126 52.4969C46.9126 52.4969 45.1126 53.7969 45.1126 55.2969C45.1126 55.8969 44.6126 56.3969 44.0126 56.3969C43.4126 56.3969 42.9126 55.8969 42.9126 55.2969C42.9126 52.4969 45.7126 50.2969 49.1126 50.2969C52.5126 50.2969 55.3126 52.4969 55.3126 55.2969C55.3126 55.8969 54.8126 56.3969 54.2126 56.3969Z" fill="black"/>
<path d="M49.1126 43.3969C45.7126 43.3969 42.9126 41.1969 42.9126 38.3969C42.9126 37.7969 43.4126 37.2969 44.0126 37.2969C44.6126 37.2969 45.1126 37.7969 45.1126 38.3969C45.1126 39.8969 46.9126 41.1969 49.1126 41.1969C51.3126 41.1969 53.1126 39.8969 53.1126 38.3969C53.1126 37.7969 53.6126 37.2969 54.2126 37.2969C54.8126 37.2969 55.3126 37.7969 55.3126 38.3969C55.3126 41.0969 52.5126 43.3969 49.1126 43.3969Z" fill="black"/>
<path d="M35.8129 31C35.2129 31 34.7129 30.5 34.7129 29.9V20.1C34.7129 19.5 35.2129 19 35.8129 19C36.4129 19 36.9129 19.5 36.9129 20.1V29.9C36.9129 30.5 36.4129 31 35.8129 31Z" fill="black"/>
<path d="M35.8128 21.1991C35.6128 21.1991 35.3128 21.0991 35.1128 20.9991C34.6128 20.5991 34.5128 19.8991 34.9128 19.3991L35.9128 18.0991C37.1128 16.4991 39.1128 15.7991 41.0128 16.0991C42.9128 16.3991 44.4128 17.6991 45.0128 19.4991V19.5991C45.2128 20.1991 44.8128 20.7991 44.3128 20.9991C43.7128 21.1991 43.1128 20.7991 42.9128 20.2991V20.1991C42.6128 19.1991 41.7128 18.4991 40.6128 18.2991C39.5128 18.0991 38.3128 18.4991 37.6128 19.4991L36.6128 20.7991C36.5128 20.9991 36.2128 21.1991 35.8128 21.1991Z" fill="black"/>
<path d="M35.8129 21.1991C35.5129 21.1991 35.1129 21.0991 34.9129 20.7991L33.9129 19.4991C33.2129 18.5991 32.1129 18.0991 30.9129 18.2991C29.8129 18.4991 29.0129 19.1991 28.6129 20.1991C28.4129 20.7991 27.8129 21.1991 27.2129 20.9991C26.6129 20.7991 26.3129 20.1991 26.5129 19.5991V19.4991C27.1129 17.6991 28.6129 16.3991 30.5129 16.0991C32.5129 15.7991 34.4129 16.4991 35.6129 18.0991L36.6129 19.3991C37.0129 19.8991 36.9129 20.5991 36.4129 20.9991C36.3129 21.0991 36.1129 21.1991 35.8129 21.1991Z" fill="black"/>
<path d="M55.9125 30.4969C55.6125 30.4969 55.3125 30.3969 55.1125 30.1969C54.7125 29.7969 54.7125 29.0969 55.1125 28.5969L67.1125 16.5969C67.5125 16.1969 68.2125 16.1969 68.7125 16.5969C69.1125 16.9969 69.1125 17.6969 68.7125 18.1969L56.7125 30.1969C56.5125 30.3969 56.2125 30.4969 55.9125 30.4969Z" fill="black"/>
<path d="M63.9126 31.3969C63.6126 31.3969 63.3126 31.2969 63.1126 31.0969L54.2126 22.1969C53.8126 21.7969 53.8126 21.0969 54.2126 20.5969C54.6126 20.1969 55.3126 20.1969 55.8126 20.5969L64.7126 29.4969C65.1126 29.8969 65.1126 30.5969 64.7126 31.0969C64.4126 31.2969 64.1126 31.3969 63.9126 31.3969Z" fill="black"/>
<path d="M68.8125 17.5984H60.9125C60.3125 17.5984 59.8125 17.0984 59.8125 16.4984C59.8125 15.8984 60.3125 15.3984 60.9125 15.3984H68.8125C69.4125 15.3984 69.9125 15.8984 69.9125 16.4984C69.9125 17.0984 69.4125 17.5984 68.8125 17.5984Z" fill="black"/>
<path d="M68.8124 25.4984C68.2124 25.4984 67.7124 24.9984 67.7124 24.3984V16.4984C67.7124 15.8984 68.2124 15.3984 68.8124 15.3984C69.4124 15.3984 69.9124 15.8984 69.9124 16.4984V24.3984C69.9124 24.9984 69.4124 25.4984 68.8124 25.4984Z" fill="black"/>
<path d="M49.1127 32.0984C48.5127 32.0984 48.0127 31.5984 48.0127 30.9984V1.99844C48.0127 1.39844 48.5127 0.898438 49.1127 0.898438C49.7127 0.898438 50.2127 1.39844 50.2127 1.99844V30.9984C50.2127 31.5984 49.7127 32.0984 49.1127 32.0984Z" fill="black"/>
<path d="M24.0125 46.6019C23.6125 46.6019 23.2125 46.4019 23.0125 46.0019C22.7125 45.5019 22.9125 44.8019 23.4125 44.5019L48.4125 30.1019C48.9125 29.8019 49.6125 30.0019 49.9125 30.5019C50.2125 31.0019 50.0125 31.7019 49.5125 32.0019L24.5125 46.4019C24.4125 46.5019 24.2125 46.6019 24.0125 46.6019Z" fill="black"/>
<path d="M74.2127 46.5972C74.0127 46.5972 73.8127 46.5972 73.6127 46.4972L49.1127 32.1972C48.6127 31.8972 48.4127 31.1972 48.7127 30.6972C49.0127 30.1972 49.7127 29.9972 50.2127 30.2972L74.8127 44.4972C75.3127 44.7972 75.5127 45.4972 75.2127 45.9972C74.9127 46.3972 74.6127 46.5972 74.2127 46.5972Z" fill="black"/>
<path d="M49.1126 92.3969C48.9126 92.3969 48.8126 92.3969 48.6126 92.2969C48.2126 92.0969 47.9126 91.6969 47.9126 91.2969V64.3969C47.9126 63.7969 48.4126 63.2969 49.0126 63.2969C49.6126 63.2969 50.1126 63.7969 50.1126 64.3969V88.9969C54.5126 85.9969 66.9126 79.0969 88.1126 78.9969L84.2126 32.4969C83.6126 32.4969 83.0126 32.4969 82.4126 32.4969C81.8126 32.4969 81.3126 31.9969 81.3126 31.3969C81.3126 30.7969 81.8126 30.2969 82.4126 30.2969C83.3126 30.2969 84.3126 30.2969 85.3126 30.3969C85.9126 30.3969 86.3126 30.8969 86.4126 31.3969L90.5126 80.0969C90.5126 80.3969 90.4126 80.6969 90.2126 80.9969C90.0126 81.1969 89.7126 81.3969 89.4126 81.3969C89.1126 81.3969 88.8126 81.3969 88.5126 81.3969C62.5126 81.3969 49.9126 92.0969 49.8126 92.1969C49.6126 92.2969 49.4126 92.3969 49.1126 92.3969Z" fill="black"/>
<path d="M49.1124 92.3953C48.8124 92.3953 48.6124 92.2953 48.4124 92.0953C48.3124 91.9953 35.6124 81.2953 9.7124 81.2953C9.4124 81.2953 9.1124 81.2953 8.8124 81.2953C8.5124 81.2953 8.2124 81.1953 8.0124 80.8953C7.8124 80.6953 7.7124 80.3953 7.7124 79.9953L11.8124 31.2953C11.8124 30.6953 12.3124 30.2953 12.9124 30.2953C13.9124 30.1953 14.8124 30.1953 15.8124 30.1953C16.4124 30.1953 16.9124 30.6953 16.9124 31.2953C16.9124 31.8953 16.4124 32.3953 15.8124 32.3953C15.2124 32.3953 14.6124 32.3953 14.0124 32.3953L10.1124 78.8953C36.6124 79.0953 49.3124 89.8953 49.8124 90.3953C50.3124 90.7953 50.3124 91.4953 49.9124 91.9953C49.7124 92.1953 49.4124 92.3953 49.1124 92.3953Z" fill="black"/>
<path d="M49.1126 100.898C44.2126 100.898 39.9126 98.1977 37.8126 93.8977C37.6126 93.5977 37.5126 93.2977 37.4126 93.0977C22.5126 86.8977 11.1126 87.1977 5.51256 87.8977C4.21256 88.0977 2.91256 87.5977 1.91256 86.6977C0.912558 85.7977 0.412558 84.4977 0.512558 83.0977L4.11256 39.6977C4.31256 37.2977 6.31256 35.4977 8.71256 35.5977C10.6126 35.6977 11.9126 35.8977 12.7126 36.2977C13.2126 36.5977 13.5126 37.2977 13.2126 37.7977C12.9126 38.2977 12.2126 38.5977 11.7126 38.2977C11.5126 38.1977 10.7126 37.8977 8.61256 37.7977C7.41256 37.6977 6.41256 38.5977 6.31256 39.7977L2.81256 83.2977C2.71256 83.9977 3.01256 84.5977 3.51256 85.0977C4.01256 85.5977 4.61256 85.7977 5.31256 85.6977C11.1126 84.9977 23.2126 84.6977 38.8126 91.1977C39.1126 91.2977 39.3126 91.5977 39.4126 91.8977C39.4126 91.8977 39.5126 92.2977 39.8126 92.8977C41.5126 96.4977 45.1126 98.6977 49.1126 98.6977C53.1126 98.6977 56.7126 96.4977 58.4126 92.8977C58.7126 92.2977 58.8126 91.8977 58.8126 91.8977C58.9126 91.5977 59.1126 91.2977 59.4126 91.1977C75.1126 84.6977 87.1126 84.9977 92.9126 85.6977C93.6126 85.7977 94.2126 85.5977 94.7126 85.0977C95.2126 84.5977 95.4126 83.9977 95.4126 83.2977L91.8126 39.8977C91.7126 38.6977 90.7126 37.7977 89.5126 37.8977C87.4126 37.9977 86.6126 38.2977 86.4126 38.3977C85.9126 38.6977 85.2126 38.4977 84.9126 37.8977C84.6126 37.3977 84.8126 36.6977 85.4126 36.3977C86.2126 35.9977 87.5126 35.6977 89.4126 35.6977C91.8126 35.5977 93.8126 37.3977 94.0126 39.7977L97.6126 83.1977C97.7126 84.4977 97.2126 85.7977 96.2126 86.7977C95.2126 87.6977 93.9126 88.1977 92.6126 87.9977C87.1126 87.2977 75.6126 86.9977 60.7126 93.1977C60.6126 93.3977 60.5126 93.6977 60.3126 93.9977C58.3126 98.1977 54.0126 100.898 49.1126 100.898Z" fill="black"/>
</svg>
