<svg width="107" height="106" viewBox="0 0 107 106" fill="none" xmlns="http://www.w3.org/2000/svg">
<path d="M12.3653 101.379C9.87573 97.6969 9.94728 97.0721 9.17467 97.0625C8.40682 97.1245 8.63099 97.3773 6.58021 100.32C4.83465 97.7636 4.84418 97.072 4.08586 97.0673C3.2894 97.0911 3.39432 97.6348 0.790342 101.388C0.432648 101.932 0.828496 102.647 1.47234 102.647C2.23542 102.647 2.25449 101.918 4.06204 99.3803L5.87438 102.256C6.14623 102.685 6.86638 102.843 7.24316 102.27L9.15562 99.3708L10.9918 102.251C11.5784 103.162 12.9424 102.28 12.3653 101.379Z" fill="black"/>
<path d="M2.14344 97.7271L4.05113 94.8274L5.86824 97.6985C6.01608 97.9322 6.27362 98.0753 6.55023 98.0801C7.237 98.1754 7.39439 97.3075 9.14946 94.8131L10.9856 97.6938C11.2288 98.0753 11.7344 98.185 12.1111 97.9418C12.4927 97.6985 12.6024 97.1978 12.3591 96.8162C9.8648 93.1249 9.94111 92.5049 9.1685 92.5H9.16374C8.40543 92.5 8.3625 93.2392 6.57403 95.7574C4.82848 93.2011 4.838 92.5095 4.07968 92.5048C3.78399 92.5095 3.54553 92.6383 3.39291 92.872L0.788925 96.8257C0.187999 97.7366 1.5568 98.6094 2.14344 97.7271Z" fill="black"/>
<path d="M11.0279 11.144H11.0708C14.4904 11.144 16.069 6.81351 13.3362 4.6388C14.2042 3.98065 14.7766 2.95527 14.7908 1.78208C14.7956 1.33377 14.4379 0.966542 13.9848 0.957007H13.9753C13.5318 0.957007 13.1645 1.3147 13.1598 1.76301C13.1455 2.87901 12.2011 3.76606 11.109 3.77082C9.9882 3.75651 9.09164 2.84082 9.10117 1.72004C9.1107 0.642191 7.47965 0.613573 7.47489 1.70096C7.46535 2.86942 8.01382 3.90912 8.86748 4.58637C6.02981 6.75156 7.63702 11.1058 11.0279 11.144ZM11.047 9.51298C9.25367 9.4939 8.35715 7.30005 9.65438 6.03615C10.9326 4.78189 13.1216 5.7023 13.0978 7.50981C13.0834 8.6258 12.2059 9.57024 11.047 9.51298Z" fill="black"/>
<path d="M94.7944 77.7586C94.0647 79.8047 96.0249 81.7504 98.0519 81.0541C100.837 80.0955 100.06 75.9415 97.1219 76.0512C98.4334 74.1817 100.866 73.8478 102.602 74.9972C102.974 75.2452 103.479 75.145 103.732 74.7682C103.98 74.3915 103.875 73.8907 103.503 73.6379C99.9787 71.3154 95.1903 73.5569 94.7944 77.7586ZM98.109 78.3071C98.2807 78.8031 98.0184 79.342 97.5224 79.5137C96.7211 79.7856 95.9915 78.9557 96.3587 78.2022C96.5256 77.8588 96.8642 77.668 97.2124 77.668C97.3555 77.668 97.9755 77.916 98.109 78.3071Z" fill="black"/>
<path d="M102.641 75.8848C99.9746 76.8053 100.533 80.8638 103.461 80.8925C102.068 82.5903 99.6788 82.7812 98.0097 81.5745C97.6472 81.3122 97.1369 81.3933 96.8746 81.7558C96.6123 82.1182 96.6934 82.6285 97.0559 82.8908C100.499 85.3852 105.431 83.3392 105.941 79.0659C106.094 78.5652 106.103 78.0119 105.922 77.4777C105.454 76.1375 103.986 75.4174 102.641 75.8848ZM103.795 79.2185C102.994 79.4904 102.264 78.6605 102.631 77.907C102.86 77.4396 103.423 77.2393 103.9 77.4682C104.658 77.8402 104.586 78.9466 103.795 79.2185Z" fill="black"/>
<path d="M82.0185 21.933C86.039 22.8916 85.8912 22.8821 86.0676 22.8821C86.6304 22.8821 87.0978 22.2525 86.7687 21.6564C86.7639 21.6468 86.7591 21.6373 86.7496 21.6325C86.7162 21.5801 86.6924 21.5228 86.6495 21.4751C85.2807 20.0873 86.6208 17.7933 88.4713 18.2512C90.3885 18.709 90.4458 21.4275 88.5476 21.976C88.4856 21.995 88.4379 22.0284 88.3855 22.0618C88.3759 22.0666 88.3664 22.0713 88.3521 22.0761C87.7273 22.4624 87.9229 23.3876 88.6001 23.5545C92.6206 24.5131 92.4727 24.5036 92.6492 24.5036C93.6078 24.5036 93.7699 23.1253 92.8399 22.8964L90.7176 22.3861C92.4822 20.278 91.3185 17.2639 88.8432 16.6677C86.4061 16.0859 83.9786 18.1891 84.5557 20.8694L82.3905 20.3496C81.3413 20.1064 80.9789 21.6801 82.0185 21.933Z" fill="black"/>
<path d="M35.8108 67.872C43.1936 78.8222 59.1854 79.2848 67.2166 68.6684C67.4265 68.3918 67.436 68.0103 67.2405 67.7194C59.8291 56.7263 43.7999 56.2637 35.8346 66.9277C35.6248 67.2091 35.6152 67.5858 35.8108 67.872ZM51.7023 60.8374C55.532 60.9328 58.5653 64.1281 58.4699 67.9578C58.3078 74.2771 50.6627 76.9526 46.4943 72.5696C42.2592 68.1152 45.5214 60.6705 51.7023 60.8374ZM65.5525 68.1487C63.4874 70.7001 60.7403 72.5793 57.7166 73.6666C60.7832 70.4426 60.9072 65.5589 57.9741 62.1824C60.9692 63.4223 63.6115 65.4636 65.5525 68.1487ZM45.3694 61.8533C42.2741 65.063 42.1215 70.0087 45.088 73.4044C42.0834 72.1691 39.4317 70.1279 37.4905 67.4476C39.5651 64.8531 42.3171 62.9407 45.3694 61.8533Z" fill="black"/>
<path d="M50.0228 71.3763C50.0181 71.6195 49.9179 71.8293 49.7844 72.0058C52.8272 73.2648 56.0273 71.0376 56.1084 67.8947C56.1704 65.367 54.1721 63.2637 51.6445 63.1969C47.748 63.0968 45.4921 67.6276 48.0055 70.6799C48.2153 70.3985 50.0468 70.2936 50.0228 71.3763ZM52.7842 64.6134C53.6665 64.6373 54.3629 65.367 54.3389 66.2492C54.315 67.1315 53.5854 67.8279 52.7031 67.804C51.8208 67.7801 51.1245 67.0504 51.1484 66.1682C51.1675 65.2906 51.9019 64.5943 52.7842 64.6134Z" fill="black"/>
<path d="M12.6872 12.6336C12.3677 12.3141 11.8526 12.3141 11.5378 12.6336C11.2183 12.9532 11.2183 13.4683 11.5378 13.783L24.4479 26.6882C24.6005 26.8408 24.8056 26.9267 25.0249 26.9267H30.2377L32.5889 49.4039L34.4156 61.933L20.3224 46.2515C18.1238 43.7858 14.2941 43.6284 11.8952 45.8079C9.43435 48.0161 9.23876 51.7933 11.4517 54.2303C22.4543 66.5067 19.5928 62.8436 21.9917 67.8229C22.8692 69.6257 24.1236 71.3856 25.7117 73.0548C27.4286 74.8529 28.6687 75.9593 30.3713 77.2135H26.8421C26.6275 77.2135 26.4176 77.2994 26.265 77.452L13.2646 90.4524C12.7495 90.9675 13.1215 91.8402 13.8417 91.8402C14.4855 91.8402 13.8464 92.0405 27.1766 78.8398H32.2607C34.5594 81.0909 36.4146 84.1003 37.7691 87.8441L37.8073 95.1554L37.0728 95.1601C36.1714 95.1649 35.4465 95.8946 35.4513 96.7959L35.4799 104.279C35.4847 105.18 36.2144 105.905 37.1157 105.9L66.2409 105.795C67.1422 105.791 67.8671 105.061 67.8624 104.16L67.8337 96.6767C67.829 95.7753 67.0993 95.0505 66.198 95.0552L65.4969 95.06L65.4587 87.7154C68.0722 79.1594 70.7765 69.6311 71.7875 60.8453H84.7794L95.6246 71.6905C96.3781 72.4441 97.537 71.3042 96.774 70.5411L85.6903 59.4575C85.2372 59.0044 85.4805 59.3048 71.9549 59.219C72.9135 48.6313 72.3698 40.8722 72.4795 35.1729C74.8593 35.1061 75.198 35.3398 75.5986 34.9344L84.2644 26.2687C84.5839 25.9491 84.5839 25.4341 84.2644 25.1193C83.9448 24.7997 83.4298 24.7997 83.115 25.1193L74.6878 33.5465H72.4749L72.451 26.9125C72.4367 24.4276 70.424 22.4485 67.9679 22.4485H67.9488C65.4497 22.4581 63.4705 24.4898 63.48 26.9221L63.4371 28.5389L62.9125 19.1863C62.9029 16.4297 60.6566 14.1643 57.8714 14.1643H57.8523C55.0814 14.1738 52.8398 16.444 52.8493 19.2006L52.7158 26.6168L52.0147 14.522C52.0099 11.7224 49.716 9.5 46.9927 9.5H46.9736C44.198 9.50954 41.9421 11.7797 41.9516 14.5554L42.0327 36.5467L39.6194 20.1973C39.3809 15.7619 33.8581 13.7731 30.8678 17.0686C29.9664 18.0654 29.5085 19.3579 29.5801 20.7457L30.0522 25.2861H25.345L12.6872 12.6336ZM31.2111 20.6317C31.1634 19.7208 31.4734 18.848 32.0838 18.1755C34.1108 15.934 37.8402 17.3123 38.0073 20.3742L42.0849 48.055C42.2375 49.0756 43.7064 48.9182 43.7064 47.9358L43.5872 14.5654C43.5824 12.6863 45.1038 11.1506 46.9877 11.1411H46.9972C48.8001 11.1411 50.3834 12.5957 50.3929 14.5845L52.3339 48.0696C52.3959 49.1045 53.9411 49.0759 53.9602 48.0362L54.48 19.2248C54.4753 17.3457 55.9919 15.81 57.8614 15.8005H57.8709C59.688 15.8005 61.2762 17.2551 61.2857 19.2391L62.912 48.131C62.9692 49.166 64.5097 49.1469 64.5383 48.1072L65.1106 26.9266C65.1058 25.3337 66.3888 24.065 67.9578 24.0602H67.9673C69.4982 24.0602 70.8145 25.2907 70.824 26.9074L70.8479 33.5367H68.716C68.2677 33.5367 67.9005 33.8992 67.9005 34.3522C67.9005 34.8005 68.2629 35.1678 68.716 35.1678H70.8526C70.7525 40.1611 71.2628 49.0411 70.3185 59.2139L66.2742 59.2091C65.8259 59.2091 65.4586 59.5716 65.4586 60.0246C65.4586 60.473 65.8211 60.8402 66.2742 60.8402H70.1516C68.6397 73.7222 63.8323 86.5846 63.8323 87.5955L63.8705 95.0642L39.4324 95.1548C39.38 87.3333 39.4324 87.6671 39.3466 87.4334C38.1209 83.9996 36.4899 81.1381 34.4915 78.8489H38.5024C38.9508 78.8489 39.318 78.4864 39.318 78.0333C39.318 77.585 38.9555 77.2178 38.5024 77.2178H32.9129C31.1961 75.6535 26.0119 72.3722 23.4508 67.1213C21.0327 62.0707 23.6988 65.4664 12.6532 53.1527C11.0602 51.3929 11.1747 48.6506 12.9775 47.0243C14.7278 45.4361 17.5129 45.5697 19.1011 47.3438L34.7924 64.8043C35.3457 65.4195 36.4522 64.8901 36.3519 64.0937L34.1963 49.2094L31.8689 26.9324H33.9007C34.349 26.9324 34.7162 26.5699 34.7162 26.1169C34.7162 25.6685 34.3538 25.3013 33.9007 25.3013H31.6973L31.2111 20.6317Z" fill="black"/>
</svg>
