<svg width="120" height="121" viewBox="0 0 120 121" fill="none" xmlns="http://www.w3.org/2000/svg">
<path d="M21.9771 58.5793C22.4391 48.7914 26.5973 39.9712 33.0862 33.4819C33.2623 33.3058 33.4404 33.1338 33.6186 32.9618C33.6932 32.8437 33.7947 32.7464 33.917 32.678C40.3251 26.6445 48.8236 22.8093 58.2131 22.3722C51.921 13.1396 45.0322 16.0424 37.5986 19.1793C32.7402 21.2285 27.6642 23.3708 22.2568 22.6353C22.9923 28.041 20.8521 33.1193 18.801 37.978C15.6664 45.408 12.7659 52.293 21.9771 58.5834V58.5793ZM104.982 54.5784C104.866 54.682 104.818 54.8394 104.856 54.9907C104.936 55.2932 105.299 55.403 105.533 55.1979L105.674 55.0715L105.813 54.9451L105.948 54.8166L106.08 54.6882L106.211 54.5597L106.339 54.4313L106.463 54.3028L106.586 54.1743L106.706 54.0438L106.741 54.0044C106.843 53.8946 106.876 53.7413 106.83 53.5983C106.731 53.2958 106.347 53.2088 106.13 53.4429L106.095 53.4823L105.981 53.6046L105.865 53.7268L105.747 53.849L105.624 53.9713L105.5 54.0935L105.374 54.2158L105.245 54.338L105.115 54.4582L104.98 54.5784H104.982ZM65.1143 15.0126C65.019 15.1225 64.9879 15.2716 65.0314 15.4105C65.1308 15.7192 65.5245 15.8021 65.7379 15.5596L65.858 15.4229L65.9803 15.2882L66.1025 15.1577L66.2247 15.0292L66.347 14.9028L66.4713 14.7764C66.5832 14.6666 66.6246 14.505 66.577 14.3538C66.4817 14.0596 66.1149 13.9684 65.8912 14.1839L65.7544 14.3227L65.626 14.4553L65.4975 14.59L65.3691 14.7288L65.2427 14.8697L65.1163 15.0126H65.1143ZM67.8408 12.5387C67.5859 12.7149 67.6087 13.0982 67.8822 13.2453C68.0189 13.3199 68.1867 13.3095 68.3131 13.2204L68.4499 13.1251L68.5762 13.0422L68.7026 12.9614L68.829 12.8827L68.9554 12.806L69.0818 12.7314L69.2082 12.6589L69.3345 12.5885L69.4609 12.5201L69.5873 12.4538L69.6805 12.4061C69.9457 12.2715 69.9892 11.9172 69.7655 11.7224C69.637 11.6126 69.4609 11.5898 69.3097 11.6665L69.2061 11.7183L69.0693 11.7908L68.9326 11.8654L68.7959 11.942L68.6591 12.0208L68.5224 12.1016L68.3877 12.1844L68.253 12.2694L68.1184 12.3564L67.9837 12.4455L67.8366 12.547L67.8408 12.5387ZM71.7295 10.7631C71.3981 10.8418 71.2965 11.2624 71.5576 11.4841C71.657 11.5691 71.7917 11.6002 71.9181 11.5712L72.0507 11.5401L72.1833 11.5111L72.3159 11.4821L72.4485 11.4551L72.5811 11.4303L72.7137 11.4075L72.8462 11.3868L72.9788 11.366L73.1135 11.3474L73.2482 11.3308L73.3828 11.3163L73.4968 11.3039C73.7268 11.2811 73.8946 11.076 73.8676 10.846C73.8407 10.6201 73.6418 10.4565 73.416 10.4792L73.2917 10.4917L73.1487 10.5083L73.0058 10.5269L72.8628 10.5476L72.7199 10.5683L72.5769 10.5911L72.434 10.616L72.291 10.6429L72.148 10.6719L72.0051 10.703L71.8621 10.7362L71.7295 10.7672V10.7631ZM75.9747 10.4627C75.8276 10.4502 75.6888 10.5145 75.6038 10.6326C75.4174 10.8957 75.5852 11.2583 75.9042 11.2873L75.983 11.2935L76.1218 11.3059L76.2606 11.3204L76.4015 11.335L76.5424 11.3515L76.6832 11.3681L76.8241 11.3868L76.965 11.4054L77.1059 11.4261L77.2468 11.4489L77.3876 11.4717L77.512 11.4924C77.8559 11.5504 78.1128 11.1899 77.945 10.8833C77.8828 10.7735 77.7772 10.6989 77.6528 10.6761L77.5223 10.6533L77.3752 10.6284L77.2281 10.6056L77.081 10.5849L76.9339 10.5642L76.7868 10.5455L76.6397 10.5269L76.4926 10.5103L76.3455 10.4937L76.1984 10.4792L76.0513 10.4668L75.9726 10.4606L75.9747 10.4627ZM80.1183 11.2376C79.7619 11.1402 79.4657 11.5173 79.6459 11.8405C79.7019 11.9379 79.7889 12.0063 79.8945 12.0353L79.9774 12.0581L80.1224 12.0995L80.2675 12.1409L80.4146 12.1844L80.5617 12.228L80.7088 12.2715L80.8559 12.3171L81.003 12.3626L81.1501 12.4082L81.2972 12.4559L81.4629 12.5097C81.8172 12.6237 82.13 12.2549 81.9601 11.9255C81.9083 11.8281 81.8275 11.7576 81.7219 11.7224L81.5499 11.6665L81.3987 11.6188L81.2474 11.5712L81.0983 11.5256L80.9491 11.48L80.7999 11.4344L80.6507 11.3909L80.5016 11.3474L80.3524 11.3039L80.2032 11.2624L80.1204 11.2396L80.1183 11.2376ZM84.0837 12.5512C83.9325 12.4952 83.7668 12.5305 83.6507 12.6423C83.4332 12.8558 83.5098 13.2204 83.7958 13.3282C84.3116 13.5208 84.8254 13.7177 85.3393 13.9166C85.5837 14.0119 85.8531 13.8586 85.8986 13.5996C85.9318 13.4048 85.8241 13.2163 85.6397 13.1438C85.1238 12.9428 84.6058 12.7439 84.0858 12.5512H84.0837ZM87.9518 14.0533C87.6327 13.929 87.3137 14.2191 87.4007 14.5485C87.4359 14.677 87.525 14.7744 87.6493 14.8241C88.1652 15.0271 88.6811 15.2281 89.199 15.425C89.4995 15.5389 89.8102 15.282 89.7543 14.965C89.7294 14.822 89.63 14.7019 89.4932 14.6501C88.9773 14.4532 88.4656 14.2543 87.9518 14.0533ZM91.8157 15.4975C91.5961 15.4229 91.3579 15.5431 91.2874 15.7627C91.219 15.9782 91.3351 16.2082 91.5485 16.2807L91.6666 16.32L91.8219 16.3739L91.9794 16.4257L92.1369 16.4775L92.2943 16.5293L92.4518 16.5811L92.6092 16.6308L92.7667 16.6806L92.9241 16.7303L93.1417 16.7987C93.2826 16.8422 93.4338 16.8069 93.5415 16.7075C93.7777 16.4899 93.6886 16.0983 93.382 16.0051L93.1686 15.9388L93.0153 15.8911L92.862 15.8414L92.7087 15.7917L92.5554 15.742L92.4021 15.6902L92.2487 15.6384L92.0954 15.5866L91.9421 15.5348L91.824 15.4954L91.8157 15.4975ZM95.7501 16.6453C95.4082 16.5687 95.1306 16.923 95.2881 17.2358C95.344 17.3477 95.4435 17.4265 95.5657 17.4534L95.7563 17.4969L95.9138 17.5321L96.0712 17.5653L96.2287 17.5984L96.3861 17.6295L96.5436 17.6606L96.7031 17.6896L96.8627 17.7186L97.0222 17.7455L97.1817 17.7725L97.2211 17.7787C97.5588 17.8284 97.8095 17.4782 97.652 17.1757C97.5899 17.0597 97.4801 16.981 97.3495 16.9603L97.1631 16.9292L97.0098 16.9023L96.8564 16.8753L96.7031 16.8463L96.5498 16.8173L96.3965 16.7862L96.2432 16.7551L96.0899 16.722L95.9366 16.6888L95.7522 16.6474L95.7501 16.6453ZM99.7694 17.2048C99.6119 17.2006 99.4669 17.2856 99.3923 17.4244C99.2494 17.6979 99.4379 18.0232 99.7466 18.0335L99.8875 18.0377L100.047 18.0418L100.207 18.0439H100.366H100.526L100.685 18.0418L100.845 18.0377L101.004 18.0335L101.164 18.0273L101.323 18.019L101.443 18.0128C101.655 17.9983 101.82 17.8284 101.831 17.6171C101.841 17.3684 101.638 17.1695 101.39 17.1861L101.278 17.1923L101.126 17.2006L100.975 17.2068L100.824 17.211L100.673 17.2151L100.521 17.2172H100.37H100.219L100.068 17.2151L99.9165 17.211L99.7756 17.2068L99.7694 17.2048ZM103.296 18.336C103.325 18.0418 103.053 17.8139 102.767 17.8947C102.604 17.9424 102.49 18.0812 102.471 18.249L102.465 18.3008L102.448 18.4603L102.434 18.6199L102.421 18.7794L102.411 18.939L102.401 19.0985L102.392 19.258L102.386 19.4176L102.382 19.5771L102.378 19.7367L102.376 19.8962V19.9542C102.378 20.2691 102.707 20.4639 102.987 20.3189C103.124 20.2443 103.204 20.1075 103.204 19.9521V19.9024L103.207 19.7512L103.211 19.5999L103.215 19.4487L103.221 19.2974L103.229 19.1462L103.238 18.9949L103.248 18.8437L103.26 18.6924L103.275 18.5412L103.289 18.3899L103.296 18.3381V18.336ZM103.362 22.3722C103.329 22.136 103.109 21.9764 102.875 22.0199C102.658 22.0614 102.512 22.2624 102.539 22.482L102.554 22.5876L102.575 22.7451L102.597 22.9026L102.622 23.06L102.647 23.2175L102.674 23.375L102.701 23.5325L102.73 23.6899L102.759 23.8474L102.79 24.0049L102.817 24.1375C102.863 24.355 103.066 24.498 103.283 24.4648C103.517 24.4296 103.675 24.2058 103.629 23.9738L103.604 23.8453L103.575 23.692L103.546 23.5387L103.519 23.3853L103.492 23.232L103.468 23.0787L103.443 22.9254L103.42 22.772L103.397 22.6187L103.376 22.4654L103.362 22.3597V22.3722ZM104.213 26.3606C104.116 26.0291 103.681 25.9545 103.48 26.2343C103.405 26.3399 103.383 26.4663 103.418 26.5906L103.445 26.6859L103.49 26.8434L103.536 27.0009L103.584 27.1583L103.631 27.3158L103.679 27.4733L103.729 27.6307L103.778 27.7861L103.828 27.9415L103.911 28.1922C103.959 28.3373 104.079 28.4409 104.228 28.4699C104.539 28.5258 104.796 28.2316 104.696 27.9332L104.665 27.8421L104.615 27.6888L104.566 27.5354L104.516 27.3821L104.468 27.2288L104.421 27.0755L104.373 26.9221L104.327 26.7688L104.282 26.6155L104.236 26.4622L104.209 26.3669L104.213 26.3606ZM105.521 30.26C105.465 30.1109 105.334 30.0114 105.177 29.9928C104.87 29.9596 104.636 30.26 104.744 30.5501C104.936 31.0702 105.135 31.5881 105.336 32.1041C105.415 32.303 105.631 32.4128 105.838 32.3527C106.072 32.2843 106.198 32.0315 106.109 31.8036C105.91 31.2898 105.711 30.7759 105.521 30.26ZM107.017 34.1159C106.88 33.772 106.401 33.7637 106.252 34.1014C106.209 34.2029 106.207 34.3148 106.246 34.4184C106.447 34.9323 106.648 35.444 106.843 35.9599C106.923 36.1733 107.164 36.2811 107.377 36.2003C107.59 36.1195 107.698 35.8791 107.617 35.6657C107.421 35.1477 107.22 34.6318 107.017 34.1159ZM108.471 38.0153C108.361 37.6941 107.93 37.6341 107.738 37.9138C107.663 38.0236 107.644 38.1562 107.688 38.2826L107.75 38.467L107.8 38.6141L107.849 38.7612L107.897 38.9083L107.945 39.0554L107.992 39.2025L108.038 39.3496L108.084 39.4967L108.129 39.6438L108.189 39.8448C108.268 40.1017 108.56 40.2198 108.794 40.0872C108.962 39.9899 109.039 39.7951 108.985 39.6107L108.923 39.4014L108.877 39.2522L108.829 39.1031L108.782 38.9539L108.734 38.8047L108.684 38.6555L108.635 38.5063L108.585 38.3572L108.535 38.2059L108.471 38.0194V38.0153ZM109.608 42.0514C109.577 41.9002 109.465 41.78 109.318 41.7365C109.018 41.6515 108.736 41.9126 108.796 42.2172L108.831 42.385L108.858 42.528L108.885 42.6709L108.91 42.8118L108.935 42.9527L108.958 43.0936L108.981 43.2345L109.001 43.3754L109.022 43.5163L109.041 43.6572L109.061 43.8167C109.101 44.1462 109.486 44.2974 109.741 44.0861C109.849 43.9949 109.901 43.8623 109.884 43.7214L109.861 43.5494L109.84 43.4023L109.82 43.2552L109.797 43.1081L109.774 42.961L109.749 42.8139L109.724 42.6668L109.698 42.5197L109.671 42.3726L109.642 42.2255L109.606 42.0514H109.608ZM109.998 46.2699C110.01 45.9487 109.675 45.7353 109.391 45.8845C109.26 45.955 109.177 46.0834 109.171 46.2326L109.169 46.2782L109.163 46.4129L109.155 46.5475L109.144 46.6822L109.134 46.8169L109.122 46.9516L109.107 47.0862L109.09 47.2209L109.074 47.3535L109.055 47.4861L109.035 47.6187L109.012 47.7513L108.999 47.8218C108.943 48.1409 109.25 48.3978 109.552 48.2859C109.689 48.232 109.787 48.1181 109.814 47.973L109.828 47.8922L109.851 47.7493L109.874 47.6063L109.894 47.4633L109.913 47.3204L109.93 47.1774L109.944 47.0344L109.959 46.8915L109.971 46.7485L109.981 46.6055L109.99 46.4605L109.998 46.3155L110 46.2699H109.998ZM109.076 50.4428C109.146 50.2832 109.109 50.1009 108.985 49.9787C108.778 49.7777 108.434 49.844 108.316 50.1092L108.264 50.2273L108.206 50.3558L108.146 50.4842L108.084 50.6127L108.019 50.7391L107.955 50.8655L107.889 50.9918L107.82 51.1182L107.75 51.2446L107.677 51.371L107.603 51.4974L107.584 51.5285C107.41 51.8061 107.615 52.1708 107.945 52.1625C108.086 52.1583 108.212 52.0858 108.287 51.9677L108.311 51.9284L108.392 51.7937L108.471 51.659L108.548 51.5223L108.622 51.3855L108.695 51.2488L108.765 51.112L108.834 50.9753L108.9 50.8385L108.964 50.7018L109.026 50.563L109.078 50.4449L109.076 50.4428ZM65.4126 104.904C65.2158 104.672 64.8491 104.717 64.7185 104.995C64.6522 105.142 64.673 105.31 64.7766 105.434L64.9029 105.585L65.0314 105.735L65.1598 105.88L65.2883 106.023L65.4167 106.163L65.5452 106.302L65.6736 106.437L65.8042 106.57L65.9181 106.683C66.0196 106.785 66.1605 106.828 66.3014 106.797C66.6205 106.727 66.7365 106.333 66.5065 106.101L66.3926 105.987L66.2683 105.861L66.146 105.732L66.0238 105.602L65.9015 105.467L65.7793 105.33L65.6571 105.192L65.5348 105.049L65.4126 104.904ZM105.469 65.5845C105.355 65.483 105.2 65.4519 105.055 65.5016C104.756 65.6073 104.68 65.9885 104.914 66.2019L105.015 66.2931L105.15 66.4153L105.282 66.5397L105.413 66.664L105.541 66.7883L105.666 66.9126L105.788 67.0369L105.908 67.1612L106.026 67.2856L106.068 67.3311C106.302 67.5881 106.731 67.4596 106.785 67.1157C106.803 66.9893 106.766 66.8691 106.681 66.7759L106.631 66.722L106.507 66.5894L106.381 66.4589L106.252 66.3283L106.122 66.1978L105.987 66.0673L105.85 65.9367L105.711 65.8062L105.568 65.6777L105.467 65.5866L105.469 65.5845ZM108.237 68.8064C108.081 68.5536 107.725 68.5412 107.549 68.7794C107.452 68.9162 107.443 69.0944 107.53 69.2394L107.574 69.3078L107.651 69.4362L107.725 69.5647L107.798 69.6932L107.868 69.8216L107.936 69.9501L108.003 70.0785L108.067 70.2091L108.129 70.3396L108.189 70.4701L108.247 70.6007L108.268 70.6504C108.33 70.7954 108.463 70.8907 108.62 70.9011C108.929 70.9218 109.151 70.6131 109.03 70.3251L109.003 70.265L108.941 70.1241L108.877 69.9832L108.811 69.8423L108.74 69.7035L108.668 69.5647L108.593 69.4259L108.517 69.2871L108.438 69.1482L108.357 69.0094L108.274 68.8727L108.231 68.8043L108.237 68.8064ZM109.782 72.7886C109.72 72.4633 109.329 72.3349 109.086 72.5649C108.987 72.6622 108.941 72.799 108.966 72.9378L108.977 72.9875L108.999 73.1222L109.022 73.2569L109.043 73.3916L109.061 73.5283L109.078 73.6651L109.093 73.8018L109.107 73.9386L109.119 74.0753L109.13 74.212L109.138 74.3488L109.146 74.4855L109.148 74.5249C109.161 74.7943 109.42 74.9807 109.679 74.9062C109.861 74.8523 109.983 74.6824 109.975 74.4918L109.973 74.4441L109.965 74.297L109.954 74.1499L109.942 74.0028L109.93 73.8557L109.915 73.7086L109.898 73.5635L109.88 73.4185L109.859 73.2735L109.836 73.1284L109.814 72.9834L109.789 72.8384L109.778 72.7886H109.782ZM109.876 77.0402C109.894 76.8828 109.824 76.7315 109.693 76.6445C109.434 76.4767 109.093 76.6341 109.053 76.9408L109.045 77.0112L109.026 77.1542L109.008 77.2972L108.987 77.4401L108.966 77.5831L108.943 77.7261L108.919 77.869L108.894 78.0141L108.867 78.1591L108.84 78.3041L108.811 78.4492L108.792 78.5445C108.763 78.6874 108.811 78.8387 108.923 78.9361C109.161 79.1495 109.54 79.0231 109.604 78.7102L109.625 78.6108L109.654 78.4595L109.683 78.3083L109.71 78.1591L109.737 78.0099L109.762 77.8607L109.785 77.7116L109.807 77.5624L109.828 77.4132L109.849 77.264L109.867 77.1148L109.876 77.0444V77.0402ZM108.985 81.153C109.045 80.9479 108.943 80.7345 108.747 80.6516C108.519 80.5584 108.262 80.6806 108.191 80.9168L108.137 81.093L108.092 81.2421L108.046 81.3913L107.999 81.5405L107.951 81.6897L107.903 81.8389L107.854 81.988L107.804 82.1372L107.754 82.2885L107.69 82.477C107.586 82.7816 107.854 83.082 108.169 83.0178C108.314 82.9867 108.425 82.8873 108.475 82.7464L108.541 82.5537L108.593 82.4003L108.643 82.247L108.693 82.0937L108.742 81.9404L108.79 81.7871L108.838 81.6337L108.885 81.4804L108.931 81.3271L108.985 81.1468V81.153ZM107.622 85.098C107.742 84.781 107.452 84.4619 107.126 84.551C106.998 84.5862 106.896 84.6774 106.849 84.8038C106.652 85.3197 106.453 85.8335 106.252 86.3453C106.128 86.6623 106.418 86.9855 106.747 86.8965C106.876 86.8612 106.975 86.7721 107.023 86.6478C107.226 86.1319 107.427 85.616 107.624 85.098H107.622ZM106.113 88.9601C106.244 88.6141 105.9 88.2847 105.56 88.4318C105.459 88.4773 105.382 88.5581 105.34 88.6617C105.14 89.1777 104.941 89.6956 104.746 90.2157C104.624 90.5472 104.941 90.8684 105.274 90.7503C105.39 90.7067 105.477 90.6218 105.523 90.5058C105.715 89.9899 105.912 89.476 106.113 88.9622V88.9601ZM104.698 92.8305C104.744 92.6875 104.713 92.5342 104.611 92.4223C104.396 92.1882 104.012 92.2711 103.911 92.5715L103.872 92.6937L103.82 92.8533L103.768 93.0128L103.718 93.1723L103.669 93.3319L103.619 93.4914L103.569 93.651L103.521 93.8105L103.474 93.97L103.416 94.1731C103.37 94.3347 103.426 94.5067 103.557 94.6103C103.789 94.7926 104.133 94.6828 104.213 94.3989L104.269 94.2042L104.315 94.0488L104.363 93.8934L104.41 93.738L104.458 93.5826L104.508 93.4272L104.557 93.2718L104.607 93.1164L104.659 92.961L104.698 92.8388V92.8305ZM103.621 96.7775C103.685 96.4522 103.364 96.1891 103.057 96.3134C102.927 96.3673 102.838 96.4771 102.809 96.6159L102.792 96.6926L102.761 96.8542L102.73 97.0158L102.701 97.1774L102.672 97.339L102.645 97.5006L102.618 97.6622L102.593 97.8239L102.568 97.9855L102.546 98.1471L102.527 98.2838C102.498 98.5138 102.66 98.721 102.89 98.7479C103.115 98.7749 103.318 98.6153 103.349 98.3895L103.366 98.259L103.389 98.1036L103.412 97.9482L103.437 97.7928L103.461 97.6374L103.488 97.482L103.515 97.3266L103.544 97.1712L103.573 97.0158L103.604 96.8604L103.621 96.7837V96.7775ZM103.186 100.807C103.184 100.505 102.871 100.308 102.597 100.434C102.45 100.503 102.357 100.652 102.357 100.812V100.888L102.359 101.05L102.363 101.211L102.367 101.373L102.374 101.535L102.382 101.696L102.392 101.858L102.403 102.02L102.415 102.181L102.43 102.343L102.446 102.511C102.469 102.697 102.61 102.844 102.796 102.873C103.068 102.913 103.3 102.689 103.271 102.415V102.417L103.256 102.264L103.242 102.111L103.229 101.957L103.219 101.804L103.211 101.651L103.202 101.497L103.196 101.344L103.192 101.191L103.19 101.037L103.188 100.884V100.807H103.186ZM101.435 103.642C101.777 103.663 101.997 103.285 101.806 102.997C101.733 102.89 101.617 102.823 101.487 102.815L101.443 102.813L101.282 102.803L101.12 102.794L100.959 102.788L100.797 102.784L100.635 102.78L100.474 102.778H100.312L100.151 102.78L99.989 102.782L99.8274 102.786L99.7818 102.788C99.4503 102.803 99.2701 103.176 99.4628 103.445C99.5456 103.557 99.6741 103.621 99.815 103.617L99.8543 103.615L100.008 103.611L100.161 103.609L100.314 103.607H100.468L100.621 103.609L100.774 103.611L100.928 103.615L101.081 103.621L101.234 103.629L101.387 103.638L101.431 103.64L101.435 103.642ZM97.3972 103.853C97.7225 103.801 97.8592 103.412 97.6417 103.167C97.5443 103.062 97.4096 103.014 97.2687 103.035L97.1051 103.062L96.9455 103.089L96.786 103.118L96.6265 103.147L96.4669 103.178L96.3074 103.209L96.1479 103.242L95.9883 103.275L95.8288 103.31L95.6693 103.346L95.6175 103.358C95.3482 103.422 95.2135 103.721 95.3482 103.963C95.4393 104.125 95.6216 104.205 95.8019 104.164L96.0049 104.118L96.1603 104.085L96.3157 104.052L96.4711 104.021L96.6265 103.99L96.7819 103.961L96.9372 103.932L97.0926 103.905L97.248 103.878L97.4055 103.853H97.3972ZM93.4255 104.796C93.6431 104.728 93.7653 104.5 93.7011 104.28C93.6348 104.058 93.4027 103.936 93.1831 104.002L92.9594 104.071L92.7998 104.12L92.6403 104.17L92.4828 104.222L92.3254 104.274L92.1679 104.326L92.0105 104.377L91.853 104.431L91.5961 104.518C91.3827 104.593 91.2688 104.819 91.3351 105.034C91.4055 105.258 91.6438 105.376 91.8655 105.301L92.1182 105.214L92.2736 105.163L92.429 105.111L92.5844 105.059L92.7398 105.009L92.8951 104.96L93.0505 104.91L93.2059 104.862L93.4276 104.794L93.4255 104.796ZM89.5388 106.149C89.7439 106.07 89.8537 105.844 89.7854 105.635C89.7128 105.409 89.4663 105.291 89.2425 105.376C88.7246 105.573 88.2087 105.774 87.6928 105.975C87.3945 106.093 87.3365 106.485 87.5872 106.686C87.7053 106.777 87.8565 106.802 87.9953 106.746C88.5091 106.545 89.0229 106.346 89.5367 106.149H89.5388ZM85.6811 107.655C85.88 107.576 85.9898 107.361 85.9297 107.154C85.8614 106.92 85.6086 106.793 85.3807 106.882C84.8669 107.081 84.3531 107.28 83.8372 107.473C83.6984 107.527 83.5989 107.643 83.5741 107.792C83.5223 108.107 83.8268 108.362 84.1272 108.25C84.6473 108.055 85.1632 107.856 85.6811 107.655ZM81.7654 109.083C82.0699 108.985 82.1528 108.588 81.9104 108.376C81.8006 108.281 81.6494 108.25 81.5106 108.293L81.3697 108.339L81.2205 108.387L81.0713 108.434L80.9222 108.48L80.773 108.525L80.6238 108.571L80.4767 108.615L80.3296 108.658L80.1825 108.702L80.0354 108.743L79.9422 108.77C79.7122 108.836 79.5858 109.072 79.6604 109.3C79.7309 109.51 79.9505 109.628 80.1639 109.57L80.2613 109.543L80.4125 109.499L80.5637 109.456L80.715 109.412L80.8662 109.367L81.0175 109.321L81.1687 109.273L81.3199 109.226L81.4712 109.178L81.6224 109.128L81.7633 109.083H81.7654ZM77.6984 110.137C77.9988 110.086 78.1418 109.742 77.9698 109.491C77.8766 109.358 77.7212 109.292 77.5617 109.319L77.4187 109.344L77.2758 109.367L77.1328 109.389L76.9899 109.41L76.8469 109.431L76.704 109.449L76.561 109.468L76.4201 109.485L76.2792 109.499L76.1384 109.514L75.9975 109.526L75.954 109.53C75.6163 109.557 75.4526 109.951 75.6701 110.21C75.7571 110.311 75.8835 110.365 76.0182 110.355L76.0679 110.351L76.2171 110.336L76.3662 110.322L76.5154 110.305L76.6646 110.289L76.8138 110.27L76.9629 110.249L77.1121 110.229L77.2613 110.206L77.4104 110.183L77.5596 110.158L77.7026 110.133L77.6984 110.137ZM73.4636 110.357C73.6211 110.372 73.7703 110.297 73.8552 110.164C74.0168 109.903 73.849 109.563 73.5424 109.532L73.5051 109.528L73.3683 109.514L73.2337 109.499L73.099 109.483L72.9643 109.464L72.8297 109.443L72.695 109.42L72.5603 109.398L72.4257 109.373L72.291 109.346L72.1584 109.317L72.0258 109.286L71.9678 109.271C71.6425 109.191 71.3608 109.512 71.483 109.825C71.5327 109.951 71.6384 110.042 71.7689 110.075L71.8352 110.092L71.9782 110.125L72.1211 110.156L72.2641 110.185L72.4091 110.212L72.5541 110.237L72.6992 110.26L72.8442 110.282L72.9892 110.303L73.1342 110.322L73.2793 110.338L73.4243 110.353L73.4616 110.357H73.4636ZM69.3511 109.199C69.4941 109.269 69.6598 109.255 69.7883 109.159C70.0327 108.973 69.9975 108.598 69.724 108.459L69.6681 108.432L69.5396 108.366L69.4112 108.298L69.2827 108.227L69.1543 108.155L69.0258 108.08L68.8974 108.003L68.7689 107.925L68.6425 107.844L68.5162 107.761L68.3898 107.676L68.3504 107.649C68.0852 107.465 67.7247 107.637 67.6999 107.958C67.6895 108.105 67.7537 108.242 67.876 108.327L67.9257 108.36L68.0624 108.451L68.1992 108.54L68.3359 108.627L68.4727 108.712L68.6094 108.795L68.7461 108.876L68.8829 108.954L69.0217 109.029L69.1605 109.101L69.2993 109.172L69.3553 109.199H69.3511ZM13.982 67.2462C14.0856 67.1343 14.1188 66.9789 14.0732 66.8339C13.9737 66.5334 13.5925 66.4506 13.377 66.6806L13.261 66.8069L13.1471 66.9333L13.0352 67.0597L12.9254 67.1861L12.8197 67.3125L12.7161 67.4389L12.6146 67.5653L12.5152 67.6937L12.4178 67.8222L12.3225 67.9507L12.2914 67.9942C12.105 68.2511 12.2583 68.6075 12.5732 68.651C12.7244 68.6696 12.8674 68.6075 12.9585 68.4852L12.9896 68.4417L13.0787 68.3215L13.1699 68.2014L13.2631 68.0812L13.3584 67.961L13.4558 67.8408L13.5573 67.7207L13.6609 67.6005L13.7665 67.4824L13.8743 67.3643L13.9841 67.2462H13.982ZM53.3733 107.322C53.6261 107.102 53.5287 106.692 53.2034 106.607C53.0688 106.574 52.9341 106.605 52.8284 106.696L52.7704 106.748L52.6503 106.851L52.5301 106.953L52.4099 107.052L52.2877 107.15L52.1655 107.245L52.0432 107.338L51.921 107.429L51.7987 107.518L51.6765 107.605L51.5584 107.686C51.2746 107.879 51.3347 108.312 51.6599 108.422C51.7842 108.463 51.9148 108.445 52.0225 108.372L52.1489 108.285L52.2794 108.194L52.4099 108.101L52.5405 108.005L52.671 107.906L52.7994 107.804L52.9279 107.701L53.0563 107.595L53.1848 107.487L53.3132 107.378L53.3712 107.326L53.3733 107.322ZM49.7539 109.574C49.9445 109.497 50.0522 109.294 50.0046 109.093C49.9445 108.847 49.6855 108.71 49.4493 108.803L49.3209 108.853L49.1945 108.9L49.0681 108.946L48.9417 108.99L48.8153 109.031L48.689 109.07L48.5626 109.11L48.4341 109.147L48.3057 109.182L48.1772 109.215L48.0488 109.246L47.9286 109.275C47.6406 109.344 47.5142 109.677 47.6841 109.92C47.7836 110.057 47.9493 110.121 48.1151 110.084L48.2435 110.052L48.3823 110.017L48.5211 109.982L48.66 109.945L48.7967 109.905L48.9334 109.864L49.0702 109.82L49.2069 109.775L49.3437 109.727L49.4804 109.677L49.6171 109.626L49.7559 109.572L49.7539 109.574ZM45.5626 110.394C45.9169 110.388 46.1013 109.972 45.8672 109.704C45.7843 109.613 45.6745 109.563 45.5522 109.566L45.4321 109.568H45.2995H45.1669L45.0322 109.566L44.8975 109.563L44.7629 109.559L44.6282 109.553L44.4935 109.547L44.3589 109.539L44.2242 109.53L44.0895 109.52L43.9445 109.508C43.6172 109.474 43.3831 109.825 43.5384 110.115C43.6047 110.237 43.7249 110.318 43.8637 110.332L44.0232 110.347L44.1662 110.357L44.3092 110.367L44.4521 110.376L44.5951 110.382L44.738 110.388L44.881 110.392L45.0239 110.396L45.1669 110.398H45.3078L45.4486 110.396L45.5688 110.394H45.5626ZM41.3589 109.936C41.6987 110.011 41.9742 109.661 41.8209 109.348C41.765 109.234 41.6635 109.155 41.5391 109.126L41.4687 109.11L41.3278 109.079L41.1869 109.045L41.0461 109.012L40.9052 108.977L40.7643 108.942L40.6234 108.907L40.4825 108.869L40.3416 108.832L40.2008 108.793L40.0578 108.753L39.9563 108.724C39.8154 108.685 39.6621 108.722 39.5564 108.826C39.3265 109.048 39.4238 109.435 39.7305 109.522L39.8361 109.551L39.9811 109.59L40.1262 109.63L40.2712 109.669L40.4162 109.706L40.5613 109.744L40.7063 109.779L40.8513 109.814L40.9963 109.849L41.1414 109.883L41.2864 109.916L41.3568 109.932L41.3589 109.936ZM37.3354 108.768C37.6607 108.882 37.9756 108.571 37.8658 108.244C37.8244 108.123 37.7312 108.028 37.611 107.987L37.3251 107.887C36.9024 107.736 36.4819 107.583 36.0613 107.425C35.7878 107.324 35.4978 107.527 35.5019 107.819C35.506 107.991 35.6096 108.14 35.7712 108.2C36.2457 108.378 36.7201 108.55 37.1987 108.718L37.3396 108.768H37.3354ZM33.4425 107.303C33.7719 107.431 34.0972 107.121 33.9874 106.785C33.946 106.667 33.8631 106.578 33.7471 106.532C33.2333 106.329 32.7195 106.126 32.2036 105.925C31.8824 105.801 31.5572 106.099 31.6566 106.431C31.6939 106.555 31.783 106.648 31.9032 106.698C32.417 106.899 32.9308 107.102 33.4446 107.305L33.4425 107.303ZM29.5869 105.811C29.9349 105.935 30.2581 105.585 30.1048 105.248C30.0572 105.146 29.9764 105.071 29.8707 105.032C29.6221 104.941 29.3735 104.85 29.1249 104.761L28.8203 104.653L28.6691 104.599L28.5158 104.545L28.3003 104.471C27.9916 104.367 27.6932 104.638 27.7637 104.955C27.7968 105.096 27.8963 105.208 28.0351 105.256C28.1553 105.297 28.2754 105.339 28.3977 105.38C28.7955 105.519 29.1912 105.662 29.5869 105.807V105.811ZM25.6857 104.527C26.0089 104.616 26.2989 104.301 26.185 103.986C26.1394 103.859 26.0337 103.764 25.9053 103.729L25.7644 103.69L25.6111 103.648L25.4578 103.607L25.3045 103.567L25.1511 103.528L24.9978 103.489L24.8445 103.451L24.6912 103.414L24.5379 103.379L24.3846 103.343L24.283 103.321C24.1401 103.29 23.993 103.335 23.8915 103.441C23.6719 103.677 23.79 104.058 24.1049 104.131L24.2002 104.152L24.3493 104.187L24.4985 104.222L24.6477 104.257L24.7969 104.295L24.946 104.332L25.0952 104.371L25.2444 104.411L25.3935 104.45L25.5427 104.491L25.6836 104.531L25.6857 104.527ZM21.6912 103.716C21.9191 103.741 22.1222 103.582 22.1491 103.354C22.176 103.124 22.0144 102.919 21.7844 102.892L21.7492 102.888L21.5938 102.871L21.4385 102.855L21.2831 102.84L21.1277 102.828L20.9723 102.815L20.8169 102.805L20.6615 102.794L20.5061 102.786L20.3508 102.78L20.1954 102.774L20.0939 102.772C19.7437 102.763 19.5407 103.167 19.7582 103.443C19.8369 103.54 19.9488 103.596 20.0731 103.6L20.1664 103.602L20.3155 103.609L20.4647 103.615L20.6139 103.623L20.763 103.631L20.9122 103.642L21.0614 103.654L21.2106 103.667L21.3597 103.681L21.5089 103.696L21.6581 103.712L21.6933 103.716H21.6912ZM17.6615 103.714C18.0034 103.667 18.1401 103.246 17.8936 103.006C17.8024 102.917 17.6761 102.875 17.5497 102.894L17.4958 102.9L17.502 102.848L17.5207 102.695L17.5372 102.542L17.5517 102.395C17.5828 102.073 17.2513 101.841 16.9592 101.98C16.8287 102.042 16.7396 102.169 16.7272 102.314L16.7127 102.453L16.6961 102.598L16.6774 102.743L16.6588 102.888L16.6381 103.033L16.6153 103.178L16.5904 103.323C16.5635 103.482 16.6298 103.642 16.7645 103.733C16.8598 103.799 16.9675 103.818 17.069 103.801L17.2161 103.777L17.3632 103.754L17.5103 103.733L17.6595 103.712L17.6615 103.714ZM16.779 99.8937C16.7976 100.19 17.1042 100.37 17.3736 100.244C17.5248 100.169 17.616 100.018 17.6077 99.8481L17.6035 99.7756L17.5953 99.6223L17.5849 99.469L17.5725 99.3157L17.56 99.1623L17.5455 99.009L17.531 98.8557L17.5145 98.7024L17.4979 98.549L17.4792 98.3957L17.4585 98.2424L17.4482 98.1657C17.4046 97.857 17.0462 97.7057 16.7935 97.8881C16.6692 97.9772 16.607 98.1284 16.6277 98.2797L16.6381 98.3522L16.6567 98.4993L16.6754 98.6464L16.6919 98.7935L16.7085 98.9406L16.723 99.0877L16.7375 99.2348L16.75 99.382L16.7603 99.5291L16.7707 99.6762L16.779 99.8233L16.7831 99.8958L16.779 99.8937ZM16.1698 95.8762C16.2527 96.2181 16.694 96.3093 16.9053 96.0275C16.9799 95.928 17.0048 95.8037 16.9758 95.6835L16.9302 95.4929L16.8929 95.3417L16.8535 95.1904L16.8142 95.0392L16.7748 94.8879L16.7334 94.7367L16.6919 94.5854L16.6505 94.4342L16.607 94.2829L16.5448 94.0674C16.4495 93.7463 16.0373 93.6655 15.8259 93.9245C15.741 94.0322 15.712 94.169 15.7513 94.3016L15.8114 94.5088L15.8529 94.6579L15.8943 94.8071L15.9357 94.9563L15.9751 95.1055L16.0145 95.2546L16.0518 95.4038L16.089 95.553L16.1263 95.7022L16.1719 95.8887L16.1698 95.8762ZM14.9931 91.9499C15.107 92.2711 15.5379 92.3249 15.7286 92.0431C15.8011 91.9333 15.8176 91.7987 15.7762 91.6743C15.5918 91.1501 15.4033 90.628 15.2085 90.108C15.1277 89.8945 14.8915 89.7847 14.6781 89.8655C14.4627 89.9463 14.3529 90.1846 14.4337 90.4001C14.5932 90.8269 14.7486 91.2537 14.9019 91.6826L14.9951 91.9499H14.9931ZM13.5386 88.0857C13.5925 88.2204 13.7065 88.3157 13.8494 88.3427C14.1706 88.4007 14.4275 88.0878 14.3094 87.7832C14.1063 87.2694 13.9054 86.7556 13.7023 86.2417C13.6174 86.0304 13.3853 85.9247 13.1699 86.0055C12.9523 86.0884 12.8467 86.3287 12.9295 86.5442C13.1305 87.0581 13.3335 87.574 13.5366 88.0878L13.5386 88.0857ZM12.0407 84.2133C12.163 84.5407 12.6105 84.5821 12.7866 84.2796C12.8487 84.1698 12.8612 84.0455 12.8177 83.9274C12.6685 83.5254 12.5255 83.1214 12.3847 82.7174L12.3349 82.5744L12.2666 82.3755C12.1568 82.0523 11.7279 81.9922 11.5331 82.2719C11.4586 82.3817 11.4399 82.5143 11.4813 82.6407L11.5497 82.8437L11.5994 82.9888L11.701 83.2809C11.8108 83.5938 11.9226 83.9046 12.0387 84.2154L12.0407 84.2133ZM10.75 80.2372C10.8287 80.5232 11.1644 80.6371 11.4026 80.4589C11.5352 80.3553 11.5932 80.1875 11.5518 80.0238L11.5145 79.8829L11.4793 79.7441L11.4441 79.6053L11.4088 79.4665L11.3757 79.3277L11.3425 79.1888L11.3115 79.05L11.2804 78.9112L11.2493 78.7724L11.2203 78.6336L11.1913 78.4947L11.1789 78.4367C11.1499 78.2876 11.0442 78.1694 10.8992 78.1218C10.5967 78.0265 10.3066 78.2855 10.3667 78.5963L10.3791 78.6584L10.4081 78.8014L10.4392 78.9444L10.4703 79.0873L10.5014 79.2303L10.5345 79.3732L10.5677 79.5162L10.6029 79.6592L10.6381 79.8021L10.6754 79.9451L10.7127 80.0881L10.75 80.2331V80.2372ZM10.0269 76.0768C10.0477 76.4187 10.4434 76.5906 10.7086 76.371C10.808 76.284 10.8619 76.1638 10.8536 76.0312L10.8474 75.9152L10.8412 75.7826L10.8349 75.65L10.8308 75.5174L10.8287 75.3848L10.8267 75.2522V75.1196V74.987L10.8287 74.8543L10.8329 74.7238L10.837 74.5933L10.8432 74.4628L10.8453 74.4234C10.866 74.0753 10.4724 73.8577 10.1885 74.0629C10.087 74.1354 10.0269 74.2493 10.0186 74.3737L10.0166 74.4213L10.0104 74.5601L10.0062 74.699L10.0021 74.8378L10 74.9787V75.1196V75.2605L10.0021 75.4013L10.0062 75.5422L10.0104 75.6831L10.0166 75.824L10.0228 75.9649L10.029 76.0809L10.0269 76.0768ZM10.4206 71.8355C10.3791 71.9847 10.4226 72.138 10.5345 72.2458C10.7645 72.4613 11.1333 72.3577 11.2203 72.0552L11.2307 72.0179L11.2659 71.8915L11.3032 71.7651L11.3425 71.6387L11.384 71.5123L11.4254 71.3859L11.4689 71.2616L11.5145 71.1373L11.5621 71.013L11.6119 70.8887L11.6637 70.7643L11.7155 70.64L11.7548 70.553C11.8874 70.2609 11.6471 69.9335 11.328 69.9729C11.183 69.9894 11.0587 70.0827 10.9986 70.2153L10.9551 70.3127L10.8992 70.4473L10.8432 70.582L10.7894 70.7167L10.7376 70.8514L10.6878 70.986L10.6402 71.1207L10.5946 71.2554L10.5511 71.3901L10.5097 71.5247L10.4703 71.6615L10.4309 71.7982L10.4206 71.8355ZM53.74 14.9546C53.8933 15.1121 54.1399 15.1245 54.3077 14.9816C54.4879 14.8241 54.5004 14.5527 54.3367 14.3786L54.2103 14.2502L54.0839 14.1238L53.9576 13.9995L53.8312 13.8772L53.7027 13.757L53.5743 13.6389L53.4458 13.5229L53.3174 13.411L53.1889 13.3012L53.0936 13.2225C52.8388 13.007 52.4493 13.1645 52.4141 13.496C52.4016 13.6348 52.4534 13.7633 52.5591 13.8544L52.6544 13.9332L52.7766 14.0368L52.8989 14.1424L53.019 14.2502L53.1392 14.3621L53.2594 14.476L53.3795 14.592L53.4997 14.7101L53.6199 14.8303L53.74 14.9526V14.9546ZM14.4233 55.1274C14.6844 55.3616 15.0987 55.1875 15.1153 54.8374C15.1215 54.713 15.0697 54.5949 14.9786 54.5121L14.8418 54.3877C14.6885 54.2427 14.4502 54.2365 14.2886 54.3753C14.1022 54.5349 14.0939 54.8229 14.2741 54.9928L14.4233 55.1295V55.1274ZM12.5421 53.1176C12.7327 53.3663 13.1201 53.3207 13.2486 53.0348C13.3108 52.896 13.2921 52.7343 13.1989 52.6142L13.1533 52.5541L13.0601 52.4298L12.9689 52.3055L12.8798 52.1811L12.7928 52.0568L12.7079 51.9325L12.625 51.8082L12.5442 51.6839L12.4655 51.5575L12.3888 51.4311L12.3142 51.3047L12.3059 51.2902C12.1588 51.0333 11.8025 51.0063 11.6181 51.2384C11.5145 51.3731 11.5 51.5492 11.5849 51.6963L11.5994 51.7212L11.6802 51.8558L11.7631 51.9905L11.8481 52.1252L11.9351 52.2599L12.0242 52.3945L12.1153 52.5271L12.2085 52.6598L12.3039 52.7924L12.4012 52.925L12.5007 53.0576L12.5463 53.1176H12.5421ZM10.547 49.3405C10.5905 49.4814 10.7023 49.5871 10.8453 49.6244C11.1581 49.699 11.4316 49.411 11.3405 49.1022L11.3094 49.0007L11.2721 48.8702L11.2348 48.7396L11.1996 48.6091L11.1664 48.4786L11.1354 48.348L11.1063 48.2175L11.0794 48.087L11.0525 47.9544L11.0276 47.8218L11.0048 47.6892L10.982 47.5504C10.9344 47.2292 10.5594 47.0842 10.3066 47.2914C10.1948 47.3867 10.1409 47.5234 10.1616 47.6685L10.1865 47.828L10.2113 47.971L10.2383 48.1139L10.2673 48.2548L10.2983 48.3957L10.3294 48.5366L10.3626 48.6775L10.3978 48.8184L10.4351 48.9593L10.4744 49.1002L10.5159 49.2411L10.547 49.3426V49.3405ZM10.0228 45.1138C10.0104 45.4577 10.3999 45.667 10.6796 45.466C10.7831 45.3914 10.8453 45.2733 10.8515 45.1469L10.8577 44.9915L10.866 44.8548L10.8743 44.7159L10.8847 44.5771L10.895 44.4383L10.9075 44.2995L10.922 44.1607L10.9365 44.0218L10.953 43.883L10.9696 43.7442L10.9883 43.6033L10.9965 43.5391C11.0421 43.2138 10.7148 42.9693 10.4144 43.104C10.2838 43.1641 10.1968 43.2801 10.1761 43.4231L10.1657 43.4935L10.1471 43.6406L10.1285 43.7877L10.1119 43.9348L10.0974 44.0799L10.0829 44.2249L10.0704 44.3699L10.058 44.515L10.0477 44.66L10.0394 44.805L10.0311 44.9501L10.0249 45.1138H10.0228ZM10.6671 40.9388C10.6298 41.0901 10.6754 41.2413 10.7894 41.347C11.0214 41.5562 11.3923 41.4485 11.471 41.1439L11.4958 41.0424L11.5331 40.8974L11.5704 40.7523L11.6098 40.6073L11.6492 40.4623L11.6906 40.3172L11.732 40.1722L11.7735 40.0271L11.817 39.8821L11.8605 39.7371L11.9123 39.5693C11.991 39.3103 11.8108 39.0492 11.5394 39.0326C11.3487 39.0223 11.1789 39.1404 11.1208 39.3227L11.067 39.4967L11.0214 39.6459L10.9779 39.7951L10.9344 39.9443L10.8909 40.0935L10.8494 40.2426L10.808 40.3918L10.7686 40.541L10.7293 40.6902L10.6899 40.8393L10.6651 40.9409L10.6671 40.9388ZM11.9226 36.9503C11.8066 37.2715 12.105 37.5864 12.4323 37.489C12.5587 37.4517 12.6561 37.3564 12.7016 37.2342C12.8922 36.7183 13.0829 36.2024 13.2797 35.6885C13.3335 35.5476 13.3087 35.3943 13.2154 35.2783C13.0145 35.0317 12.6229 35.0939 12.5069 35.3902C12.308 35.9081 12.1153 36.4282 11.9226 36.9503ZM13.4123 33.0717C13.3563 33.2188 13.3833 33.3824 13.4889 33.5005C13.6961 33.7305 14.069 33.6642 14.183 33.3762C14.386 32.8603 14.587 32.3465 14.788 31.8306C14.9019 31.5322 14.6574 31.2276 14.3404 31.2711C14.1913 31.296 14.069 31.3913 14.0152 31.5322C13.8163 32.046 13.6153 32.5599 13.4123 33.0737V33.0717ZM14.8812 29.2116C14.8294 29.3587 14.8625 29.5162 14.9661 29.6322C15.1795 29.8601 15.5545 29.7856 15.6623 29.4913L15.7265 29.309L15.7803 29.1536L15.8342 28.9982L15.8881 28.8428L15.9419 28.6874L15.9937 28.532L16.0455 28.3766L16.0973 28.2212L16.1491 28.0659L16.1989 27.9125C16.2651 27.7053 16.1616 27.4836 15.9627 27.4028C15.7389 27.3117 15.4841 27.4298 15.4116 27.6598L15.3618 27.811L15.3121 27.9643L15.2603 28.1176L15.2085 28.271L15.1567 28.4243L15.1049 28.5776L15.0511 28.7309L14.9972 28.8843C14.9578 28.9962 14.9185 29.106 14.8791 29.2178L14.8812 29.2116ZM16.0932 25.2936C16.058 25.4386 16.1015 25.5857 16.2071 25.6914C16.4392 25.9131 16.8183 25.8054 16.8971 25.4946L16.9198 25.4034L16.9592 25.2459L16.9965 25.0885L17.0338 24.931L17.069 24.7735L17.1042 24.6161L17.1374 24.4586L17.1705 24.3011L17.2037 24.1437L17.2348 23.9862L17.2596 23.8515C17.3197 23.5304 17.0027 23.2714 16.7002 23.3895C16.5676 23.4413 16.4723 23.5573 16.4454 23.6982L16.4205 23.8267L16.3895 23.98L16.3584 24.1333L16.3252 24.2866L16.2921 24.44L16.2589 24.5933L16.2237 24.7466L16.1885 24.8999L16.1512 25.0533L16.1139 25.2066L16.0911 25.2977L16.0932 25.2936ZM16.7686 21.2823C16.75 21.5786 17.0317 21.7962 17.3135 21.705C17.473 21.6491 17.5828 21.5102 17.5953 21.3403L17.5994 21.2989L17.6098 21.1414L17.618 20.984L17.6263 20.8265L17.6325 20.669L17.6367 20.5116L17.6408 20.352L17.6429 20.1925V20.0329V19.8734L17.6408 19.7139L17.6388 19.6434C17.6305 19.3161 17.2638 19.1275 16.9924 19.3119C16.8743 19.3927 16.8059 19.5233 16.81 19.6662L16.8121 19.7284L16.8142 19.8796V20.0309V20.1821L16.8121 20.3334L16.808 20.4846L16.8038 20.6359L16.7976 20.7871L16.7893 20.9384L16.781 21.0896L16.7707 21.2409L16.7665 21.2823H16.7686ZM17.2969 17.0307C16.9696 16.981 16.7189 17.3208 16.8618 17.6191C16.9219 17.7435 17.0379 17.8305 17.1747 17.8512L17.2575 17.8636L17.415 17.8864L17.5725 17.9071L17.7299 17.9258L17.8874 17.9424L18.0448 17.9589L18.2023 17.9734L18.3597 17.9859L18.5172 17.9962L18.6747 18.0066L18.8321 18.0149L18.8756 18.017C19.2009 18.0294 19.4122 17.6772 19.2506 17.3954C19.1781 17.2731 19.0497 17.1944 18.9067 17.1882L18.8715 17.1861L18.7223 17.1778L18.5731 17.1695L18.424 17.1592L18.2748 17.1467L18.1256 17.1322L17.9765 17.1177L17.8273 17.1012L17.6781 17.0825L17.531 17.0639L17.3839 17.0431L17.3011 17.0307H17.2969ZM21.3266 17.1198C21.1774 17.1343 21.0469 17.2296 20.9868 17.3664C20.8625 17.6564 21.0945 17.9755 21.4074 17.9444L21.484 17.9361L21.6394 17.9196L21.7948 17.903L21.9502 17.8843L22.1056 17.8636L22.261 17.8429L22.4164 17.8201L22.5717 17.7973L22.7271 17.7725L22.8825 17.7476L23.0752 17.7144C23.4046 17.6564 23.5331 17.2462 23.2927 17.01C23.1974 16.9147 23.0628 16.8732 22.9302 16.8981L22.7478 16.9292L22.5966 16.954L22.4454 16.9768L22.2941 16.9996L22.1429 17.0204L21.9916 17.0411L21.8425 17.0597L21.6933 17.0784L21.5441 17.0949L21.3949 17.1115L21.3183 17.1198H21.3266ZM25.3272 16.3718C25.0103 16.4589 24.915 16.8629 25.1615 17.0825C25.2672 17.1757 25.408 17.2089 25.5448 17.1716L25.6877 17.1322L25.8431 17.0908L25.9985 17.0473L26.1539 17.0038L26.3093 16.9603L26.4647 16.9147L26.6201 16.8691L26.7754 16.8235L26.9308 16.7759L27.1587 16.7054C27.3493 16.6433 27.4695 16.4589 27.4446 16.2599C27.4115 16.003 27.1566 15.8373 26.908 15.916L26.6863 15.9844L26.5351 16.03L26.3839 16.0755L26.2326 16.1211L26.0814 16.1646L25.9301 16.2082L25.7789 16.2517L25.6277 16.2931L25.4764 16.3345L25.3335 16.3739L25.3272 16.3718ZM29.2388 15.1183C28.9612 15.2198 28.8762 15.5679 29.0751 15.7875C29.1912 15.9119 29.3631 15.9533 29.5227 15.8974C30.0448 15.7088 30.5648 15.512 31.0827 15.3131C31.3749 15.1991 31.4411 14.82 31.205 14.6128C31.0869 14.5133 30.9294 14.4843 30.7844 14.5402C30.2706 14.7371 29.7568 14.9318 29.2388 15.1183ZM33.0965 13.6369C32.9598 13.6907 32.8666 13.8088 32.8396 13.9518C32.7858 14.2709 33.0986 14.5237 33.399 14.4076C33.9128 14.2046 34.4266 14.0036 34.9404 13.8047C35.0792 13.7508 35.1745 13.6307 35.1994 13.4856C35.2491 13.1686 34.9404 12.9179 34.6421 13.0319C34.1262 13.2308 33.6103 13.4338 33.0965 13.6369ZM36.9832 12.1575C36.6435 12.2798 36.6082 12.7459 36.9294 12.9158C37.033 12.9697 37.149 12.978 37.2588 12.9386L37.4846 12.8599L37.6317 12.8081L37.9238 12.7066L38.0689 12.6568L38.2139 12.6071L38.3589 12.5595L38.5039 12.5118L38.649 12.4642L38.8147 12.4103C39.0675 12.3295 39.1794 12.0436 39.0509 11.8115C38.9535 11.6395 38.7526 11.5608 38.5661 11.6209L38.3941 11.6748L38.247 11.7224L38.0999 11.7701L37.9528 11.8198L37.8057 11.8695L37.6566 11.9192L37.5074 11.971L37.3582 12.0228C37.2319 12.0663 37.1075 12.1099 36.9832 12.1554V12.1575ZM40.9922 10.9454C40.8244 10.9848 40.7001 11.1215 40.6752 11.2914C40.6358 11.5815 40.8948 11.8177 41.1786 11.7535L41.2284 11.7411L41.3693 11.7079L41.5101 11.6768L41.651 11.6457L41.7919 11.6167L41.9328 11.5877L42.0737 11.5608L42.2146 11.5339L42.3554 11.509L42.4942 11.4841L42.6331 11.4613L42.7719 11.4386C42.9936 11.4033 43.1489 11.2023 43.122 10.9786C43.093 10.7465 42.8796 10.5849 42.6496 10.6201L42.4984 10.645L42.3534 10.6699L42.2083 10.6947L42.0633 10.7217L41.9183 10.7486L41.7733 10.7776L41.6282 10.8066L41.4832 10.8377L41.3382 10.8688L41.1932 10.9019L41.0461 10.9351L40.9963 10.9475L40.9922 10.9454ZM45.1855 10.3984C44.8913 10.4005 44.6924 10.6947 44.8022 10.9682C44.8644 11.1257 45.0198 11.2272 45.1876 11.2272H45.2373H45.372L45.5067 11.2293L45.6413 11.2314L45.776 11.2355L45.9086 11.2417L46.0412 11.2479L46.1738 11.2562L46.3064 11.2666L46.439 11.279L46.5716 11.2914L46.7042 11.3059L46.7891 11.3163C46.9714 11.3391 47.1455 11.2417 47.22 11.0718C47.3319 10.817 47.1683 10.529 46.8927 10.4937L46.7995 10.4834L46.6586 10.4689L46.5177 10.4544L46.3768 10.4419L46.2359 10.4316L46.093 10.4233L45.95 10.415L45.8071 10.4088L45.6641 10.4047L45.5212 10.4005L45.3782 10.3984H45.2353H45.1855ZM49.3975 11.0822C49.2214 11.0179 49.0246 11.0801 48.9169 11.2334C48.7615 11.4593 48.8568 11.7659 49.1157 11.8612L49.1675 11.8799L49.2939 11.9275L49.4203 11.9773L49.5467 12.027L49.6731 12.0788L49.7994 12.1326L49.9258 12.1886L50.0522 12.2466L50.1786 12.3067L50.305 12.3689L50.4293 12.4331L50.5702 12.5077C50.8664 12.6714 51.2248 12.4269 51.1813 12.0891C51.1627 11.9586 51.086 11.8447 50.97 11.7804L50.9452 11.7659L50.8105 11.6955L50.6758 11.6271L50.5412 11.5608L50.4065 11.4966L50.2697 11.4344L50.133 11.3743L49.9963 11.3163L49.8595 11.2604L49.7228 11.2065L49.5861 11.1547L49.4493 11.105L49.3975 11.0863V11.0822ZM98.0353 58.6083C107.257 52.3179 104.354 45.4308 101.22 37.9987C99.1706 33.14 97.0284 28.0638 97.7639 22.656C92.3585 23.3916 87.2805 21.2512 82.4221 19.2C74.9926 16.0652 68.108 13.1645 61.818 22.3763C71.253 22.8197 79.791 26.6963 86.2073 32.7878C86.2177 32.7961 86.226 32.8044 86.2343 32.8147C86.4663 33.0364 86.6963 33.2602 86.9221 33.486L86.92 33.4881C93.4152 39.9836 97.5733 48.8122 98.0312 58.6083H98.0353ZM60.0135 22.107C67.1633 10.9661 74.8062 14.1901 83.0686 17.6772C88.045 19.776 93.2598 21.9764 98.5968 20.8369C98.7086 20.812 98.8288 20.8099 98.951 20.8348C99.3965 20.9301 99.6824 21.3673 99.5871 21.8148C98.4414 27.1563 100.644 32.3755 102.745 37.3543C106.231 45.6235 109.457 53.271 98.2963 60.4233C109.436 67.5736 106.213 75.2169 102.726 83.4798C100.627 88.4566 98.4269 93.6717 99.5664 99.009C99.5912 99.1209 99.5933 99.2411 99.5684 99.3633C99.4731 99.8088 99.036 100.095 98.5885 99.9994C93.2474 98.8536 88.0285 101.056 83.0499 103.157C74.7813 106.644 67.1343 109.87 59.9824 98.7086C52.8326 109.849 45.1897 106.625 36.9273 103.138C31.9508 101.039 26.7361 98.8391 21.3991 99.9787C21.2872 100.004 21.167 100.006 21.0448 99.9807C20.5994 99.8854 20.3135 99.4482 20.4088 99.0007C21.5545 93.6593 19.3521 88.44 17.2513 83.4612C13.7645 75.1921 10.5387 67.5446 21.6995 60.3922C10.5594 53.242 13.7831 45.5986 17.27 37.3357C19.3687 32.3589 21.569 27.1438 20.4295 21.8065C20.4046 21.6946 20.4026 21.5745 20.4274 21.4522C20.5227 21.0068 20.9599 20.7208 21.4074 20.8161C26.7485 21.9619 31.9674 19.7595 36.9459 17.6585C45.2145 14.1714 52.8616 10.9454 60.0135 22.107ZM61.7973 98.4475C68.0873 107.67 74.974 104.767 82.4056 101.632C87.264 99.5829 92.3399 97.4405 97.7473 98.1761C97.0118 92.7704 99.152 87.6921 101.203 82.8334C104.336 75.4055 107.236 68.5225 98.0353 62.2362C97.5733 72.0262 93.4172 80.8464 86.9263 87.3378C80.4311 93.8333 71.5969 97.9938 61.7973 98.4475ZM21.9709 62.201C12.7369 68.4935 15.6415 75.3827 18.7783 82.8168C20.8273 87.6755 22.9695 92.7517 22.234 98.1595C27.6394 97.424 32.7174 99.5643 37.5758 101.616C45.0032 104.748 51.8858 107.649 58.1737 98.4475C48.749 98 40.2194 94.1234 33.8051 88.036C33.7657 88.0049 33.7284 87.9676 33.6932 87.9304C33.4881 87.7335 33.2851 87.5367 33.0862 87.3357L33.0841 87.3378C26.5869 80.8402 22.4288 72.0034 21.9751 62.201H21.9709ZM33.486 35.4502C27.3473 41.9686 23.5849 50.7515 23.5849 60.4129C23.5849 70.0744 27.3473 78.8553 33.486 85.3756V35.4502ZM60.0031 23.9924C51.0529 23.9924 42.8568 27.2205 36.5171 32.5785H83.4912C77.1494 27.2226 68.9554 23.9924 60.0052 23.9924H60.0031ZM96.4214 60.4129C96.4214 50.7287 92.6445 41.9292 86.485 35.4088V85.415C92.6445 78.8926 96.4214 70.0951 96.4214 60.415V60.4129ZM60.0031 96.8335C68.972 96.8335 77.1846 93.5909 83.5306 88.2142H36.4715C42.8175 93.5909 51.0301 96.8335 60.0031 96.8335ZM35.1435 34.2361V86.5567H84.8275V34.2361H35.1435Z" fill="black"/>
</svg>
