<svg width="105" height="103" viewBox="0 0 105 103" fill="none" xmlns="http://www.w3.org/2000/svg">
<path d="M51.3559 102.399H51.349C50.7138 102.399 50.1945 101.884 50.1899 101.249C50.1875 100.938 50.3058 100.646 50.5237 100.426C50.7393 100.208 51.0291 100.085 51.3374 100.083C51.3397 100.08 51.3397 100.08 51.3397 100.08H51.349C51.9842 100.08 52.5032 100.597 52.5081 101.233C52.5127 101.872 51.9958 102.394 51.3559 102.399ZM44.4151 101.97C44.3641 101.97 44.3131 101.965 44.2621 101.96C32.1076 100.354 20.9198 94.3845 12.7619 85.1486C8.73281 80.5861 5.58464 75.4071 3.40317 69.7555C1.14521 63.904 0 57.7285 0 51.3997C0 47.4888 0.445102 43.5942 1.3214 39.8178C2.17219 36.148 3.44027 32.5663 5.08622 29.1724C6.70203 25.8388 8.69108 22.6721 10.9977 19.7604C13.2881 16.8672 15.8985 14.2175 18.7569 11.883C18.9632 11.7138 19.2228 11.621 19.4894 11.621C19.8395 11.621 20.1664 11.7764 20.3866 12.0476C20.5581 12.2562 20.6509 12.5182 20.6486 12.7848C20.6462 13.1325 20.4932 13.4594 20.2243 13.6796C8.84408 22.9758 2.31824 36.7252 2.31824 51.3997C2.31592 75.7342 20.4793 96.4825 44.5658 99.6608C45.201 99.7442 45.6484 100.328 45.565 100.961C45.4885 101.536 44.9947 101.97 44.4151 101.97ZM58.2736 101.874C57.7033 101.874 57.2118 101.448 57.1283 100.882C57.1214 100.825 57.1168 100.764 57.1168 100.706C57.1214 100.138 57.5456 99.6513 58.1066 99.568C58.1092 99.568 58.1115 99.568 58.1136 99.5655C75.1944 97.0687 89.7946 85.5334 96.2208 69.4632C94.1019 68.5451 92.7319 66.461 92.7295 64.1498C92.7295 62.6009 93.3323 61.1453 94.4263 60.0509C95.5207 58.9567 96.9763 58.3542 98.5251 58.3542C98.7428 58.3542 98.9654 58.3681 99.1812 58.3913C99.515 56.0825 99.6843 53.7318 99.6843 51.3997C99.6843 38.3967 94.6187 26.1726 85.4248 16.9762C76.2281 7.78203 64.0042 2.71668 51.0012 2.71668C44.334 2.71668 37.8731 4.04039 31.7993 6.65073C31.6532 6.71332 31.5002 6.74346 31.3426 6.74346C30.8789 6.74346 30.4593 6.46759 30.2762 6.04103C30.1556 5.7582 30.151 5.44292 30.2646 5.15546C30.3805 4.868 30.6007 4.64081 30.8836 4.52027C33.997 3.18264 37.2587 2.15334 40.5784 1.46483C43.9839 0.757764 47.4891 0.398438 50.9989 0.398438H51.0012C54.4624 0.398438 57.9212 0.746174 61.2803 1.43469C64.5537 2.10466 67.776 3.10382 70.8523 4.40667C73.8753 5.68402 76.7893 7.26738 79.5156 9.10806C82.2161 10.9325 84.7569 13.0282 87.0638 15.3372C89.3727 17.6438 91.4684 20.1846 93.2929 22.8853C95.1336 25.6116 96.7171 28.5256 97.9943 31.5486C99.2971 34.6249 100.296 37.8473 100.966 41.1206C101.652 44.4821 102.002 47.9385 102.002 51.3997C102.002 54.272 101.759 57.1651 101.277 60.0003C101.219 60.3365 101.008 60.6379 100.713 60.8094C100.419 60.9784 100.051 61.0111 99.7306 60.8929C99.3365 60.7466 98.9308 60.6726 98.5251 60.6726C96.6103 60.675 95.0501 62.2351 95.0478 64.15C95.0455 65.8493 96.2625 67.2912 97.9433 67.574C98.2792 67.6297 98.5831 67.8406 98.7546 68.135C98.9236 68.4318 98.9561 68.7981 98.8379 69.1203C95.6874 77.6166 90.2975 85.1532 83.2477 90.9143C76.1099 96.7467 67.5324 100.532 58.4426 101.861C58.3869 101.87 58.329 101.874 58.2736 101.874ZM25.1645 9.92872C24.7565 9.92872 24.3856 9.72007 24.1723 9.37002C23.8408 8.82292 24.017 8.1089 24.5617 7.77739C24.7426 7.66843 24.9512 7.61048 25.1622 7.61048C25.5725 7.61048 25.9434 7.8168 26.1544 8.16685C26.3143 8.43113 26.363 8.74178 26.2888 9.04315C26.217 9.34452 26.0292 9.59952 25.7649 9.75948C25.7649 9.75948 25.7649 9.75948 25.7626 9.75948C25.5818 9.87076 25.3754 9.92872 25.1645 9.92872Z" fill="black"/>
<path d="M63.7527 93.1264C61.6106 93.1241 59.6538 91.951 58.6433 90.0663C56.137 90.5578 53.5663 90.8082 51.0023 90.8082C45.682 90.8082 40.5216 89.7649 35.6626 87.711C33.3281 86.7234 31.0748 85.4994 28.9675 84.0783C26.8811 82.6665 24.9198 81.0484 23.1348 79.2656C21.3521 77.4806 19.7339 75.5194 18.3245 73.433C16.9011 71.3257 15.677 69.0723 14.6895 66.7379C12.6355 61.8789 11.5923 56.7185 11.5923 51.3981C11.5923 48.5026 11.9076 45.6118 12.5312 42.809C13.1386 40.0828 14.0403 37.4122 15.2134 34.876C16.3655 32.3839 17.7866 30.0031 19.4349 27.8007C21.0716 25.6146 22.9424 23.5908 24.9963 21.7872C25.2073 21.6018 25.4785 21.4998 25.759 21.4998C26.0929 21.4998 26.4105 21.6435 26.6307 21.8939C27.0526 22.3737 27.0063 23.1063 26.5264 23.5282C18.5099 30.578 13.9105 40.7342 13.9105 51.3981C13.9105 61.3037 17.7704 70.6186 24.7738 77.6266C31.7818 84.6301 41.0965 88.4899 51.0023 88.4899C53.7193 88.4899 56.4361 88.1932 59.0835 87.6043C59.1669 87.5858 59.2506 87.5765 59.3364 87.5765C59.8418 87.5765 60.2846 87.9011 60.4399 88.3856C60.9012 89.8345 62.2317 90.8082 63.7503 90.8082H63.7527C65.6675 90.8033 67.2251 89.2433 67.23 87.3308C67.23 86.8996 67.1486 86.473 66.9866 86.0627C66.873 85.7753 66.88 85.4597 67.0026 85.1748C67.1255 84.8918 67.3529 84.6718 67.6427 84.5605C67.7769 84.5072 67.9206 84.4794 68.0643 84.4794C68.5442 84.4794 68.9685 84.7666 69.1446 85.2142C69.4136 85.8956 69.548 86.6098 69.548 87.3308C69.548 88.8794 68.945 90.3352 67.8511 91.4294C66.7571 92.5237 65.3012 93.1264 63.7527 93.1264ZM73.575 83.4385C73.2064 83.4385 72.8561 83.2597 72.6385 82.9632C72.2606 82.4484 72.374 81.7207 72.8888 81.3428C82.4096 74.3718 88.0942 63.1771 88.0942 51.3981C88.0965 34.0113 75.7727 18.7573 58.7916 15.1293C58.1842 14.9971 57.7811 14.3944 57.8945 13.7847C57.9362 13.5575 57.9571 13.3512 57.9571 13.1472C57.9522 11.2323 56.3946 9.67212 54.4797 9.6698C52.5764 9.67212 51.0163 11.2253 51.0023 13.1286C51.0116 13.4393 50.9027 13.7337 50.6894 13.9585C50.4761 14.1857 50.1886 14.3156 49.878 14.3248C45.8072 14.4454 41.8221 15.2243 38.0318 16.6384C38.0318 16.6384 38.0318 16.6384 38.0295 16.6407C37.8997 16.6894 37.7629 16.7126 37.6238 16.7126C37.1439 16.7126 36.7058 16.4089 36.5389 15.9592C36.4879 15.8247 36.4647 15.6879 36.4647 15.5465C36.467 15.069 36.7707 14.6355 37.2181 14.4662C40.925 13.0846 44.8173 12.2709 48.7884 12.0506C49.31 9.32902 51.7024 7.35156 54.4797 7.35156C56.019 7.35156 57.4679 7.94967 58.5598 9.03229C59.6517 10.1149 60.2591 11.5545 60.2753 13.0869C64.5362 14.1162 68.5746 15.8433 72.2745 18.2195C75.9118 20.5562 79.1249 23.4564 81.8256 26.8387C84.5496 30.2558 86.6731 34.0646 88.1336 38.161C89.6451 42.401 90.4124 46.8543 90.4124 51.3981C90.4124 54.6017 90.0252 57.7892 89.2649 60.8727C88.5254 63.8679 87.4288 66.7773 86.0077 69.5174C84.6098 72.2112 82.8967 74.7495 80.9123 77.0564C78.9394 79.356 76.7 81.4265 74.2589 83.2138C74.0572 83.3596 73.8208 83.4385 73.575 83.4385ZM31.3715 19.724C30.9658 19.724 30.5833 19.5084 30.3747 19.1607C30.0455 18.6136 30.2263 17.8995 30.7734 17.5704C30.9542 17.4637 31.1582 17.4058 31.3692 17.4058C31.7749 17.4058 32.1551 17.6214 32.3637 17.9691C32.5237 18.2334 32.5677 18.5463 32.4935 18.8454C32.4193 19.1468 32.2316 19.3994 31.965 19.5594C31.7841 19.666 31.5801 19.724 31.3715 19.724Z" fill="black"/>
<path d="M51.0023 90.8099C49.9939 90.8099 48.9785 90.7705 47.984 90.6963C47.3836 90.6499 46.913 90.1445 46.913 89.542C46.913 89.5117 46.913 89.4815 46.9153 89.4514C46.964 88.8232 47.525 88.3363 48.1602 88.385C51.4335 88.6328 54.7648 88.4476 57.9779 87.8333C57.964 87.6687 57.9571 87.5015 57.9571 87.3325C57.9571 85.7837 58.5598 84.3281 59.6538 83.2337C60.7482 82.1394 62.2038 81.5369 63.7526 81.5369C65.6768 81.5369 67.4688 82.4895 68.5489 84.0847C80.6062 77.5959 88.0941 65.0726 88.0941 51.3998C88.0965 35.353 77.8612 21.1955 62.6306 16.1696C62.0232 15.9702 61.6915 15.3118 61.8911 14.7068C62.0487 14.2292 62.4915 13.9093 62.9923 13.9093C63.1151 13.9093 63.2382 13.9301 63.3562 13.9672C67.2416 15.2492 70.8951 17.127 74.2125 19.5496C77.4905 21.942 80.3719 24.8143 82.7759 28.083C85.21 31.3934 87.0994 35.0377 88.393 38.9184C89.7327 42.9313 90.4122 47.1296 90.4122 51.3998C90.4122 58.862 88.3141 66.1276 84.35 72.4077C80.4903 78.5209 75.0376 83.4539 68.5836 86.6765C68.2938 86.8202 67.9507 86.8387 67.6494 86.7228C67.348 86.6069 67.1046 86.3658 66.9866 86.0644C66.458 84.7222 65.19 83.8552 63.755 83.8552C61.8378 83.8598 60.2799 85.4177 60.2753 87.3325C60.2753 87.6918 60.3309 88.044 60.4399 88.3873C60.5373 88.6956 60.5002 89.0341 60.3379 89.3146C60.1756 89.5998 59.9069 89.7968 59.587 89.8687C56.7771 90.4946 53.8885 90.8099 51.0023 90.8099ZM41.2263 89.5488C41.1266 89.5488 41.027 89.5372 40.9296 89.5117C40.3129 89.3471 39.942 88.7121 40.1043 88.0955C40.2388 87.5854 40.7001 87.2308 41.224 87.2308C41.3237 87.2308 41.4234 87.2449 41.5207 87.2702C41.8198 87.349 42.0702 87.5391 42.2278 87.8059C42.3831 88.0748 42.4249 88.3855 42.346 88.6868C42.2116 89.1941 41.7502 89.5488 41.2263 89.5488ZM34.7005 87.1726C34.5289 87.1726 34.362 87.1355 34.2067 87.0615C30.8893 85.4967 27.8037 83.4729 25.0358 81.0457C22.2794 78.6301 19.8754 75.8482 17.8886 72.7765C13.7691 66.4081 11.5923 59.0173 11.5923 51.3998C11.5923 46.1768 12.5984 41.1022 14.5805 36.3197C15.5333 34.02 16.7156 31.7968 18.0903 29.7127C19.4534 27.6495 21.0206 25.7045 22.7453 23.9287C24.4701 22.1553 26.3711 20.5348 28.3949 19.116C30.4349 17.6857 32.621 16.4431 34.8883 15.4254C39.5966 13.3135 44.6179 12.1637 49.8108 12.0083C50.1237 11.9991 50.4228 12.115 50.65 12.3352C50.8772 12.5531 51.0023 12.8475 51.0023 13.1628C51.0116 15.073 52.5695 16.6263 54.4797 16.6263H54.4843C56.1558 16.6263 57.5908 15.4324 57.8945 13.7864C57.8945 13.7841 57.8945 13.7841 57.897 13.7818C57.9988 13.2347 58.4766 12.8383 59.035 12.8383C59.1048 12.8383 59.1764 12.8429 59.246 12.8568C59.8742 12.9727 60.2915 13.5778 60.1756 14.2083C59.6679 16.9508 57.2732 18.9422 54.4797 18.9445C53.1444 18.9445 51.8415 18.4785 50.8122 17.6347C49.7969 16.8048 49.0898 15.648 48.8139 14.3729C29.241 15.5112 13.9082 31.7736 13.9105 51.3998C13.9105 65.6871 22.2655 78.864 35.1966 84.9656C35.7738 85.2368 36.0219 85.93 35.7506 86.507C35.5582 86.9127 35.1479 87.1726 34.7005 87.1726Z" fill="black"/>
<path d="M51.0027 79.2158C43.9576 79.2158 37.237 76.5751 32.0789 71.7859C26.9487 67.0217 23.8214 60.57 23.2719 53.6153C20.5341 53.1055 18.5474 50.7108 18.5474 47.9196C18.5474 46.371 19.1501 44.9152 20.2443 43.821C21.3385 42.7268 22.7944 42.124 24.343 42.124H24.3476C24.4844 42.124 24.6235 42.1287 24.7626 42.1403C25.7223 39.421 27.097 36.8732 28.8473 34.5689C30.5837 32.2877 32.6515 30.2941 34.9929 28.6435C35.19 28.5044 35.4195 28.4325 35.6606 28.4325C36.0385 28.4325 36.3932 28.6157 36.6088 28.924C36.9774 29.4456 36.8522 30.1712 36.3283 30.5375C31.7497 33.7668 28.3141 38.4728 26.6566 43.7932C26.5036 44.28 26.0585 44.6069 25.5508 44.6069C25.4488 44.6069 25.3468 44.593 25.2471 44.5651C24.9364 44.4817 24.642 44.4423 24.343 44.4423C22.4281 44.4446 20.8679 46.0048 20.8656 47.9196C20.8679 49.8206 22.4165 51.3808 24.3175 51.397C24.3314 51.397 24.3499 51.3947 24.3685 51.3947C24.9921 51.3947 25.5021 51.8838 25.5276 52.5053C26.1118 66.1829 37.2996 76.8978 51.0004 76.8978C57.8137 76.8978 64.2167 74.2435 69.0342 69.4285C73.8513 64.6109 76.5033 58.208 76.5033 51.397C76.5033 51.3947 76.5033 51.3947 76.5033 51.3947C76.5056 50.7572 77.0249 50.2379 77.6624 50.2379C78.3023 50.2379 78.8216 50.7572 78.8216 51.397C78.8216 55.1525 78.0867 58.7968 76.6352 62.2255C75.2327 65.5382 73.2277 68.5125 70.6727 71.0672C68.118 73.6222 65.1437 75.6272 61.831 77.0298C58.4025 78.481 54.7582 79.2158 51.0027 79.2158ZM41.7993 27.5284C41.3148 27.5284 40.879 27.2224 40.712 26.768C40.4895 26.1699 40.8001 25.5023 41.3982 25.2797C41.5281 25.2333 41.6625 25.2102 41.7993 25.2102C42.2815 25.2102 42.7196 25.5139 42.8866 25.9682C43.1068 26.5687 42.7985 27.2363 42.198 27.4565C42.0705 27.5029 41.9361 27.5284 41.7993 27.5284ZM48.5616 26.0076C47.9589 26.0053 47.4628 25.5533 47.4094 24.9528C47.4071 24.9181 47.4048 24.8833 47.4048 24.8485C47.4025 24.255 47.8661 23.7474 48.4596 23.694C49.2988 23.6175 50.1542 23.5781 51.0027 23.5781C51.6425 23.5781 52.1618 24.0974 52.1618 24.7372C52.1618 25.3771 51.6425 25.8964 51.0027 25.8964C50.2261 25.8964 49.4402 25.9311 48.6682 26.0007C48.6335 26.0053 48.5964 26.0076 48.5616 26.0076Z" fill="black"/>
<path d="M51.0007 79.2158C47.3448 79.2158 43.7886 78.5155 40.4364 77.1387C37.1979 75.808 34.2699 73.8978 31.7338 71.4613C29.1999 69.0295 27.1761 66.185 25.7156 63.009C24.2065 59.7287 23.3649 56.2282 23.2096 52.6048C23.1957 52.2916 23.3116 51.9812 23.5272 51.754C23.7451 51.5291 24.0488 51.397 24.3618 51.3947C26.2674 51.3854 27.8183 49.8252 27.8183 47.9196C27.8206 46.3548 26.7612 44.9755 25.245 44.5675C24.9437 44.484 24.6817 44.28 24.531 44.0064C24.3803 43.7306 24.3456 43.4014 24.4406 43.1023C25.3123 40.3065 26.6197 37.673 28.326 35.2783C30.0067 32.9137 32.0398 30.8342 34.365 29.0979C36.718 27.3406 39.3144 25.9752 42.0847 25.0386C44.9477 24.0696 47.9475 23.5781 51.0007 23.5781C51.6405 23.5781 52.1598 24.0974 52.1598 24.7372C52.1598 25.3771 51.6405 25.8964 51.0007 25.8964H50.996C40.2672 25.8964 30.6233 32.6772 26.9953 42.7708C28.931 43.77 30.1342 45.7405 30.1365 47.9196C30.1365 49.2503 29.6752 50.5485 28.836 51.5778C28.013 52.5886 26.8608 53.2979 25.5928 53.5784C26.7009 66.6554 37.8586 76.8976 50.9983 76.8976C60.1183 76.8976 68.603 71.976 73.1445 64.0546C73.3485 63.6952 73.7356 63.4704 74.1506 63.4704C74.3523 63.4704 74.5496 63.5235 74.7255 63.6257C74.9944 63.7787 75.1868 64.0265 75.268 64.3258C75.3493 64.6249 75.3097 64.938 75.1544 65.2067C72.7622 69.3865 69.3057 72.8917 65.1558 75.349C63.0578 76.5916 60.8068 77.5514 58.4608 78.203C56.0428 78.8751 53.5345 79.2158 51.0007 79.2158ZM76.7795 59.374C76.6821 59.374 76.5822 59.3622 76.4848 59.337C76.1858 59.2581 75.9331 59.0657 75.7778 58.7991C75.6224 58.5328 75.5807 58.2196 75.6595 57.9205C75.794 57.4105 76.253 57.056 76.7792 57.056C76.8789 57.056 76.9784 57.0699 77.0757 57.0954C77.6924 57.2577 78.0635 57.8927 77.9013 58.5117C77.767 59.0194 77.3057 59.374 76.7795 59.374Z" fill="black"/>
<path d="M51.0045 67.6272C50.3647 67.6272 49.8454 67.1079 49.8454 66.4681C49.8454 65.8283 50.3647 65.309 51.0045 65.309C54.7183 65.309 58.2119 63.8624 60.8408 61.2358C63.4674 58.6069 64.914 55.1134 64.914 51.3995C64.914 47.6857 63.4674 44.1921 60.8408 41.5633C58.2119 38.9367 54.7183 37.4901 51.0045 37.4901C47.2907 37.4901 43.7971 38.9367 41.1682 41.5633C38.544 44.1921 37.0951 47.6834 37.0951 51.3972V51.3995C37.0951 52.0394 36.5758 52.5587 35.936 52.5587C35.2961 52.5587 34.7769 52.0394 34.7769 51.3995C34.7769 49.2088 35.2057 47.083 36.0519 45.0823C36.8702 43.1513 38.0386 41.4149 39.5292 39.9243C41.0199 38.436 42.7562 37.2652 44.6873 36.4469C46.688 35.6007 48.8138 35.1719 51.0045 35.1719C53.1953 35.1719 55.3211 35.6007 57.3217 36.4469C59.2528 37.2652 60.9889 38.4336 62.4798 39.9243C63.9704 41.4149 65.1388 43.1513 65.9572 45.0823C66.8031 47.083 67.2322 49.2088 67.2322 51.3995C67.2322 53.5903 66.8031 55.7161 65.9572 57.7167C65.1388 59.6478 63.9704 61.384 62.4798 62.8748C60.9889 64.3655 59.2528 65.5338 57.3217 66.3522C55.3211 67.1981 53.1953 67.6272 51.0045 67.6272Z" fill="black"/>
<path d="M51.0045 67.6272C50.3647 67.6272 49.8454 67.1079 49.8454 66.4681C49.8454 65.8283 50.3647 65.309 51.0045 65.309C54.7183 65.309 58.2119 63.8624 60.8408 61.2358C63.4674 58.6069 64.914 55.1134 64.914 51.3995C64.914 47.6857 63.4674 44.1921 60.8408 41.5633C58.2119 38.9367 54.7183 37.4901 51.0045 37.4901C47.2907 37.4901 43.7971 38.9367 41.1682 41.5633C38.5417 44.1945 37.0951 47.6857 37.0951 51.3995C37.0951 52.0394 36.5758 52.5587 35.936 52.5587C35.2961 52.5587 34.7769 52.0394 34.7769 51.3995C34.7769 49.2088 35.2057 47.083 36.0519 45.0823C36.8702 43.1513 38.0386 41.4149 39.5292 39.9243C41.0199 38.436 42.7562 37.2652 44.6873 36.4469C46.688 35.6007 48.8138 35.1719 51.0045 35.1719C53.1953 35.1719 55.3211 35.6007 57.3217 36.4469C59.2528 37.2652 60.9889 38.4336 62.4798 39.9243C63.9704 41.4149 65.1388 43.1513 65.9572 45.0823C66.8031 47.083 67.2322 49.2088 67.2322 51.3995C67.2322 53.5903 66.8031 55.7161 65.9572 57.7167C65.1388 59.6478 63.9704 61.384 62.4798 62.8748C60.9889 64.3655 59.2528 65.5338 57.3217 66.3522C55.3211 67.1981 53.1953 67.6272 51.0045 67.6272Z" fill="black"/>
<path d="M54.4792 18.9428C52.9422 18.9428 51.4933 18.347 50.4014 17.2644C49.3095 16.1817 48.6998 14.7421 48.6859 13.2051C48.6836 13.1912 48.6836 13.1703 48.6836 13.1472C48.6836 11.5986 49.2863 10.1427 50.3805 9.04851C51.4748 7.9543 52.9304 7.35156 54.4792 7.35156C56.0278 7.35156 57.4836 7.9543 58.5778 9.04851C59.672 10.1427 60.2748 11.5986 60.2748 13.1472C60.2748 13.4926 60.24 13.8496 60.1749 14.2066C59.6674 16.9491 57.2727 18.9404 54.4792 18.9428ZM54.4792 9.6698C52.5806 9.67444 51.0204 11.2207 51.0018 13.1193V13.1611C51.0088 15.0713 52.569 16.6245 54.4792 16.6245H54.4838C56.1553 16.6245 57.5903 15.4306 57.894 13.7847C57.9357 13.5575 57.9565 13.3512 57.9565 13.1472C57.9517 11.2346 56.3941 9.67444 54.4792 9.6698Z" fill="black"/>
<path d="M63.7492 93.1224C62.4927 93.1224 61.2988 92.726 60.295 91.9819C59.3121 91.2493 58.5958 90.2478 58.2272 89.0841C58.0463 88.5161 57.9536 87.925 57.9536 87.3268C57.9536 85.778 58.5564 84.3224 59.6503 83.228C60.7448 82.1338 62.2004 81.5312 63.7492 81.5312C64.9361 81.5312 66.079 81.8883 67.0504 82.5652C67.9985 83.2236 68.7218 84.1393 69.1414 85.2103C69.4103 85.8916 69.5448 86.6059 69.5448 87.3268C69.5448 88.8754 68.9418 90.3313 67.8479 91.4255C66.7539 92.5197 65.2978 93.1224 63.7492 93.1224ZM63.7492 83.8495C61.8343 83.8518 60.2765 85.412 60.2719 87.3268C60.2719 87.6862 60.3275 88.0409 60.4364 88.3816C60.8978 89.8305 62.2282 90.8042 63.7469 90.8042H63.7492C65.6641 90.7993 67.2217 89.2394 67.2266 87.3268C67.2266 86.8957 67.1452 86.4691 66.9832 86.0588C66.4546 84.7165 65.1865 83.8495 63.7515 83.8495H63.7492Z" fill="black"/>
<path d="M24.343 53.7162C22.7944 53.7162 21.3385 53.1132 20.2443 52.0192C19.1501 50.9253 18.5474 49.4692 18.5474 47.9206C18.5474 46.372 19.1501 44.9162 20.2443 43.822C21.3385 42.7277 22.7944 42.125 24.343 42.125C24.8414 42.125 25.3491 42.1945 25.8498 42.329C28.3721 43.0059 30.1362 45.3056 30.1386 47.9206C30.1386 49.4576 29.5428 50.9065 28.4601 51.9984C27.3799 53.0879 25.9402 53.6976 24.4056 53.7139C24.3893 53.7162 24.3685 53.7162 24.343 53.7162ZM24.343 44.4432C22.4281 44.4456 20.8679 46.0057 20.8656 47.9206C20.8679 49.8169 22.4142 51.3771 24.3128 51.398C24.3244 51.398 24.343 51.3956 24.3615 51.3956C24.3615 51.3956 24.3615 51.3956 24.3638 51.3956C26.2694 51.3864 27.8203 49.8262 27.8203 47.9206C27.8226 46.3558 26.7632 44.9764 25.2471 44.5684C24.9387 44.4826 24.642 44.4432 24.343 44.4432Z" fill="black"/>
<path d="M98.5241 69.9428C98.2158 69.9428 97.8982 69.9149 97.5574 69.857C96.2195 69.6321 94.9981 68.939 94.1146 67.905C93.2223 66.8618 92.7285 65.5265 92.7285 64.1472C92.7285 62.5983 93.3313 61.1427 94.4252 60.0483C95.5197 58.9541 96.9753 58.3516 98.5241 58.3516C99.2054 58.3516 99.8824 58.4744 100.536 58.7153C101.633 59.1235 102.574 59.8443 103.253 60.8017C103.951 61.7826 104.32 62.9394 104.32 64.1472C104.32 65.6957 103.717 67.1516 102.623 68.2458C101.529 69.34 100.073 69.9428 98.5241 69.9428ZM98.5241 60.6698C96.6092 60.6721 95.0514 62.2323 95.0468 64.1472C95.0444 65.8487 96.2615 67.2884 97.9422 67.5712C98.1555 67.606 98.3454 67.6245 98.5241 67.6245C100.437 67.6196 101.997 66.062 102.001 64.1472C102.004 62.7052 101.09 61.3954 99.7296 60.89C99.3332 60.7438 98.9275 60.6698 98.5241 60.6698Z" fill="black"/>
<path d="M51.0037 56.0386C48.449 56.0386 46.3672 53.9568 46.3672 51.4021C46.3672 48.8474 48.449 46.7656 51.0037 46.7656C53.5584 46.7656 55.6401 48.8474 55.6401 51.4021C55.6401 53.9568 53.5584 56.0386 51.0037 56.0386ZM51.0037 49.0839C49.7286 49.0862 48.6877 50.1271 48.6854 51.4021C48.6877 52.6771 49.7286 53.718 51.0037 53.7203C52.2787 53.718 53.3196 52.6771 53.3219 51.4021C53.3196 50.1271 52.2787 49.0862 51.0037 49.0839Z" fill="black"/>
</svg>
