<svg width="194" height="195" viewBox="0 0 194 195" fill="none" xmlns="http://www.w3.org/2000/svg">
<rect y="0.898438" width="194" height="194" rx="97" fill="#FFDD55"/>
<path d="M143.902 122.507H142.117C142.909 121.853 143.644 121.116 144.312 120.3C148.144 115.609 150.159 109.66 149.99 103.546L149.591 89.1349L135.654 91.2391C131.65 91.8436 127.911 93.4531 124.694 95.9022L120.496 85.1894L108.174 91.922C107.177 92.4654 106.235 93.1047 105.322 93.7875L95.9994 83.3047L86.6784 93.7893C85.7657 93.1082 84.8233 92.4689 83.8269 91.9237L71.5046 85.1912L67.3066 95.904C64.091 93.4548 60.3528 91.8453 56.3482 91.2409L42.4111 89.1366L42.0122 103.548C41.8415 109.662 43.8586 115.61 47.6908 120.301C48.358 121.118 49.0931 121.855 49.8857 122.508H48.0967L42 130.636V146.893H149.999V130.636L143.902 122.507ZM121.942 121.778C122.107 121.933 122.255 122.113 122.426 122.259C122.527 122.346 122.635 122.421 122.74 122.507H121.106C121.391 122.271 121.674 122.033 121.942 121.778ZM109.842 94.9808L118.695 90.1452L122.407 99.6212C123.706 102.933 124.151 106.552 123.696 110.088L127.15 110.534C127.636 106.763 127.201 102.924 125.967 99.3373C128.899 96.862 132.399 95.2542 136.172 94.6846L146.215 93.1674L146.506 103.64C146.653 108.918 144.914 114.053 141.612 118.094C139.54 120.63 136.633 122.181 133.428 122.461C130.249 122.73 127.148 121.73 124.698 119.618C124.516 119.462 124.356 119.274 124.182 119.106C124.873 118.065 125.459 116.943 125.894 115.732C126.067 115.253 126.223 114.769 126.365 114.283L123.02 113.309C122.898 113.727 122.762 114.144 122.616 114.553C121.517 117.608 119.308 120.037 116.396 121.395C113.527 122.735 110.309 122.871 107.338 121.775C107.183 121.717 107.041 121.63 106.888 121.566C109.835 118.714 111.677 114.727 111.677 110.313C111.677 105.371 110.177 100.595 107.444 96.545C108.212 95.9737 109.005 95.4389 109.842 94.9808ZM95.9994 88.5479L102.847 96.2489C106.294 100.128 108.193 105.124 108.193 110.313C108.193 117.035 102.723 122.507 95.9994 122.507C89.2756 122.507 83.806 117.035 83.806 110.313C83.806 105.124 85.7047 100.128 89.152 96.2506L95.9994 88.5479ZM73.3057 90.1452L82.1582 94.9808C82.996 95.4389 83.7886 95.9737 84.5568 96.5433C81.822 100.595 80.3222 105.371 80.3222 110.313C80.3222 114.727 82.1634 118.714 85.109 121.566C84.9557 121.629 84.8129 121.717 84.6578 121.775C81.6861 122.871 78.4705 122.733 75.6016 121.395C72.6891 120.038 70.4804 117.608 69.3812 114.553C67.6393 109.714 67.7142 104.41 69.592 99.6212L73.3057 90.1452ZM45.4925 103.642L45.7834 93.1692L55.8273 94.6864C59.5951 95.256 63.0894 96.8585 66.0158 99.3268C64.1851 104.643 64.1938 110.425 66.1029 115.736C66.5367 116.939 67.1185 118.056 67.8048 119.094C67.6288 119.265 67.4843 119.462 67.2979 119.622C64.8505 121.733 61.7586 122.735 58.5691 122.465C55.364 122.184 52.4585 120.634 50.3856 118.098C47.0829 114.053 45.3462 108.92 45.4925 103.642ZM69.5728 122.259C69.7453 122.111 69.902 121.946 70.0693 121.789C70.334 122.038 70.6127 122.275 70.8949 122.505H69.261C69.3638 122.423 69.4718 122.348 69.5728 122.259ZM45.4838 143.41V132.958H136.064V129.474H47.2258L49.8386 125.99H59.5725C59.5847 125.99 59.5986 125.992 59.6108 125.992C59.623 125.992 59.6369 125.99 59.6491 125.99H80.5138C80.5347 125.99 80.5556 125.994 80.5765 125.994C80.6026 125.994 80.627 125.99 80.6532 125.99H111.346C111.372 125.99 111.396 125.994 111.422 125.994C111.443 125.994 111.464 125.99 111.485 125.99H132.35C132.362 125.99 132.376 125.992 132.388 125.992C132.4 125.992 132.412 125.99 132.426 125.99H142.16L144.773 129.474H139.547V132.958H146.515V143.41H45.4838Z" fill="black"/>
<path d="M97.7412 136.445H94.2573V139.929H97.7412V136.445Z" fill="black"/>
<path d="M116.902 136.445H113.418V139.929H116.902V136.445Z" fill="black"/>
<path d="M136.063 136.445H132.58V139.929H136.063V136.445Z" fill="black"/>
<path d="M59.4189 136.445H55.9351V139.929H59.4189V136.445Z" fill="black"/>
<path d="M78.58 136.445H75.0962V139.929H78.58V136.445Z" fill="black"/>
<path d="M82.0645 85.9326C88.7883 85.9326 94.2579 81.2451 94.2579 75.4811C94.2579 73.4657 93.5385 71.5183 92.2843 69.846L92.5787 69.7467C95.4947 68.7748 98.0536 66.991 99.9749 64.5907C102.408 61.5475 106.039 59.8039 109.935 59.8039C114.738 59.8039 118.645 64.4914 118.645 70.2554C118.645 76.0194 114.738 80.7069 109.935 80.7069C105.133 80.7069 101.226 76.0194 101.226 70.2554H97.7418C97.7418 77.939 103.211 84.1907 109.935 84.1907C116.659 84.1907 122.129 77.939 122.129 70.2554C122.129 62.5718 116.659 56.32 109.935 56.32C104.976 56.32 100.355 58.541 97.254 62.415C96.3465 63.549 95.2404 64.4809 94.0158 65.2282C94.1604 64.5976 94.2579 63.9531 94.2579 63.2877C94.2579 58.4852 90.3508 54.5781 85.5484 54.5781C80.7459 54.5781 76.8388 58.4852 76.8388 63.2877H80.3226C80.3226 60.4066 82.6672 58.062 85.5484 58.062C88.4295 58.062 90.7741 60.4066 90.7741 63.2877C90.7741 65.0784 89.8579 66.728 88.3232 67.6965L86.2434 69.0099L88.1717 70.5358C89.8491 71.8632 90.7741 73.619 90.7741 75.4811C90.7741 79.3238 86.867 82.4488 82.0645 82.4488C77.262 82.4488 73.3549 79.3238 73.3549 75.4811H69.8711C69.8711 81.2451 75.3407 85.9326 82.0645 85.9326Z" fill="black"/>
<path d="M96.0003 54.5776C101.034 54.5776 106.452 52.942 106.452 49.3519L102.984 49.2578C102.75 49.7804 100.327 51.0938 96.0003 51.0938C91.6734 51.0938 89.2504 49.7804 89.0327 49.3519H85.5488C85.5488 52.942 90.9662 54.5776 96.0003 54.5776Z" fill="black"/>
<path d="M95.9992 49.3499C98.8803 49.3499 101.225 47.0053 101.225 44.1242C101.225 41.2431 98.8803 38.8984 95.9992 38.8984C93.1181 38.8984 90.7734 41.2431 90.7734 44.1242C90.7734 47.0053 93.1181 49.3499 95.9992 49.3499ZM95.9992 42.3823C96.959 42.3823 97.7411 43.1644 97.7411 44.1242C97.7411 45.084 96.959 45.8661 95.9992 45.8661C95.0394 45.8661 94.2573 45.084 94.2573 44.1242C94.2573 43.1644 95.0394 42.3823 95.9992 42.3823Z" fill="black"/>
</svg>
