<svg width="194" height="195" viewBox="0 0 194 195" fill="none" xmlns="http://www.w3.org/2000/svg">
<rect y="0.898438" width="194" height="194" rx="97" fill="#FFDD55"/>
<path d="M82.4549 134.564C82.8274 134.995 82.7729 135.638 82.3419 136.006C81.9108 136.378 81.2705 136.328 80.898 135.902C78.3995 132.976 76.4073 129.616 75.0472 125.947C73.7372 122.403 73.0258 118.579 73.0258 114.596C73.0258 105.536 76.7003 97.332 82.6474 91.4017C88.5903 85.463 96.8016 81.7937 105.875 81.7937C112.5 81.7937 118.673 83.7537 123.83 87.1305C129.153 90.6118 133.401 95.5934 135.979 101.477C136.205 101.996 135.971 102.593 135.452 102.819C134.933 103.045 134.334 102.811 134.108 102.292C131.694 96.7801 127.701 92.1078 122.712 88.8484C117.878 85.6848 112.09 83.8501 105.875 83.8501C97.3668 83.8501 89.666 87.2853 84.0959 92.8521C78.5213 98.4187 75.0727 106.109 75.0727 114.6C75.0727 118.345 75.7423 121.931 76.9643 125.241C78.2366 128.684 80.1116 131.835 82.4469 134.569L82.4549 134.564ZM109.169 75.7127C109.558 75.6416 109.952 75.5999 110.345 75.5999C110.738 75.5999 111.132 75.6416 111.521 75.7127C111.442 75.324 111.408 74.9312 111.408 74.5467C111.408 74.1539 111.442 73.7611 111.521 73.3723C111.132 73.4518 110.738 73.4852 110.345 73.4852C109.952 73.4852 109.558 73.4518 109.169 73.3723C109.248 73.761 109.282 74.1539 109.282 74.5467H109.29C109.29 74.9354 109.248 75.3283 109.169 75.7127ZM110.345 77.6518C109.487 77.6518 108.621 77.9277 107.909 78.4668C107.7 78.6339 107.436 78.705 107.189 78.6841C106.93 78.6716 106.691 78.5629 106.499 78.3748C106.352 78.2286 106.252 78.0447 106.21 77.8483C106.202 77.7981 106.198 77.748 106.189 77.6936C106.177 77.4387 106.244 77.188 106.407 76.9748C106.955 76.256 107.231 75.3992 107.231 74.5426C107.231 73.6858 106.955 72.8207 106.407 72.102C106.244 71.893 106.172 71.6381 106.189 71.3831C106.21 71.1282 106.311 70.89 106.499 70.7019C106.687 70.5139 106.934 70.4052 107.189 70.3927H107.198C107.445 70.3801 107.696 70.447 107.909 70.61C108.621 71.1575 109.487 71.4249 110.345 71.4249C111.203 71.4249 112.069 71.1575 112.781 70.61C112.99 70.447 113.254 70.3718 113.501 70.3927C113.756 70.4052 113.999 70.5139 114.191 70.7019C114.379 70.8858 114.48 71.1324 114.501 71.3831C114.513 71.5921 114.467 71.8052 114.354 71.9933C114.333 72.0267 114.312 72.0644 114.283 72.0978C113.735 72.8166 113.459 73.6734 113.459 74.5384C113.459 75.3951 113.735 76.2519 114.283 76.9706C114.446 77.1796 114.518 77.4345 114.501 77.6894C114.48 77.9444 114.379 78.1868 114.191 78.3707C114.003 78.5587 113.756 78.6674 113.501 78.6799C113.295 78.6925 113.09 78.6507 112.91 78.5462C112.869 78.5253 112.827 78.496 112.785 78.4626C112.073 77.9193 111.207 77.6477 110.349 77.6477L110.345 77.6518ZM61.1242 109.597C61.5134 109.526 61.9068 109.484 62.3003 109.484C62.6937 109.484 63.0871 109.526 63.4763 109.597C63.3968 109.208 63.3633 108.824 63.3633 108.431C63.3633 108.038 63.3968 107.645 63.4763 107.257C63.0871 107.336 62.6937 107.37 62.3003 107.37C61.9069 107.37 61.5135 107.328 61.1242 107.248C61.2037 107.637 61.2372 108.034 61.2372 108.431H61.2456C61.2456 108.82 61.2037 109.213 61.1242 109.597ZM62.3003 111.536C61.4423 111.536 60.5843 111.812 59.8646 112.36C59.6553 112.523 59.3916 112.594 59.1447 112.569C58.8894 112.556 58.6467 112.447 58.4542 112.259C58.2658 112.071 58.1654 111.829 58.1445 111.578V111.566C58.1319 111.319 58.2073 111.068 58.3621 110.863C58.9104 110.145 59.1866 109.288 59.1866 108.431H59.1949C59.1949 107.574 58.9145 106.718 58.3663 105.991C58.2031 105.782 58.1319 105.527 58.1487 105.272C58.1696 105.017 58.27 104.779 58.4584 104.591C58.6467 104.402 58.8936 104.294 59.1489 104.281H59.1573C59.4042 104.269 59.6553 104.336 59.8687 104.499C60.5886 105.046 61.4466 105.322 62.3044 105.322C63.1708 105.322 64.0287 105.046 64.7401 104.499C64.9578 104.336 65.2131 104.26 65.4642 104.281C65.7111 104.294 65.958 104.402 66.1463 104.591C66.3347 104.779 66.4351 105.021 66.456 105.272C66.4686 105.481 66.4226 105.694 66.3096 105.882C66.2886 105.915 66.2677 105.953 66.2384 105.986C65.6902 106.705 65.4139 107.562 65.4139 108.427C65.4139 109.284 65.6902 110.14 66.2384 110.859C66.4016 111.068 66.4728 111.323 66.4561 111.578C66.4477 111.712 66.4142 111.846 66.3514 111.971C66.3012 112.075 66.2301 112.176 66.1463 112.259C65.958 112.447 65.7111 112.556 65.4642 112.569C65.2549 112.581 65.0415 112.539 64.8531 112.426C64.8197 112.406 64.7736 112.376 64.7401 112.355C64.0287 111.808 63.1708 111.532 62.3044 111.532L62.3003 111.536ZM55.7547 67.3249C56.1439 67.2455 56.5373 67.2121 56.9223 67.2121C57.3157 67.2121 57.7091 67.2455 58.0984 67.3249C58.0189 66.9362 57.9854 66.5434 57.9854 66.1505C57.9854 65.7577 58.0189 65.3648 58.0984 64.9761C57.7092 65.0555 57.3158 65.0973 56.9223 65.0973C56.5289 65.0973 56.1355 65.0555 55.7462 64.9761C55.8258 65.3648 55.8592 65.7576 55.8592 66.1505H55.8676C55.8676 66.5433 55.8259 66.9362 55.7547 67.3249ZM56.9223 69.2599C56.0644 69.2599 55.2064 69.5357 54.4866 70.0832C54.2774 70.2462 54.0221 70.3172 53.7668 70.3005C53.5115 70.2879 53.2687 70.1793 53.0846 69.9912C52.8963 69.8032 52.7875 69.5566 52.7749 69.31V69.2975C52.7623 69.0509 52.8293 68.8002 52.9925 68.587C53.5366 67.8766 53.8086 67.0199 53.8086 66.1548H53.817C53.817 65.298 53.5408 64.4413 52.9925 63.7225C52.8251 63.5136 52.754 63.2503 52.7749 63.0037C52.7875 62.7488 52.8963 62.5064 53.0846 62.3141V62.3225C53.2729 62.1344 53.5199 62.0258 53.7668 62.0049C53.976 61.9923 54.1895 62.0383 54.3778 62.1512C54.4113 62.1721 54.4489 62.2013 54.4824 62.2222C55.2023 62.7697 56.0603 63.0455 56.9181 63.0455C57.7844 63.0455 58.6424 62.7697 59.3622 62.2222C59.5714 62.0592 59.8267 61.9882 60.082 62.0049C60.216 62.0174 60.3583 62.055 60.4838 62.1177C60.5884 62.1679 60.6805 62.2306 60.7642 62.3141C60.9107 62.4604 61.0028 62.6443 61.053 62.8324C61.0614 62.8867 61.0739 62.9452 61.0739 62.9995C61.0948 63.2461 61.0195 63.5052 60.8563 63.7184C60.308 64.4372 60.0402 65.294 60.0402 66.1506C60.0402 67.0157 60.308 67.8725 60.8563 68.5829C61.0195 68.7918 61.0948 69.0551 61.0739 69.3059C61.0655 69.4396 61.0321 69.5733 60.9693 69.6945C60.9191 69.8074 60.8563 69.9035 60.7642 69.9912C60.6219 70.1333 60.442 70.2295 60.2494 70.2712C60.195 70.2838 60.1364 70.2921 60.082 70.3005C59.8267 70.313 59.5756 70.2462 59.3622 70.0832C58.6423 69.5357 57.7843 69.2599 56.9181 69.2599L56.9223 69.2599ZM78.7648 76.0134C78.7648 77.0541 79.1875 77.9902 79.8696 78.6714C80.5517 79.3526 81.4892 79.7663 82.5314 79.7663C83.5651 79.7663 84.511 79.3526 85.1931 78.6714C85.8669 77.9902 86.2896 77.0541 86.2896 76.0134C86.2896 74.9728 85.8669 74.0366 85.1931 73.3554C84.511 72.6742 83.5652 72.2522 82.5314 72.2522C81.4893 72.2522 80.5476 72.6743 79.8696 73.3554C79.1874 74.0367 78.7648 74.9728 78.7648 76.0134ZM78.3505 80.0463C77.3377 78.9973 76.7183 77.5806 76.7183 76.0134C76.7183 74.4128 77.367 72.9542 78.4216 71.9095C79.4721 70.8564 80.9284 70.2086 82.5313 70.2086C84.1343 70.2086 85.5865 70.8564 86.6411 71.9095C87.6916 72.9585 88.3444 74.4128 88.3444 76.0134C88.3444 77.6141 87.6915 79.0726 86.6411 80.1174C85.5864 81.1705 84.1343 81.8182 82.5313 81.8182C81.0833 81.8182 79.7524 81.2917 78.7354 80.414C78.974 80.8069 78.9237 81.3293 78.5889 81.672L74.4792 85.7844L74.4289 85.8387H74.4206C73.9853 86.2817 73.4078 86.499 72.8218 86.499C72.2778 86.499 71.7296 86.3109 71.3026 85.9139C71.2733 85.893 71.2482 85.8638 71.2231 85.8429V85.8345L61.342 76.0009C60.8983 75.5663 60.6807 74.9812 60.6807 74.4044C60.6723 73.8193 60.89 73.2427 61.3336 72.808L88.9466 45.1293C88.7122 44.7407 88.595 44.306 88.595 43.863C88.5867 43.2738 88.8043 42.6803 89.227 42.2164C89.2479 42.1871 89.2772 42.1621 89.2981 42.137L90.3277 41.1089C90.8006 40.6366 91.4241 40.3984 92.0436 40.3984C92.6714 40.3984 93.2908 40.6325 93.7679 41.1005L106.051 53.3249C106.524 53.8013 106.763 54.4198 106.763 55.0467C106.763 55.6653 106.529 56.2922 106.06 56.7602L105.03 57.7883C104.557 58.2648 103.934 58.5071 103.306 58.5071C102.871 58.5071 102.427 58.3859 102.038 58.1561L88.444 71.7723C88.0506 72.1736 87.4019 72.1736 87.0001 71.7807C86.5983 71.3795 86.5983 70.7317 86.9917 70.3347L101.258 56.038C101.66 55.6451 102.309 55.6368 102.706 56.038L103.05 56.3807C103.121 56.435 103.213 56.4643 103.297 56.4643C103.397 56.4643 103.493 56.4308 103.573 56.3514L104.594 55.3233C104.673 55.2523 104.715 55.1478 104.715 55.0475C104.715 54.9472 104.673 54.8511 104.594 54.7717L92.319 42.5559C92.2395 42.4765 92.1433 42.4347 92.0386 42.4347C91.9382 42.4347 91.8419 42.4765 91.7708 42.5475L90.7412 43.5798L90.7119 43.609C90.6575 43.6801 90.6282 43.7637 90.6282 43.8556C90.6282 43.9559 90.6617 44.052 90.7412 44.1231V44.1314L90.7496 44.1231L90.7998 44.1774L91.0677 44.4449C91.4695 44.8377 91.4695 45.4855 91.0677 45.8868L62.7765 74.2426C62.7347 74.2844 62.7137 74.3429 62.7137 74.3972C62.7137 74.4474 62.7347 74.5017 62.7765 74.5435C66.0702 77.8242 69.3722 81.0965 72.666 84.3855L72.6869 84.4064C72.7204 84.4356 72.7706 84.4482 72.8125 84.4482C72.8669 84.4482 72.9255 84.4273 72.9673 84.3855V84.3771L73.0176 84.327L77.1273 80.2146C77.4496 79.8845 77.9518 79.8218 78.3368 80.0307L78.3505 80.0463ZM81.7278 75.9466C81.7278 76.1931 81.8199 76.4188 81.9831 76.5734C82.1463 76.7364 82.3723 76.8326 82.6109 76.8326C82.8578 76.8326 83.0754 76.7323 83.2386 76.5734C83.4019 76.4105 83.4981 76.1931 83.4981 75.9466C83.4981 75.7084 83.3977 75.4827 83.2386 75.3197L83.2052 75.2863C83.0503 75.1442 82.8452 75.0689 82.6151 75.0689C82.3681 75.0689 82.1505 75.1609 81.9873 75.3239C81.8241 75.4869 81.732 75.7042 81.732 75.9507L81.7278 75.9466ZM80.5308 78.0194C80.0035 77.4845 79.6729 76.7531 79.6729 75.9466C79.6729 75.1442 80.0035 74.4128 80.5308 73.882L80.5392 73.8737C81.0749 73.3471 81.8073 73.0169 82.6067 73.0169C83.3809 73.0169 84.084 73.3178 84.6114 73.811C84.6407 73.8319 84.6616 73.8528 84.6825 73.8737C85.2182 74.4086 85.5488 75.14 85.5488 75.9466C85.5488 76.7531 85.2182 77.4928 84.6825 78.0194C84.1552 78.5544 83.4144 78.8845 82.6067 78.8845C81.799 78.8845 81.0665 78.5544 80.5308 78.0194ZM87.2731 85.45C87.6665 85.8512 87.6665 86.499 87.2647 86.8919C86.863 87.2931 86.2143 87.2931 85.8208 86.8919L82.6401 83.6948C82.2383 83.2936 82.2467 82.6458 82.6401 82.2488C83.0419 81.8476 83.6905 81.8559 84.0882 82.2571L87.2689 85.4542L87.2731 85.45ZM88.8341 77.5305C88.4407 77.1293 88.4407 76.4815 88.8425 76.0845C89.2443 75.6833 89.893 75.6916 90.2864 76.0928L95.4048 81.2374C95.8065 81.6386 95.8065 82.2864 95.4048 82.6835C95.003 83.0763 94.3543 83.0763 93.9567 82.6751L88.8383 77.5305H88.8341ZM51.2808 86.1772C51.6825 85.776 52.3312 85.7677 52.7289 86.1689C53.1306 86.5701 53.1306 87.2178 52.7289 87.6149L51.3059 89.04L58.1989 95.9022L59.6259 94.4772C60.0194 94.076 60.668 94.076 61.0699 94.4688C61.4716 94.87 61.48 95.5178 61.0782 95.9148L59.2075 97.7913C58.9313 98.0671 58.5671 98.205 58.1989 98.205C57.8389 98.205 57.4748 98.0629 57.1986 97.7913L49.4687 90.1016L49.4143 90.0473C49.1381 89.7714 49 89.4078 49 89.0401C49 88.7224 49.1046 88.409 49.3181 88.1457C49.3474 88.1123 49.3809 88.0747 49.4101 88.0412H49.4185L51.2851 86.1731L51.2808 86.1772ZM60.7391 79.0851C61.1409 78.6839 61.7896 78.6756 62.1872 79.0768C62.589 79.478 62.589 80.1258 62.1872 80.5228L56.6001 86.123L61.1033 90.6072L66.6904 84.9987C67.0922 84.5975 67.7409 84.5975 68.1385 84.9987C68.5403 85.3916 68.5403 86.0394 68.1385 86.4406L62.5053 92.0866C62.1161 92.4795 61.6097 92.6717 61.0991 92.6717C60.5927 92.6717 60.0779 92.4837 59.6929 92.095L55.1102 87.5314C54.721 87.1427 54.5243 86.637 54.5243 86.1272C54.5243 85.6215 54.7127 85.1074 55.1019 84.7229L60.735 79.0853L60.7391 79.0851ZM70.4863 120.698C70.8086 120.242 71.4447 120.129 71.9092 120.443C72.3738 120.765 72.4868 121.404 72.1645 121.868C70.4696 124.279 68.7286 127.313 68.0757 130.268C67.6111 132.358 67.6948 134.41 68.7788 136.132C70.005 138.092 72.1855 139.09 74.6547 139.513C78.4423 140.16 82.891 139.471 85.9172 138.781C90.4204 137.753 95.024 136.132 99.5228 134.155C104.704 131.869 109.714 129.127 114.233 126.302C118.757 123.477 123.428 120.171 127.746 116.519C131.484 113.355 134.962 109.924 137.862 106.326C139.804 103.914 142.373 100.216 143.445 96.534C144.148 94.131 144.207 91.7405 142.972 89.7721C141.896 88.0503 140.084 87.0724 138.004 86.575C135.054 85.8729 131.555 86.1111 128.642 86.575C128.085 86.667 127.566 86.2867 127.474 85.7225C127.382 85.1666 127.763 84.6484 128.328 84.5565C131.446 84.0592 135.221 83.8126 138.477 84.59C141.055 85.2001 143.311 86.4539 144.721 88.6897C146.303 91.2265 146.27 94.1853 145.42 97.1024C144.244 101.11 141.52 105.051 139.456 107.609C136.481 111.312 132.903 114.835 129.069 118.074C124.67 121.797 119.92 125.166 115.321 128.033C110.726 130.908 105.62 133.7 100.35 136.019C95.755 138.042 91.0217 139.709 86.3719 140.771C83.1619 141.502 78.4243 142.225 74.3145 141.523C71.3179 141.009 68.6352 139.742 67.0365 137.206C65.6428 134.97 65.5005 132.4 66.0781 129.817C66.8021 126.557 68.6771 123.272 70.4934 120.685L70.4863 120.698ZM125.173 133.841C124.604 133.841 124.144 133.386 124.144 132.813C124.144 132.249 124.6 131.785 125.173 131.785C125.876 131.785 126.513 131.505 126.977 131.041C127.442 130.577 127.73 129.938 127.73 129.236C127.73 128.738 127.584 128.266 127.329 127.873L127.299 127.823C127.04 127.435 126.672 127.125 126.245 126.925C125.73 126.686 125.504 126.072 125.747 125.562C125.985 125.048 126.601 124.831 127.111 125.069C127.877 125.429 128.538 125.997 129.011 126.707L129.053 126.77C129.509 127.489 129.777 128.337 129.777 129.236C129.777 130.506 129.262 131.655 128.425 132.491C127.597 133.319 126.441 133.841 125.173 133.841ZM136.582 116.966C136.623 116.398 137.117 115.976 137.678 116.017C138.243 116.059 138.67 116.552 138.628 117.112C137.979 125.609 134.087 133.211 128.182 138.668C122.319 144.088 114.476 147.398 105.876 147.398C103.779 147.398 101.724 147.202 99.7235 146.822C97.6769 146.429 95.6974 145.86 93.8099 145.112C93.2826 144.903 93.0231 144.31 93.2324 143.783C93.4416 143.257 94.0359 142.998 94.5633 143.207C96.3462 143.909 98.1959 144.444 100.104 144.807C101.963 145.158 103.892 145.342 105.876 145.342C113.949 145.342 121.306 142.241 126.797 137.168C132.329 132.053 135.975 124.931 136.582 116.961L136.582 116.966ZM104.251 101.311C103.686 101.311 103.222 100.855 103.222 100.283C103.222 99.7184 103.686 99.2545 104.251 99.2545H117.87C118.435 99.2545 118.899 99.7184 118.899 100.283C118.899 100.851 118.435 101.311 117.87 101.311H104.251ZM84.3716 121.476C83.8066 121.476 83.3504 121.012 83.3504 120.447C83.3504 119.879 83.8066 119.419 84.3716 119.419H97.99C98.5592 119.419 99.0196 119.875 99.0196 120.447C99.0196 121.012 98.5634 121.476 97.99 121.476H84.3716Z" fill="black"/>
</svg>
