<svg width="195" height="195" viewBox="0 0 195 195" fill="none" xmlns="http://www.w3.org/2000/svg">
<rect x="0.638672" y="0.898438" width="194" height="194" rx="97" fill="#FFDD55"/>
<path d="M113.056 89.8359C114.256 89.8359 115.228 88.9405 115.228 87.8359C115.228 86.7314 114.256 85.8359 113.056 85.8359C111.856 85.8359 110.884 86.7314 110.884 87.8359C110.884 88.9405 111.856 89.8359 113.056 89.8359Z" fill="black"/>
<path d="M102.195 77.8363C103.096 77.8363 103.824 77.1563 103.824 76.3363C103.824 75.5063 103.096 70.6562 102.195 70.6562C101.293 70.6562 100.565 75.5063 100.565 76.3363C100.565 77.1563 101.293 77.8363 102.195 77.8363Z" fill="black"/>
<path d="M102.195 82.3359C103.094 82.3359 103.824 81.6644 103.824 80.8359C103.824 80.0075 103.094 79.3359 102.195 79.3359C101.295 79.3359 100.565 80.0075 100.565 80.8359C100.565 81.6644 101.295 82.3359 102.195 82.3359Z" fill="black"/>
<path d="M91.333 89.8359C92.5327 89.8359 93.5053 88.9405 93.5053 87.8359C93.5053 86.7314 92.5327 85.8359 91.333 85.8359C90.1332 85.8359 89.1606 86.7314 89.1606 87.8359C89.1606 88.9405 90.1332 89.8359 91.333 89.8359Z" fill="black"/>
<path d="M98.6396 92.7667C99.8028 93.0707 100.999 93.2247 102.195 93.2247C103.39 93.2247 104.586 93.0707 105.75 92.7667C106.326 92.6167 106.662 92.0637 106.498 91.5327C106.335 91.0017 105.734 90.6907 105.157 90.8437C103.216 91.3497 101.174 91.3497 99.2326 90.8437C98.6548 90.6917 98.0552 91.0017 97.8912 91.5327C97.7272 92.0627 98.0628 92.6157 98.6396 92.7667Z" fill="black"/>
<path d="M109.38 82.706C112.225 80.661 114.876 80.661 117.721 82.706C117.92 82.849 118.155 82.918 118.389 82.918C118.712 82.918 119.031 82.786 119.246 82.533C119.616 82.097 119.532 81.47 119.058 81.13C115.457 78.54 111.646 78.54 108.044 81.13C107.57 81.47 107.486 82.098 107.856 82.533C108.226 82.97 108.908 83.046 109.38 82.706Z" fill="black"/>
<path d="M86.6677 82.706C89.5135 80.661 92.1637 80.661 95.0094 82.706C95.2082 82.849 95.4428 82.918 95.6774 82.918C96 82.918 96.3193 82.786 96.5344 82.533C96.9037 82.097 96.8201 81.47 96.3465 81.13C92.7448 78.54 88.9346 78.54 85.3318 81.13C84.8582 81.47 84.7746 82.098 85.1439 82.533C85.5132 82.97 86.1963 83.046 86.6677 82.706Z" fill="black"/>
<path d="M102.193 60.9254C104 60.9254 105.311 58.7844 105.311 55.8354C105.311 52.8804 104 50.7344 102.193 50.7344C100.387 50.7344 99.0762 52.8804 99.0762 55.8354C99.0762 58.7844 100.387 60.9254 102.193 60.9254Z" fill="black"/>
<path d="M142.07 158.173C142.065 158.153 142.07 158.134 142.064 158.114C142.058 158.097 142.051 158.08 142.045 158.063C142.037 158.042 142.033 158.021 142.023 158.001C141.325 155.912 140.543 153.893 139.693 152.006C138.213 148.702 136.497 145.641 134.604 142.882C135.183 141.896 136.201 139.714 135.834 137.039C135.562 135.101 134.129 133.391 132.865 131.882C131.878 130.704 130.858 129.486 130.858 128.628C130.858 127.627 131.352 126.533 131.875 125.376C132.497 123.999 133.14 122.574 133.14 120.987C133.14 119.501 132.481 117.854 131.79 116.533C132.41 116.647 133.035 116.722 133.655 116.722C135.732 116.722 137.753 116.087 139.338 114.844C142.481 112.378 143.171 108.206 141.229 103.399C141.045 102.946 140.538 102.675 140.018 102.763C139.5 102.849 139.124 103.263 139.124 103.747C139.124 105.536 137.978 107.717 136.672 108.415C136.087 108.727 135.528 108.723 134.914 108.398C133.245 107.524 135.086 104.111 136.867 100.811C138.481 97.8189 140.149 94.7249 140.273 92.0099C140.461 87.9659 139.536 85.2379 137.525 83.8999C136.218 83.0309 134.776 82.9669 133.771 83.0789C132.521 75.6039 134.612 73.1139 139.599 70.5389C139.908 70.3799 140.113 70.0919 140.149 69.7679C140.185 69.4439 140.047 69.1239 139.779 68.9119C137.991 67.4869 133.708 67.1259 130.555 67.6539C131.28 63.2619 130.433 58.7919 128.026 54.3419C127.835 53.9879 127.439 53.7599 127.007 53.7879C126.578 53.8049 126.202 54.0529 126.044 54.4209C125.328 56.0929 124.349 57.2179 123.071 57.8269C123.015 56.4139 122.656 54.3409 121.283 52.9539C122.187 52.1189 123.189 50.6149 122.931 48.1379C122.931 48.1339 122.933 48.1309 122.933 48.1279C122.933 48.1189 122.929 48.1099 122.929 48.1009C122.928 48.0879 122.928 48.0769 122.927 48.0649C122.924 47.9699 122.913 47.8779 122.896 47.7639C122.302 43.6959 113.496 40.6149 107.544 39.4689C107.254 37.0539 105.646 35.0559 102.731 33.5289C102.397 33.3549 101.989 33.3549 101.657 33.5289C98.7413 35.0559 97.1338 37.0539 96.8438 39.4689C90.8895 40.6149 82.0851 43.6959 81.492 47.7559C81.4627 47.9439 81.4377 48.1329 81.441 48.2259C81.4399 48.2399 81.441 48.2509 81.4399 48.2649C81.4388 48.2799 81.4323 48.2929 81.4323 48.3079C81.4323 48.3159 81.4366 48.3219 81.4366 48.3299C81.2574 50.6919 82.2252 52.1399 83.1039 52.9529C81.7299 54.3399 81.3715 56.4139 81.315 57.8269C80.0377 57.2179 79.0579 56.0929 78.3422 54.4209C78.1847 54.0529 77.8078 53.8049 77.3787 53.7879C76.9367 53.7619 76.55 53.9879 76.3599 54.3419C73.9541 58.7909 73.1058 63.2619 73.8314 67.6539C70.6804 67.1269 66.3955 67.4869 64.6077 68.9119C64.3394 69.1249 64.2015 69.4439 64.2373 69.7679C64.2732 70.0919 64.4784 70.3799 64.7869 70.5389C69.7745 73.1139 71.8665 75.6039 70.6152 83.0789C69.6116 82.9669 68.1681 83.0309 66.8615 83.8999C64.8499 85.2379 63.9256 87.9659 64.1135 92.0089C64.2373 94.7249 65.9057 97.8189 67.5197 100.811C69.301 104.111 71.1409 107.524 69.4715 108.399C68.8567 108.722 68.2985 108.726 67.7152 108.415C66.4096 107.717 65.2637 105.536 65.2637 103.747C65.2637 103.263 64.8868 102.849 64.3698 102.763C63.8528 102.674 63.3423 102.946 63.1588 103.399C61.2167 108.207 61.9064 112.378 65.0498 114.844C66.6345 116.087 68.6558 116.722 70.7325 116.722C71.3527 116.722 71.9773 116.647 72.5975 116.533C71.9067 117.855 71.2474 119.501 71.2474 120.988C71.2474 122.575 71.8904 124 72.5128 125.377C73.0352 126.534 73.5294 127.628 73.5294 128.629C73.5294 129.487 72.5095 130.705 71.5222 131.883C70.2579 133.392 68.8242 135.102 68.5526 137.043C68.1877 139.705 69.1945 141.877 69.7745 142.869C67.9444 145.536 66.3097 148.444 64.9086 151.53C64.2623 150.212 63.1794 149.219 61.9129 148.85C61.9129 148.823 61.9184 148.796 61.9184 148.769C61.9184 146.448 59.8666 144.559 57.3456 144.559H56.77V121.348C59.0629 120.292 60.5064 118.317 60.5064 116.157C60.5064 112.848 57.1784 110.157 53.0879 110.157C48.9974 110.157 45.6694 112.848 45.6694 116.157C45.6694 118.314 47.114 120.289 49.4058 121.347V144.565C48.2317 144.586 47.089 145.025 46.2657 145.784C45.3903 146.576 44.9091 147.636 44.9091 148.767C44.9091 150.003 45.5022 151.105 46.4287 151.875C46.2744 151.986 46.1148 152.091 45.9779 152.22C45.1274 153.004 44.6387 154.089 44.6387 155.196C44.6387 157.517 46.6904 159.406 49.2114 159.406H141.046C141.069 159.406 141.087 159.395 141.11 159.394C141.187 159.388 141.264 159.384 141.342 159.362C141.356 159.358 141.364 159.348 141.377 159.344C141.49 159.31 141.589 159.257 141.683 159.192C141.698 159.181 141.716 159.173 141.73 159.162C141.827 159.087 141.903 158.997 141.965 158.896C141.972 158.886 141.979 158.878 141.986 158.868C142.04 158.772 142.07 158.669 142.089 158.558C142.092 158.536 142.101 158.515 142.103 158.493C142.106 158.463 142.121 158.438 142.121 158.407C142.121 158.324 142.091 158.25 142.07 158.173ZM114.573 157.406C115.519 155.913 116.41 154.192 117.245 152.297H119.193C118.336 154.032 117.393 155.742 116.379 157.406H114.573ZM66.3238 153.616L75.0402 156.113V157.406H64.8325C65.305 156.088 65.8036 154.822 66.3238 153.616ZM76.1264 150.767C75.5268 150.767 75.0402 151.214 75.0402 151.767V154.019L67.1667 151.763C68.5559 148.782 70.1558 145.974 71.9545 143.421C74.7828 139.4 78.101 135.919 81.8287 133.046C83.3265 140.88 85.9333 150.703 90.2584 157.406H77.2126V151.766C77.2126 151.214 76.726 150.767 76.1264 150.767ZM90.7743 66.6809C94.1545 65.4969 97.9962 64.8969 102.194 64.8969C106.392 64.8969 110.234 65.4979 113.617 66.6819C116.029 67.5209 118.247 68.6799 120.219 70.1349C119.768 79.9889 122.466 86.6299 127.687 88.5979C127.119 93.4819 126.133 97.9949 124.88 101.38C124.875 101.389 124.872 101.398 124.868 101.407C124.865 101.414 124.862 101.421 124.859 101.428C124.85 101.447 124.842 101.466 124.834 101.486C124.266 103.026 123.645 104.317 122.985 105.325C121.995 106.851 120.488 108.521 118.729 110.042C118.332 110.396 117.915 110.741 117.495 111.072C114.64 113.282 111.485 114.947 108.372 115.888C104.221 117.148 100.169 117.148 96.0194 115.888C92.8695 114.929 89.7121 113.261 86.8902 111.066C86.4634 110.731 86.0572 110.396 85.6466 110.028C83.9011 108.521 82.3946 106.851 81.403 105.322C80.7458 104.317 80.1245 103.026 79.5565 101.486C79.5489 101.467 79.5402 101.448 79.5315 101.429C79.5261 101.417 79.5217 101.405 79.5163 101.393C79.5141 101.389 79.513 101.384 79.5109 101.38C78.2574 97.9949 77.2712 93.4819 76.7032 88.5979C81.9243 86.6299 84.6223 79.9889 84.1716 70.1349C84.1759 70.1319 84.1781 70.1299 84.1824 70.1269C86.1419 68.6799 88.3598 67.5209 90.7743 66.6809ZM103.248 146.106C103.236 145.554 102.76 145.123 102.14 145.127C101.54 145.139 101.064 145.595 101.075 146.148L101.203 151.922C94.3793 150.496 91.136 136.125 90.2943 127.917C90.5126 127.817 90.7341 127.717 90.9568 127.62C92.0745 129.033 94.8496 132.07 98.7945 133.304L96.8677 136.333C96.6711 136.642 96.6689 137.024 96.8623 137.335C97.0556 137.647 97.4151 137.838 97.805 137.838H106.559C106.944 137.838 107.299 137.651 107.495 137.347C107.69 137.043 107.697 136.666 107.512 136.357L105.678 133.282C109.576 132.032 112.318 129.026 113.428 127.623C113.626 127.71 113.825 127.801 114.025 127.893C113.414 134.872 110.522 150.506 103.374 151.933L103.248 146.106ZM107.625 124.423C103.924 128.131 100.464 128.131 96.7634 124.423V118.166C98.5849 118.606 100.406 118.837 102.194 118.837C103.982 118.837 105.804 118.605 107.625 118.166V124.423ZM122.977 142.837H120.525C120.99 141.133 121.424 139.356 121.82 137.526H124.38C123.989 139.302 123.525 141.077 122.977 142.837ZM128.327 114.467C127.9 116.405 126.87 117.536 125.174 117.927C123.666 118.274 122.37 117.988 121.325 117.073C120.092 115.995 119.545 114.356 119.566 113.088C119.907 113.511 120.348 113.921 120.908 114.225C121.812 114.715 122.878 114.833 123.986 114.566C126.739 113.904 127.283 109.602 127.25 106.083C128.239 108.602 128.907 111.897 128.327 114.467ZM129.789 89.2989C132.259 90.4619 133.31 93.6549 132.109 96.6709C131.244 98.8379 129.384 100.376 127.385 100.733C128.447 97.5039 129.265 93.5989 129.789 89.2989ZM74.6003 89.3009C75.125 93.5979 75.9428 97.5009 77.0029 100.73C75.0087 100.369 73.1449 98.8369 72.2803 96.6719C71.0801 93.6609 72.1272 90.4749 74.6003 89.3009ZM80.4004 114.564C81.5094 114.834 82.5749 114.715 83.4808 114.224C84.0402 113.92 84.48 113.51 84.8222 113.087C84.8439 114.356 84.2976 115.994 83.0637 117.072C82.0177 117.987 80.7219 118.27 79.2133 117.926C77.5178 117.535 76.487 116.404 76.0591 114.461C75.4791 111.896 76.1492 108.6 77.1376 106.08C77.1061 109.601 77.6492 113.902 80.4004 114.564ZM121.863 151.691C121.865 151.69 121.865 151.688 121.866 151.687C121.866 151.686 121.867 151.685 121.867 151.684C123.027 149.199 124.03 146.654 124.85 144.122C125.639 141.685 126.288 139.201 126.78 136.746C128.83 138.766 130.729 140.999 132.424 143.429C134.195 145.943 135.795 148.749 137.209 151.762L129.348 154.016V151.765C129.348 151.212 128.862 150.765 128.262 150.765C127.662 150.765 127.176 151.212 127.176 151.765V157.405H118.861C119.955 155.541 120.964 153.627 121.863 151.691ZM129.348 156.113L138.042 153.62C138.566 154.838 139.06 156.103 139.522 157.406H129.348V156.113ZM108.956 54.8369C108.603 50.0859 105.761 46.4959 102.194 46.4959C98.6273 46.4959 95.7859 50.0859 95.4329 54.8369H91.8876C90.9253 53.6799 88.135 50.8009 84.9547 51.7999C84.4714 51.4499 83.6687 50.6019 83.61 48.9759C95.9521 44.1359 108.45 44.0819 120.781 48.8099C120.799 50.5319 119.95 51.4319 119.441 51.7979C116.277 50.7729 113.467 53.6729 112.501 54.8369H108.956ZM102.194 35.5639C103.902 36.5639 104.913 37.7329 105.273 39.0999C104.149 38.9539 103.114 38.8769 102.194 38.8769C101.274 38.8769 100.239 38.9539 99.1149 39.0989C99.4755 37.7319 100.487 36.5639 102.194 35.5639ZM66.4607 113.32C64.8434 112.051 64.1048 110.119 64.2797 107.782C64.8695 108.77 65.6634 109.63 66.6258 110.143C67.8759 110.811 69.2695 110.809 70.549 110.135C74.0019 108.325 71.697 104.052 69.4672 99.9199C67.9541 97.1149 66.3901 94.2149 66.2847 91.9229C66.1327 88.6519 66.767 86.4429 68.1203 85.5289C69.4139 84.6549 71.1051 85.2079 71.1149 85.2109C71.4168 85.3149 71.7546 85.2909 72.0348 85.1459C72.3162 84.9999 72.5117 84.7459 72.5692 84.4529C74.0323 76.9569 72.781 73.0089 67.6044 69.7839C69.6279 69.3039 72.8277 69.2559 74.8393 69.9609C75.2151 70.0919 75.6376 70.0229 75.9407 69.7789C76.2426 69.5359 76.3751 69.1589 76.2828 68.7989C75.2944 64.9049 75.6561 61.0589 77.3929 57.0949C78.5909 58.7909 80.2082 59.8379 82.2197 60.2159C82.5619 60.2809 82.9127 60.1909 83.1691 59.9759C83.4254 59.7609 83.5546 59.4459 83.5177 59.1279C83.5134 59.0859 83.0854 54.9129 85.3555 53.8119C85.4152 53.7829 85.4239 53.7849 85.4761 53.7469C87.7407 52.7839 90.4018 56.3529 90.4279 56.3899C90.6299 56.6689 90.9698 56.8379 91.3337 56.8379H96.4821C97.0817 56.8379 97.5683 56.3909 97.5683 55.8379C97.5683 51.8589 99.6874 48.4969 102.195 48.4969C104.703 48.4969 106.822 51.8579 106.822 55.8379C106.822 56.3909 107.309 56.8379 107.908 56.8379H113.057C113.422 56.8379 113.763 56.6689 113.964 56.3889C113.989 56.3529 116.631 52.7839 118.865 53.7099C118.918 53.7489 118.975 53.7829 119.035 53.8129C120.938 54.7369 121.006 57.9649 120.873 59.1299C120.836 59.4469 120.966 59.7629 121.223 59.9769C121.479 60.1909 121.83 60.2819 122.171 60.2169C124.183 59.8389 125.8 58.7919 126.998 57.0959C128.734 61.0599 129.096 64.9069 128.108 68.7999C128.017 69.1599 128.148 69.5369 128.45 69.7799C128.753 70.0229 129.178 70.0929 129.551 69.9619C131.563 69.2569 134.764 69.3059 136.786 69.7849C131.61 73.0099 130.358 76.9579 131.821 84.4539C131.878 84.7439 132.074 84.9959 132.352 85.1419C132.631 85.2879 132.968 85.3139 133.269 85.2139C133.288 85.2079 134.978 84.6589 136.27 85.5299C137.624 86.4429 138.258 88.6529 138.106 91.9249C138.002 94.2159 136.436 97.1159 134.923 99.9209C132.694 104.053 130.389 108.326 133.839 110.135C135.119 110.809 136.512 110.814 137.764 110.144C138.726 109.63 139.52 108.771 140.11 107.783C140.285 110.12 139.545 112.053 137.929 113.321C136.001 114.834 133.078 115.109 130.593 114.092C131.148 110.229 129.678 105.41 127.945 102.682C130.629 102.157 133.02 100.186 134.149 97.3619C135.813 93.1849 134.054 88.6529 130.243 87.2629C130.149 87.2269 130.044 87.1979 129.944 87.1669C129.94 85.4619 129.918 83.5219 129.804 81.3399C129.71 79.5039 129.18 77.6839 128.27 76.0719C126.79 73.4719 124.837 71.2109 122.497 69.3149C124.803 67.1609 125.817 64.8899 125.655 62.2399C125.622 61.6879 125.108 61.2759 124.509 61.2989C123.911 61.3289 123.452 61.8019 123.486 62.3539C123.617 64.4769 122.775 66.2589 120.801 68.0459C119.126 66.9009 117.298 65.9429 115.344 65.1829L117.348 59.5269C117.534 59.0019 117.222 58.4369 116.652 58.2649C116.081 58.0959 115.469 58.3809 115.282 58.9059L113.313 64.4639C109.955 63.4269 106.224 62.8969 102.194 62.8969C98.1646 62.8969 94.4325 63.4279 91.0763 64.4639L89.1071 58.9059C88.9214 58.3819 88.312 58.0959 87.7374 58.2649C87.1672 58.4369 86.8555 59.0009 87.0412 59.5269L89.0452 65.1829C87.0868 65.9439 85.2577 66.9029 83.5883 68.0459C81.6158 66.2579 80.7741 64.4769 80.9044 62.3539C80.9381 61.8019 80.4797 61.3299 79.8813 61.2989C79.2947 61.2769 78.7701 61.6889 78.7354 62.2399C78.5735 64.8899 79.5869 67.1609 81.8939 69.3149C79.55 71.2149 77.5981 73.4749 76.1177 76.0769C75.1967 77.7209 74.6818 79.4909 74.5862 81.3389C74.4722 83.5209 74.4505 85.4609 74.4461 87.1659C74.3516 87.1959 74.2506 87.2229 74.1637 87.2569C70.3372 88.6529 68.5776 93.1849 70.2427 97.3619C71.3712 100.185 73.7618 102.156 76.4468 102.681C74.7122 105.409 73.2427 110.23 73.7988 114.091C71.3125 115.108 68.3886 114.833 66.4607 113.32ZM63.3749 154.286C63.3749 156.089 62.3289 157.396 60.8876 157.396C60.0599 157.396 59.607 157.185 59.2595 156.654C59.4506 156.185 59.5516 155.69 59.5516 155.196C59.5516 154.29 59.2345 153.455 58.7055 152.767C59.4028 152.567 60.048 152.232 60.5802 151.743C60.8854 151.462 61.1407 151.138 61.3503 150.785C62.3887 151.144 63.3749 152.52 63.3749 154.286ZM51.5792 144.557V140.768C52.0745 140.972 52.5774 141.094 53.089 141.094C53.6006 141.094 54.1035 140.972 54.5987 140.768V144.557H51.5792ZM47.8428 116.156C47.8428 113.95 50.1965 112.156 53.089 112.156C55.9814 112.156 58.3351 113.95 58.3351 116.156C58.3351 117.445 57.489 118.642 56.1291 119.383C55.4405 118.559 54.3848 118.07 53.1737 118.058C51.9355 118.08 50.8048 118.563 50.0705 119.395C48.6976 118.653 47.8428 117.449 47.8428 116.156ZM47.7961 147.203C48.2425 146.792 48.8606 146.557 49.4938 146.557H57.3467C58.6708 146.557 59.7471 147.548 59.7471 148.767C59.7471 148.986 59.7178 149.193 59.6624 149.369C59.5408 149.741 59.3322 150.064 59.0444 150.33C58.5915 150.748 57.9876 150.977 57.3467 150.977H54.9789H49.4938C48.1643 150.977 47.0825 149.986 47.0825 148.767C47.0825 148.176 47.3334 147.622 47.7961 147.203ZM46.811 155.196C46.811 154.615 47.0673 154.045 47.5213 153.628C47.9623 153.214 48.5793 152.977 49.2125 152.977H54.98C56.304 152.977 57.3804 153.973 57.3804 155.197C57.3804 155.553 57.2848 155.9 57.0958 156.225C56.9818 156.421 56.8373 156.602 56.6766 156.75C56.2171 157.173 55.6143 157.406 54.9789 157.406H49.2114C47.8885 157.406 46.811 156.415 46.811 155.196Z" fill="black"/>
</svg>
