<svg width="194" height="195" viewBox="0 0 194 195" fill="none" xmlns="http://www.w3.org/2000/svg">
<rect y="0.898438" width="194" height="194" rx="97" fill="#FFDD55"/>
<path d="M156.985 126.393C156.979 126.328 156.964 126.268 156.944 126.207C156.929 126.17 156.917 126.134 156.899 126.099C156.867 126.04 156.823 125.992 156.777 125.942C156.757 125.921 156.746 125.894 156.725 125.876C156.716 125.868 156.706 125.868 156.697 125.861C156.642 125.82 156.577 125.793 156.511 125.767C156.476 125.754 156.446 125.734 156.411 125.727C156.405 125.725 156.399 125.721 156.393 125.719L141.18 122.68V111.955C141.18 111.931 141.167 111.913 141.165 111.889C141.159 111.824 141.144 111.764 141.124 111.703C141.109 111.666 141.097 111.629 141.079 111.595C141.047 111.536 141.004 111.488 140.957 111.438C140.937 111.417 140.927 111.39 140.906 111.372C140.896 111.364 140.886 111.364 140.877 111.358C140.822 111.316 140.758 111.29 140.691 111.263C140.656 111.25 140.626 111.232 140.591 111.223C140.585 111.221 140.579 111.216 140.573 111.215L127.52 108.609V99.1783C127.52 98.9537 127.418 98.7381 127.243 98.595C127.147 98.5151 127.03 98.4699 126.91 98.4457L126.911 98.4382L113.063 95.6724C116.866 90.1183 117.405 81.2181 117.058 77.2601C116.234 67.8836 108.549 60.6384 108.988 54.2161C109.129 52.1768 108.748 52.2085 107.614 54.2161C106.479 56.2252 106.185 60.2932 106.958 63.2595C107.732 66.2257 107.746 69.5793 106.991 70.7127C106.234 71.8446 102.59 72.7068 98.0332 61.8035C95.388 55.4731 94.5214 48.8684 96.3256 43.8057C98.228 38.4701 96.8133 38.7142 94.7117 43.8343C92.5964 48.9875 90.0917 55.8695 92.53 64.3326C96.8677 79.3868 84.8889 78.3529 86.222 70.2786C86.6689 67.5656 86.7097 64.105 85.2301 61.389C83.8184 58.7981 82.3177 57.434 83.6056 61.3528C84.3514 63.6227 82.822 69.0955 80.9211 73.8462C76.9564 83.7533 79.5985 91.1749 83.0952 95.6438L69.0873 98.4397L69.0888 98.4473C68.968 98.4714 68.8533 98.5166 68.7567 98.5965C68.5815 98.7397 68.4804 98.9537 68.4804 99.1798V108.614L55.4236 111.22C55.4176 111.221 55.413 111.226 55.4055 111.227C55.3723 111.235 55.3421 111.256 55.3104 111.266C55.2424 111.292 55.176 111.319 55.1201 111.361C55.1111 111.367 55.1005 111.369 55.093 111.375C55.0718 111.393 55.0613 111.42 55.0416 111.44C54.9948 111.488 54.951 111.538 54.9178 111.596C54.8982 111.631 54.8861 111.669 54.871 111.706C54.8499 111.767 54.8363 111.825 54.8303 111.889C54.8288 111.913 54.8152 111.932 54.8152 111.957V122.682L39.6069 125.721C39.6009 125.722 39.5964 125.727 39.5888 125.728C39.5556 125.736 39.5254 125.757 39.4937 125.767C39.4258 125.793 39.3593 125.82 39.3035 125.862C39.2944 125.868 39.2838 125.87 39.2763 125.876C39.2552 125.894 39.2446 125.92 39.225 125.941C39.1782 125.989 39.1344 126.039 39.1012 126.097C39.0815 126.132 39.0695 126.17 39.0544 126.207C39.0332 126.266 39.0196 126.326 39.0136 126.39C39.0136 126.415 39 126.437 39 126.459V140.525C39 140.883 39.2536 141.192 39.6069 141.263L97.852 152.894C97.9019 152.905 97.9502 152.891 98 152.891C98.0498 152.891 98.0981 152.905 98.148 152.894L156.393 141.263C156.746 141.192 157 140.883 157 140.525V126.459C157 126.437 156.986 126.417 156.985 126.393ZM84.2231 96.9536C84.6322 97.3877 85.0414 97.7856 85.449 98.1413L83.4742 98.5362C83.2976 98.5708 83.1707 98.7261 83.1707 98.9054C83.1707 99.0848 83.2976 99.2401 83.4742 99.2747L89.1088 100.399C89.2099 100.431 89.3111 100.456 89.4032 100.476C90.534 100.701 92.0121 101.053 93.6563 101.308L97.926 102.16C97.9743 102.17 98.0242 102.17 98.074 102.16L112.526 99.2747C112.702 99.2401 112.829 99.0848 112.829 98.9054C112.829 98.7261 112.702 98.5708 112.526 98.5362L110.8 98.191C111.235 97.8293 111.644 97.4314 112.025 97.0033L122.915 99.1767L98 104.152L73.0868 99.1783L84.2231 96.9536ZM126.008 100.096V110.045L98.7549 115.488V105.539L126.008 100.096ZM69.9917 100.098L97.2451 105.539V115.488L69.9917 110.045V100.098ZM68.4819 110.148V110.663C68.4819 111.022 68.7355 111.331 69.0888 111.402L97.852 117.144C97.9019 117.155 97.9502 117.141 98 117.141C98.0498 117.141 98.0981 117.155 98.148 117.144L126.91 111.4C127.263 111.33 127.517 111.021 127.517 110.662V110.146L136.575 111.955L97.9985 119.657L59.4216 111.955L68.4819 110.148ZM139.671 112.874V124.402L98.7549 132.572V121.045L139.671 112.874ZM56.3295 112.876L97.2466 121.045V132.572L56.3295 124.402V112.876ZM97.2451 151.238L40.5098 139.907V127.379L97.2451 138.708V151.238ZM98 137.32L43.6034 126.459L54.8182 124.219V125.021C54.8182 125.38 55.0718 125.689 55.4251 125.76L97.852 134.23C97.9019 134.241 97.9502 134.227 98 134.227C98.0498 134.227 98.0981 134.241 98.148 134.23L140.572 125.76C140.925 125.689 141.179 125.38 141.179 125.021V124.219L152.397 126.459L98 137.32ZM155.49 139.907L98.7549 151.238V138.708L155.49 127.379V139.907Z" fill="black"/>
</svg>
