<svg width="194" height="195" viewBox="0 0 194 195" fill="none" xmlns="http://www.w3.org/2000/svg">
<rect y="0.898438" width="194" height="194" rx="97" fill="#FFDD55"/>
<path d="M141.861 106.311L138.265 98.7757L142.26 89.9469C143.567 86.9329 143.255 83.4213 141.435 80.7912C141.378 80.7059 141.321 80.6206 141.264 80.5495L138.151 76.2986L135.037 72.0619C133.601 70.1142 133.104 67.6404 133.658 65.2804L134.881 60.1197C134.966 59.7642 134.767 59.4088 134.426 59.2951C134.298 58.9539 133.943 58.769 133.587 58.8543L128.441 60.1197C126.081 60.7026 123.607 60.2192 121.645 58.7975L117.366 55.7124L113.1 52.6273C113.015 52.5704 112.93 52.5136 112.845 52.4567C110.2 50.6654 106.689 50.381 103.689 51.7174L95.3861 55.3996L87.3819 51.9307C84.3679 50.6227 80.8563 50.9355 78.2262 52.7553C78.1409 52.8121 78.0556 52.869 77.9845 52.9259L73.7478 56.0394L69.497 59.1529C67.5492 60.5888 65.0755 61.0864 62.7155 60.532L57.5547 59.3093C57.1993 59.224 56.8438 59.423 56.7301 59.7642C56.3889 59.8922 56.2041 60.2476 56.2894 60.603L57.5547 65.7496C58.1376 68.1096 57.6542 70.5834 56.2325 72.5453L53.1474 76.8246L50.0623 81.0897C50.0055 81.175 49.9486 81.2603 49.8917 81.3314C48.1004 83.9758 47.8161 87.4874 49.1525 90.4871L52.6498 98.406L48.7544 106.851V106.865C47.4464 109.879 47.7592 113.391 49.579 116.021C49.6358 116.106 49.6927 116.191 49.7496 116.263L52.8631 120.513L55.9766 124.764C57.4125 126.712 57.9101 129.186 57.3557 131.546L56.133 136.707C56.0477 137.062 56.2467 137.417 56.5879 137.531C56.7159 137.872 57.0713 138.057 57.4267 137.972L62.5733 136.707C64.9333 136.124 67.4071 136.607 69.369 138.029L73.6483 141.114L77.9134 144.185C77.9987 144.242 78.084 144.298 78.1693 144.355C79.719 145.393 81.553 145.933 83.4012 145.933C84.7376 145.933 86.074 145.663 87.3393 145.109L95.7415 141.299L103.646 144.896C104.883 145.436 106.191 145.692 107.499 145.692C109.39 145.692 111.238 145.151 112.802 144.071C112.887 144.014 112.973 143.957 113.044 143.9L117.294 140.787L121.545 137.673C123.493 136.237 125.967 135.74 128.327 136.294L133.488 137.517C133.843 137.602 134.198 137.403 134.312 137.062C134.653 136.934 134.838 136.579 134.753 136.223L133.488 131.077C132.905 128.717 133.388 126.243 134.81 124.281L137.895 120.002L140.98 115.737C141.037 115.651 141.094 115.566 141.151 115.481C142.942 112.836 143.226 109.325 141.89 106.325C141.861 106.325 141.861 106.311 141.861 106.311ZM104.286 53.0112C106.845 51.8738 109.831 52.1155 112.077 53.6367C112.148 53.6794 112.219 53.7362 112.29 53.7789L116.569 56.864L120.835 59.9491C122.498 61.1433 124.474 61.7688 126.479 61.7688C127.246 61.7688 128.028 61.6693 128.796 61.4845L133.374 60.3613L132.279 64.9392C131.625 67.6973 132.208 70.5976 133.886 72.9007L136.999 77.1516L140.113 81.4025C140.17 81.4736 140.212 81.5447 140.269 81.6157C141.805 83.8478 142.075 86.8334 140.966 89.3924L137.468 97.1123L135.862 93.7144C134.852 84.5018 130.772 75.9716 124.09 69.3607C117.849 63.1763 109.959 59.2524 101.414 58.0155C101.371 57.9871 101.329 57.9587 101.272 57.9302L97.1774 56.1531L104.286 53.0112ZM136.089 97.5246L136.701 98.8041L136.047 100.24C136.089 99.5149 136.104 98.7757 136.104 98.0364C136.104 97.8516 136.089 97.6809 136.089 97.5246ZM134.682 98.0364C134.696 100.169 134.525 102.273 134.198 104.349C134.184 104.377 134.184 104.42 134.184 104.448C132.962 112.154 129.464 119.305 124.019 125.077V119.589V71.3226C129.919 77.5781 133.545 85.4543 134.454 93.9277C134.454 93.9419 134.454 93.9419 134.454 93.9561C134.597 95.3067 134.668 96.6715 134.682 98.0364ZM68.1037 125.518V120.3H122.597V125.518H68.1037ZM122.128 126.94C116.555 132.114 109.731 135.498 102.352 136.792C102.296 136.792 102.239 136.806 102.196 136.82C100.007 137.19 97.7603 137.389 95.4998 137.389C93.481 137.389 91.4906 137.233 89.5429 136.934C89.5145 136.934 89.4861 136.92 89.4576 136.92C81.7662 135.74 74.6435 132.299 68.8572 126.94H122.128ZM109.248 96.4298L122.086 118.878H68.6297L81.4392 96.5436C81.3681 97.1123 81.3397 97.6809 81.3397 98.2638C81.3397 105.998 87.6236 112.282 95.3577 112.282C103.092 112.282 109.376 105.998 109.376 98.2638C109.376 97.6525 109.333 97.0412 109.248 96.4298ZM95.3577 110.874C88.4056 110.874 82.7614 105.216 82.7614 98.2781C82.7614 91.3402 88.4198 85.6818 95.3577 85.6818C102.296 85.6818 107.954 91.3402 107.954 98.2781C107.954 105.216 102.296 110.874 95.3577 110.874ZM95.3577 84.2459C92.1588 84.2459 89.2017 85.3264 86.8417 87.1462L95.4145 72.2041L104.016 87.2457C101.613 85.369 98.6134 84.2459 95.3577 84.2459ZM94.4336 71.0241L68.1037 116.917V71.0241H94.4336ZM68.7008 69.6024C75.9941 62.764 85.4484 59.0107 95.4998 59.0107C105.537 59.0107 115.006 62.764 122.299 69.6024H68.7008ZM96.3671 71.0241H122.597V116.917L96.3671 71.0241ZM95.4145 56.9493L96.9642 57.6175C96.4808 57.6033 95.9832 57.589 95.4998 57.589C94.9596 57.589 94.4193 57.6033 93.8791 57.6175L95.4145 56.9493ZM50.4604 89.9185C49.3231 87.3594 49.5647 84.3738 51.086 82.1276C51.1286 82.0565 51.1855 81.9854 51.2281 81.9143L54.3132 77.635L57.3983 73.3699C59.0617 71.0667 59.6162 68.1665 58.948 65.3942L57.8248 60.8163L62.4027 61.911C63.142 62.0816 63.8955 62.1811 64.649 62.1811C66.682 62.1811 68.6866 61.5414 70.3642 60.3045L74.6009 57.191L78.8517 54.0774C78.9228 54.0206 78.9939 53.9779 79.065 53.9211C81.2971 52.3856 84.2826 52.1155 86.8559 53.2386L93.6516 56.1816L89.9126 57.8449C89.813 57.8876 89.742 57.9445 89.6709 58.0155C80.9843 59.2524 72.9801 63.2616 66.682 69.6166C60.3554 75.9858 56.4173 84.0895 55.2658 92.833L53.4886 96.7L50.4604 89.9185ZM66.682 71.6354V124.764C60.0142 117.556 56.3462 108.244 56.3036 98.3634C56.2609 88.3688 59.9431 78.9287 66.682 71.6354ZM54.9245 100.013L54.2137 98.4202L54.8961 96.9417C54.8819 97.425 54.8677 97.8942 54.8677 98.3776C54.8819 98.9178 54.9103 99.4581 54.9245 100.013ZM86.7422 143.801C84.1831 144.938 81.1975 144.697 78.9513 143.175C78.8802 143.133 78.8091 143.076 78.738 143.033L74.4729 139.948L70.2078 136.877C67.9047 135.214 65.0044 134.659 62.2321 135.328L57.6542 136.451L58.7489 131.873C59.4029 129.115 58.82 126.214 57.1424 123.911L54.0289 119.66L50.9154 115.41C50.8585 115.338 50.8158 115.267 50.759 115.196C49.2235 112.964 48.9676 109.979 50.0623 107.42L53.4318 100.126L55.28 104.306C55.3084 104.363 55.3368 104.406 55.3653 104.448C56.6732 112.978 60.6682 120.84 66.9095 127.025C73.0512 133.11 80.7995 137.005 89.1875 138.313L94.0213 140.503L86.7422 143.801ZM93.5805 138.754C94.2203 138.782 94.8459 138.796 95.4856 138.796C96.3102 138.796 97.1206 138.768 97.9309 138.725L95.7131 139.735L93.5805 138.754ZM139.942 114.684C139.899 114.756 139.843 114.827 139.8 114.898L136.715 119.177L133.63 123.442C131.966 125.745 131.412 128.646 132.08 131.418L133.203 135.996L128.625 134.901C125.867 134.247 122.967 134.83 120.664 136.508L116.413 139.621L112.162 142.735C112.091 142.791 112.02 142.834 111.949 142.891C109.717 144.426 106.731 144.697 104.172 143.588L97.4049 140.517L102.523 138.199C110.74 136.763 118.29 132.84 124.289 126.797C130.331 120.698 134.213 113.021 135.549 104.718L137.468 100.482L140.539 106.922C141.705 109.467 141.463 112.438 139.942 114.684Z" fill="black"/>
<path d="M145.743 107.005L141.634 98.389L146.169 89.2475C146.169 89.2333 146.184 89.2191 146.184 89.2191C147.591 85.9634 147.25 82.1817 145.302 79.3383C145.245 79.253 145.174 79.1535 145.117 79.0682L141.734 74.4619L138.35 69.8556C136.786 67.723 136.232 65.0218 136.843 62.4485L138.179 56.847C138.265 56.4774 137.227 55.4537 136.857 55.539L131.27 56.9181C128.697 57.5579 125.995 57.0318 123.849 55.4822L119.214 52.1412L114.579 48.786C114.494 48.7291 114.394 48.658 114.309 48.6012C111.452 46.6676 107.67 46.3691 104.428 47.805L95.3437 51.7858L86.6855 48.0325C83.444 46.625 79.6481 46.9662 76.8047 48.9139C76.7194 48.9708 76.6199 49.0419 76.5346 49.0987L71.9425 52.4824L67.3362 55.866C65.2036 57.4299 62.5024 57.9844 59.9291 57.373L54.3277 56.0366C53.958 55.9513 52.9344 56.9892 53.0197 57.3588L54.3987 62.9461C55.0385 65.5194 54.5125 68.2206 52.9628 70.3674L49.6218 75.0021L46.2666 79.6368C46.2098 79.7221 46.1387 79.8217 46.0818 79.907C44.1483 82.7646 43.8497 86.5463 45.2856 89.7878L49.0105 98.19L44.8591 107.602C43.4517 110.857 43.7929 114.639 45.7406 117.482C45.7975 117.568 45.8685 117.667 45.9254 117.753L49.3091 122.359L52.6927 126.965C54.2566 129.098 54.811 131.799 54.1997 134.372L52.8633 139.974C52.778 140.343 53.8158 141.367 54.1855 141.282L59.7728 139.903C62.346 139.263 65.0473 139.789 67.194 141.339L71.8288 144.68L76.4635 148.021C76.5488 148.077 76.6483 148.149 76.7336 148.205C78.397 149.329 80.3732 149.897 82.3778 149.897C83.8137 149.897 85.2638 149.599 86.6144 149.002L95.3721 145.049L104.357 148.774C105.679 149.343 107.101 149.627 108.509 149.627C110.542 149.627 112.546 149.03 114.224 147.878C114.309 147.822 114.409 147.75 114.494 147.694L119.1 144.31L123.707 140.926C125.839 139.362 128.54 138.808 131.114 139.419L136.715 140.756C137.085 140.841 138.108 139.803 138.023 139.433L136.644 133.846C136.004 131.273 136.53 128.572 138.08 126.425L141.421 121.79L144.762 117.155C144.833 117.07 144.89 116.971 144.947 116.885C146.88 114.028 147.179 110.246 145.743 107.005ZM143.767 116.103C143.71 116.174 143.667 116.26 143.61 116.331L140.269 120.966L136.928 125.6C135.137 128.088 134.526 131.216 135.265 134.202L136.516 139.263L131.455 138.054C128.469 137.344 125.342 137.983 122.868 139.789L118.261 143.173L113.655 146.556C113.584 146.613 113.499 146.67 113.428 146.727C110.982 148.404 107.727 148.689 104.912 147.48L95.6422 143.628H95.628C95.5996 143.613 95.5711 143.613 95.5427 143.599C95.5285 143.599 95.5 143.585 95.4858 143.585C95.4574 143.585 95.429 143.585 95.4147 143.585C95.4005 143.585 95.3721 143.585 95.3579 143.585C95.3294 143.585 95.3152 143.585 95.2868 143.599C95.2584 143.599 95.2441 143.599 95.2157 143.613C95.2015 143.613 95.1731 143.628 95.1588 143.628C95.1304 143.642 95.102 143.642 95.0878 143.656H95.0735L86.0458 147.736C83.2592 148.973 79.9893 148.717 77.5298 147.054C77.4587 146.997 77.3734 146.954 77.3023 146.897L72.6676 143.556L68.0328 140.215C65.5449 138.424 62.4171 137.813 59.4316 138.552L54.3703 139.803L55.5788 134.742C56.2896 131.756 55.6498 128.629 53.8443 126.155L50.4464 121.506L47.0628 116.9C47.0059 116.828 46.949 116.743 46.9064 116.672C45.2288 114.227 44.9444 110.971 46.1529 108.17L50.4322 98.4743V98.4601C50.4464 98.4317 50.4464 98.4175 50.4606 98.389C50.4606 98.3748 50.4749 98.3464 50.4749 98.3322C50.4749 98.3037 50.4748 98.2895 50.4891 98.2611C50.4891 98.2327 50.4891 98.2184 50.4891 98.19C50.4891 98.1616 50.4891 98.1474 50.4891 98.1189C50.4891 98.0905 50.4891 98.0763 50.4749 98.0478C50.4749 98.0336 50.4606 98.0052 50.4606 97.991C50.4464 97.9625 50.4464 97.9341 50.4322 97.9199V97.9057L46.5794 89.2191C45.3425 86.4326 45.5984 83.1627 47.2618 80.7031C47.3187 80.632 47.3613 80.5467 47.4182 80.4756L50.7592 75.8409L54.1002 71.2062C55.8915 68.7182 56.5029 65.5905 55.7636 62.6049L54.5125 57.5436L59.5737 58.7521C60.3699 58.9369 61.1802 59.0364 61.9906 59.0364C64.18 59.0364 66.341 58.3398 68.1608 57.0176L72.7671 53.634L77.3734 50.2503C77.4445 50.1935 77.5298 50.1366 77.6009 50.0797C80.0462 48.4021 83.3019 48.1178 86.1026 49.3262L95.0451 53.1932H95.0593C95.0878 53.2075 95.1162 53.2075 95.1446 53.2217C95.1588 53.2217 95.1731 53.2359 95.2015 53.2359C95.2299 53.2359 95.2584 53.2359 95.2726 53.2501C95.2868 53.2501 95.3152 53.2501 95.3294 53.2501C95.3579 53.2501 95.3721 53.2501 95.4005 53.2501C95.429 53.2501 95.4432 53.2501 95.4716 53.2359C95.4858 53.2359 95.5143 53.2217 95.5285 53.2217C95.5569 53.2075 95.5854 53.2075 95.5996 53.1932H95.6138L104.983 49.0845C107.769 47.8477 111.039 48.1036 113.499 49.7669C113.57 49.8238 113.655 49.8665 113.726 49.9233L118.361 53.2643L122.996 56.6053C124.787 57.8991 126.92 58.5815 129.095 58.5815C129.934 58.5815 130.772 58.482 131.597 58.2829L136.658 57.0318L135.45 62.0931C134.739 65.0786 135.379 68.2064 137.184 70.6801L140.568 75.2864L143.952 79.8927C144.008 79.9638 144.065 80.0491 144.122 80.1202C145.8 82.5513 146.084 85.807 144.876 88.6078L140.198 98.0478C140.198 98.0621 140.184 98.0763 140.184 98.0905C140.17 98.1189 140.17 98.1331 140.156 98.1616C140.156 98.19 140.141 98.2042 140.141 98.2327C140.141 98.2611 140.127 98.2753 140.127 98.3037C140.127 98.3322 140.127 98.3464 140.127 98.3748C140.127 98.4033 140.127 98.4175 140.127 98.4459C140.127 98.4743 140.127 98.4886 140.141 98.517C140.141 98.5454 140.156 98.5596 140.156 98.5881C140.156 98.6165 140.17 98.6307 140.184 98.6592C140.184 98.6734 140.198 98.6876 140.198 98.7018L144.449 107.616C145.686 110.388 145.43 113.658 143.767 116.103Z" fill="black"/>
<path d="M62.0905 66.5169C62.7186 66.5169 63.2278 66.0077 63.2278 65.3795C63.2278 64.7514 62.7186 64.2422 62.0905 64.2422C61.4623 64.2422 60.9531 64.7514 60.9531 65.3795C60.9531 66.0077 61.4623 66.5169 62.0905 66.5169Z" fill="black"/>
<path d="M128.412 66.5169C129.04 66.5169 129.549 66.0077 129.549 65.3795C129.549 64.7514 129.04 64.2422 128.412 64.2422C127.784 64.2422 127.274 64.7514 127.274 65.3795C127.274 66.0077 127.784 66.5169 128.412 66.5169Z" fill="black"/>
<path d="M128.412 98.6263C129.04 98.6263 129.549 98.1171 129.549 97.4889C129.549 96.8608 129.04 96.3516 128.412 96.3516C127.784 96.3516 127.274 96.8608 127.274 97.4889C127.274 98.1171 127.784 98.6263 128.412 98.6263Z" fill="black"/>
<path d="M62.0905 98.6263C62.7186 98.6263 63.2278 98.1171 63.2278 97.4889C63.2278 96.8608 62.7186 96.3516 62.0905 96.3516C61.4623 96.3516 60.9531 96.8608 60.9531 97.4889C60.9531 98.1171 61.4623 98.6263 62.0905 98.6263Z" fill="black"/>
<path d="M95.5143 66.5169C96.1425 66.5169 96.6517 66.0077 96.6517 65.3795C96.6517 64.7514 96.1425 64.2422 95.5143 64.2422C94.8862 64.2422 94.377 64.7514 94.377 65.3795C94.377 66.0077 94.8862 66.5169 95.5143 66.5169Z" fill="black"/>
<path d="M95.5143 132.579C96.1425 132.579 96.6517 132.07 96.6517 131.442C96.6517 130.814 96.1425 130.305 95.5143 130.305C94.8862 130.305 94.377 130.814 94.377 131.442C94.377 132.07 94.8862 132.579 95.5143 132.579Z" fill="black"/>
<path d="M62.0905 132.579C62.7186 132.579 63.2278 132.07 63.2278 131.442C63.2278 130.814 62.7186 130.305 62.0905 130.305C61.4623 130.305 60.9531 130.814 60.9531 131.442C60.9531 132.07 61.4623 132.579 62.0905 132.579Z" fill="black"/>
<path d="M128.412 132.579C129.04 132.579 129.549 132.07 129.549 131.442C129.549 130.814 129.04 130.305 128.412 130.305C127.784 130.305 127.274 130.814 127.274 131.442C127.274 132.07 127.784 132.579 128.412 132.579Z" fill="black"/>
<path d="M95.5143 99.4544C96.1425 99.4544 96.6517 98.9452 96.6517 98.317C96.6517 97.6889 96.1425 97.1797 95.5143 97.1797C94.8862 97.1797 94.377 97.6889 94.377 98.317C94.377 98.9452 94.8862 99.4544 95.5143 99.4544Z" fill="black"/>
<path d="M99.8084 99.0845C100.248 99.0845 100.605 98.728 100.605 98.2883C100.605 97.8486 100.248 97.4922 99.8084 97.4922C99.3687 97.4922 99.0122 97.8486 99.0122 98.2883C99.0122 98.728 99.3687 99.0845 99.8084 99.0845Z" fill="black"/>
<path d="M95.4719 94.6236C95.9116 94.6236 96.2681 94.2671 96.2681 93.8274C96.2681 93.3877 95.9116 93.0312 95.4719 93.0312C95.0322 93.0312 94.6758 93.3877 94.6758 93.8274C94.6758 94.2671 95.0322 94.6236 95.4719 94.6236Z" fill="black"/>
<path d="M90.9636 99.0845C91.4033 99.0845 91.7598 98.728 91.7598 98.2883C91.7598 97.8486 91.4033 97.4922 90.9636 97.4922C90.5239 97.4922 90.1675 97.8486 90.1675 98.2883C90.1675 98.728 90.5239 99.0845 90.9636 99.0845Z" fill="black"/>
<path d="M95.4719 103.413C95.9116 103.413 96.2681 103.056 96.2681 102.616C96.2681 102.177 95.9116 101.82 95.4719 101.82C95.0322 101.82 94.6758 102.177 94.6758 102.616C94.6758 103.056 95.0322 103.413 95.4719 103.413Z" fill="black"/>
<path d="M98.4583 102.186C98.898 102.186 99.2544 101.83 99.2544 101.39C99.2544 100.95 98.898 100.594 98.4583 100.594C98.0186 100.594 97.6621 100.95 97.6621 101.39C97.6621 101.83 98.0186 102.186 98.4583 102.186Z" fill="black"/>
<path d="M98.5554 95.9751C98.9951 95.9751 99.3516 95.6187 99.3516 95.179C99.3516 94.7393 98.9951 94.3828 98.5554 94.3828C98.1157 94.3828 97.7593 94.7393 97.7593 95.179C97.7593 95.6187 98.1157 95.9751 98.5554 95.9751Z" fill="black"/>
<path d="M92.2161 95.9439C92.6558 95.9439 93.0122 95.5874 93.0122 95.1477C93.0122 94.708 92.6558 94.3516 92.2161 94.3516C91.7764 94.3516 91.4199 94.708 91.4199 95.1477C91.4199 95.5874 91.7764 95.9439 92.2161 95.9439Z" fill="black"/>
<path d="M92.3435 102.186C92.7832 102.186 93.1397 101.83 93.1397 101.39C93.1397 100.95 92.7832 100.594 92.3435 100.594C91.9038 100.594 91.5474 100.95 91.5474 101.39C91.5474 101.83 91.9038 102.186 92.3435 102.186Z" fill="black"/>
<path d="M102.58 103.028C103.373 103.028 104.016 102.385 104.016 101.592C104.016 100.799 103.373 100.156 102.58 100.156C101.787 100.156 101.144 100.799 101.144 101.592C101.144 102.385 101.787 103.028 102.58 103.028Z" fill="black"/>
<path d="M98.7841 92.5281C99.5771 92.5281 100.22 91.8852 100.22 91.0922C100.22 90.2991 99.5771 89.6562 98.7841 89.6562C97.991 89.6562 97.3481 90.2991 97.3481 91.0922C97.3481 91.8852 97.991 92.5281 98.7841 92.5281Z" fill="black"/>
<path d="M88.0917 96.4968C88.8847 96.4968 89.5276 95.8539 89.5276 95.0609C89.5276 94.2679 88.8847 93.625 88.0917 93.625C87.2986 93.625 86.6558 94.2679 86.6558 95.0609C86.6558 95.8539 87.2986 96.4968 88.0917 96.4968Z" fill="black"/>
<path d="M92.286 106.919C93.079 106.919 93.7219 106.276 93.7219 105.483C93.7219 104.69 93.079 104.047 92.286 104.047C91.493 104.047 90.8501 104.69 90.8501 105.483C90.8501 106.276 91.493 106.919 92.286 106.919Z" fill="black"/>
<path d="M98.0887 107.122C98.8818 107.122 99.5247 106.479 99.5247 105.686C99.5247 104.893 98.8818 104.25 98.0887 104.25C97.2957 104.25 96.6528 104.893 96.6528 105.686C96.6528 106.479 97.2957 107.122 98.0887 107.122Z" fill="black"/>
<path d="M102.822 97.0125C103.615 97.0125 104.258 96.3696 104.258 95.5765C104.258 94.7835 103.615 94.1406 102.822 94.1406C102.029 94.1406 101.386 94.7835 101.386 95.5765C101.386 96.3696 102.029 97.0125 102.822 97.0125Z" fill="black"/>
<path d="M92.4554 92.2781C93.2485 92.2781 93.8914 91.6352 93.8914 90.8422C93.8914 90.0491 93.2485 89.4062 92.4554 89.4062C91.6624 89.4062 91.0195 90.0491 91.0195 90.8422C91.0195 91.6352 91.6624 92.2781 92.4554 92.2781Z" fill="black"/>
<path d="M88.0638 102.598C88.8569 102.598 89.4998 101.956 89.4998 101.162C89.4998 100.369 88.8569 99.7266 88.0638 99.7266C87.2708 99.7266 86.6279 100.369 86.6279 101.162C86.6279 101.956 87.2708 102.598 88.0638 102.598Z" fill="black"/>
</svg>
