<svg width="197" height="195" viewBox="0 0 197 195" fill="none" xmlns="http://www.w3.org/2000/svg">
<rect y="0.898438" width="197" height="194" rx="97" fill="#FFDD55"/>
<path d="M107.817 79.862C105.839 80.4247 104.483 81.7712 104.808 82.8688C105.124 83.9663 106.981 84.3906 108.969 83.8187C110.947 83.2561 112.303 81.9096 111.978 80.812C111.662 79.7237 109.795 79.2902 107.817 79.862Z" fill="black"/>
<path d="M92.1622 79.862C90.1839 79.2902 88.3171 79.7237 88.0013 80.812C87.6762 81.9096 89.0322 83.2561 91.0105 83.8187C92.9981 84.3906 94.8556 83.9663 95.1714 82.8688C95.4965 81.7712 94.1405 80.4247 92.1622 79.862Z" fill="black"/>
<path d="M157.95 149.271C157.96 149.227 157.972 149.186 157.976 149.14C157.979 149.113 157.993 149.088 157.993 149.059C157.993 149.006 157.97 148.96 157.962 148.909C157.957 148.879 157.965 148.85 157.957 148.82C157.945 148.779 157.931 148.742 157.919 148.701V148.7C157.426 146.947 156.587 145.617 155.422 144.725C155.866 143.828 156.118 142.841 156.149 141.821C156.275 137.75 153.641 134.124 149.797 132.908C150.062 129.811 149.066 126.909 146.989 124.99C144.772 123.222 142.379 121.723 139.891 120.539C139.88 120.533 139.867 120.529 139.856 120.522C139.839 120.515 139.823 120.507 139.807 120.5C138.617 119.917 137.381 119.401 136.033 118.929C135.663 118.796 135.281 118.664 134.907 118.543C134.896 118.539 134.884 118.537 134.872 118.533C134.869 118.532 134.866 118.531 134.862 118.53C132.737 117.833 130.423 117.294 127.991 116.932C127.238 116.812 126.45 116.711 125.596 116.625V114.642C126.013 114.743 126.443 114.799 126.887 114.799C129.348 114.799 131.394 113.96 132.967 112.307C136.784 108.293 136.405 100.876 136.387 100.562C136.383 100.502 136.358 100.451 136.344 100.395C136.331 100.343 136.327 100.287 136.304 100.238C136.278 100.178 136.234 100.129 136.195 100.077C136.164 100.036 136.142 99.9902 136.105 99.9543C136.054 99.9054 135.99 99.8731 135.928 99.8362C135.889 99.8132 135.857 99.7809 135.814 99.7634C135.705 99.7182 135.586 99.6923 135.46 99.6923C135.452 99.6923 135.443 99.6923 135.434 99.6923C135.381 99.6942 135.334 99.7108 135.284 99.72C135.242 99.7283 135.198 99.7292 135.158 99.7431C135.102 99.7624 135.053 99.7938 135.002 99.8233C134.972 99.8408 134.936 99.8528 134.909 99.874C134.858 99.9118 134.817 99.9598 134.775 100.007C134.754 100.03 134.728 100.047 134.71 100.072C134.678 100.116 134.659 100.167 134.635 100.216C134.617 100.252 134.592 100.284 134.579 100.322C134.577 100.327 134.576 100.331 134.575 100.336C134.572 100.347 134.567 100.357 134.564 100.368C134.339 101.088 133.461 103.082 132.114 103.669C131.512 103.932 130.863 103.89 130.128 103.544C130.037 103.501 129.762 103.371 129.564 102.813C128.289 99.2377 132.406 87.9383 137.05 78.3257C137.165 78.0869 137.173 77.8102 137.069 77.5658C136.965 77.3223 136.76 77.1342 136.506 77.0512C135.435 76.6989 133.801 76.6998 132.298 77.0576C133.685 73.8316 134.061 70.2745 133.415 66.449C133.365 66.1539 133.174 65.9012 132.903 65.7712C132.631 65.6421 132.313 65.6504 132.049 65.7952C129.036 67.4534 126.715 69.6917 125.085 72.4556C125.085 72.4529 125.083 72.451 125.083 72.4482C125.671 67.3731 127.295 63.2571 129.919 60.2174C130.828 59.1568 131.875 58.2069 133.034 57.3935C133.327 57.1878 133.476 56.8328 133.413 56.4814C133.352 56.1309 133.092 55.846 132.746 55.751C128.922 54.7005 125.242 55.3433 121.791 57.6628C121.541 54.2016 120.372 50.7515 118.225 47.1713C117.531 45.9991 116.688 44.7605 115.651 43.3873C115.456 43.1291 115.137 42.9917 114.815 43.023C114.491 43.0562 114.208 43.2545 114.068 43.5469C113.019 45.7501 112.257 48.4154 111.766 51.4404C111.243 51.3039 110.723 51.1775 110.209 51.0604V46.5045C110.209 45.4283 109.663 44.4212 108.754 43.8143C108.629 43.7304 108.491 43.6428 108.344 43.5533V41.6166C108.344 40.3531 107.593 39.1985 106.439 38.6765C106 38.4745 105.518 38.3113 105.023 38.1656C104.766 36.3552 103.518 33.7969 99.9889 33.7969C96.4598 33.7969 95.2126 36.3561 94.9609 38.1674C94.4631 38.3131 93.983 38.4773 93.5502 38.6756C92.3902 39.1994 91.6398 40.3541 91.6398 41.6175V43.5542C91.4931 43.6437 91.3565 43.7295 91.233 43.8125C90.3192 44.4221 89.7731 45.4292 89.7731 46.5054V51.066C89.2576 51.1803 88.7376 51.3057 88.2101 51.4432C87.7271 48.4256 86.9665 45.7593 85.9133 43.5478C85.774 43.2554 85.4908 43.0572 85.1667 43.024C84.8416 42.9917 84.5249 43.1291 84.3308 43.3882C83.2934 44.7615 82.4511 46 81.7583 47.1676C79.6083 50.7515 78.44 54.2034 78.1902 57.6646C74.7381 55.3443 71.0604 54.7014 67.235 55.7519C66.8886 55.8469 66.6295 56.1319 66.5673 56.4823C66.506 56.8337 66.6537 57.1887 66.9462 57.3944C68.1052 58.2069 69.1538 59.1577 70.0639 60.2193C72.6782 63.2581 74.2998 67.363 74.8914 72.415C73.2726 69.6695 70.9759 67.47 67.9316 65.7952C67.6678 65.6504 67.3502 65.6421 67.0781 65.7712C66.8069 65.9012 66.6156 66.1548 66.5654 66.449C65.92 70.2745 66.2961 73.8316 67.6827 77.0576C66.1819 76.6998 64.5473 76.698 63.4747 77.0512C63.2211 77.1342 63.0159 77.3223 62.9119 77.5658C62.8079 77.8102 62.8153 78.0859 62.9304 78.3257C67.5749 87.9383 71.6919 99.2377 70.4168 102.813C70.2181 103.37 69.9432 103.5 69.8531 103.544C69.1166 103.89 68.4665 103.929 67.8666 103.669C66.5199 103.083 65.6414 101.088 65.4166 100.368C65.4138 100.357 65.4092 100.347 65.4055 100.336C65.4036 100.331 65.4027 100.327 65.4018 100.322C65.3888 100.284 65.3637 100.252 65.346 100.216C65.3219 100.167 65.3024 100.116 65.2708 100.072C65.2522 100.047 65.2262 100.03 65.2058 100.007C65.164 99.9598 65.1231 99.9118 65.0721 99.874C65.0433 99.8528 65.0089 99.8418 64.9783 99.8233C64.9272 99.7938 64.8789 99.7624 64.8222 99.7431C64.7823 99.7292 64.7387 99.7283 64.6969 99.72C64.6467 99.7099 64.5993 99.6933 64.5464 99.6923C64.5371 99.6923 64.5278 99.6923 64.5204 99.6923C64.395 99.6923 64.2762 99.7182 64.1666 99.7634C64.1238 99.7809 64.0913 99.8132 64.0523 99.8362C63.991 99.8731 63.927 99.9054 63.8759 99.9543C63.8397 99.9893 63.8164 100.035 63.7867 100.076C63.7477 100.129 63.7041 100.177 63.6771 100.237C63.6548 100.286 63.6502 100.341 63.6372 100.393C63.6233 100.45 63.5973 100.501 63.5945 100.561C63.5759 100.875 63.197 108.293 67.0149 112.306C68.5872 113.96 70.6332 114.798 73.0943 114.798C73.5382 114.798 73.9682 114.742 74.3852 114.641V116.624C73.5326 116.71 72.7451 116.811 72.0021 116.929C69.1612 117.347 66.4503 118.02 63.9548 118.928C63.953 118.929 63.9511 118.929 63.9492 118.929C63.9335 118.935 63.9186 118.941 63.9028 118.947C62.5645 119.417 61.3396 119.928 60.1722 120.5C60.1629 120.504 60.1554 120.508 60.1471 120.511C60.1322 120.519 60.1155 120.525 60.0997 120.532C57.6015 121.722 55.2082 123.222 52.9403 125.032C50.8581 126.953 49.127 130.918 50.8181 135.919C48.8818 137.506 47.5324 139.741 47.0271 142.2C44.5057 143.376 42.8173 145.605 42.0269 148.862C42.0176 148.898 42.0269 148.933 42.0232 148.969C42.0176 149.006 42 149.039 42 149.078C42 149.104 42.013 149.127 42.0149 149.152C42.0204 149.216 42.0344 149.274 42.052 149.334C42.0687 149.39 42.0854 149.444 42.1124 149.496C42.1393 149.548 42.1737 149.593 42.2099 149.639C42.247 149.686 42.2833 149.73 42.3288 149.769C42.3724 149.807 42.4207 149.836 42.4709 149.864C42.5257 149.896 42.5804 149.923 42.6417 149.944C42.6659 149.952 42.6845 149.97 42.7105 149.975C42.7838 149.992 42.8553 150 42.9278 150H63.5341C63.535 150 63.536 150 63.5369 150C63.5378 150 63.5388 150 63.5397 150H78.4149L117.206 149.991C117.206 149.991 117.206 149.991 117.207 149.991L125.465 149.989C125.468 149.989 125.471 149.991 125.475 149.991C125.479 149.991 125.483 149.989 125.488 149.989L157.056 149.982C157.057 149.982 157.058 149.982 157.058 149.982C157.059 149.982 157.06 149.982 157.062 149.982H157.069C157.073 149.982 157.077 149.979 157.081 149.979C157.153 149.977 157.227 149.97 157.299 149.95C157.319 149.945 157.332 149.931 157.351 149.924C157.426 149.9 157.491 149.864 157.556 149.823C157.592 149.801 157.626 149.781 157.657 149.755C157.718 149.704 157.766 149.644 157.812 149.579C157.834 149.546 157.858 149.518 157.876 149.484C157.911 149.417 157.931 149.346 157.95 149.271ZM155.76 148.137L151.781 148.138C152.783 147.728 153.678 147.097 154.395 146.269C154.959 146.73 155.414 147.346 155.76 148.137ZM154.291 141.763C154.261 142.75 153.959 143.696 153.411 144.507C152.387 146.068 150.627 146.934 148.699 146.829C146.373 146.693 144.537 144.715 144.605 142.418C144.629 141.589 144.975 140.83 145.58 140.28C146.189 139.725 146.999 139.446 147.831 139.495C148.329 139.522 148.782 139.135 148.811 138.627C148.841 138.119 148.449 137.682 147.938 137.653C146.588 137.581 145.307 138.026 144.325 138.921C143.347 139.811 142.788 141.035 142.749 142.365C142.674 144.892 144.212 147.145 146.44 148.14L140.538 148.141C142.212 145.537 142.012 142.142 139.925 139.798C139.597 139.44 139.251 139.132 138.899 138.867C140.309 135.925 143.552 134.158 147.401 134.331C147.845 134.359 148.231 134.411 148.593 134.495C151.946 135.234 154.396 138.359 154.291 141.763ZM132.402 148.141C131.31 147.111 131.176 145.444 132.145 144.219C132.958 143.204 134.464 142.995 135.501 143.753C135.914 144.055 136.495 143.966 136.799 143.556C137.103 143.146 137.014 142.569 136.602 142.267C134.767 140.928 132.117 141.289 130.686 143.077C129.479 144.603 129.334 146.553 130.125 148.142H127.701C129.402 145.916 129.924 142.99 129.01 140.297C130.389 139.391 132.1 138.894 133.711 138.942C133.827 138.942 133.935 138.95 134.102 138.958C134.961 139.024 135.779 139.24 136.53 139.597C136.768 139.711 137.007 139.832 137.257 139.989C137.407 140.076 137.557 140.169 137.698 140.269C137.985 140.477 138.272 140.735 138.541 141.028C140.211 142.903 140.269 145.602 138.691 147.584C138.509 147.807 138.324 147.985 138.14 148.14L132.402 148.141ZM117.558 148.144C117.237 147.864 116.949 147.574 116.71 147.257C116.054 146.376 115.794 145.309 115.977 144.254C116.163 143.185 116.781 142.251 117.725 141.62C119.189 140.62 121.235 140.96 122.282 142.375C122.583 142.784 123.167 142.874 123.579 142.572C123.993 142.271 124.082 141.693 123.778 141.283C122.144 139.073 118.958 138.542 116.679 140.095C115.318 141.004 114.418 142.37 114.145 143.94C113.89 145.412 114.222 146.891 115.075 148.144L109.72 148.144C112.016 146.48 113.529 143.837 113.622 140.797C113.661 139.498 113.47 138.191 113.072 136.897C116.006 135.064 119.886 134.854 123.068 136.409C123.677 136.696 124.26 137.062 124.801 137.499C124.824 137.517 124.847 137.534 124.871 137.55C125.007 137.666 125.139 137.783 125.275 137.91C125.63 138.238 125.963 138.609 126.263 139.007C126.559 139.409 126.82 139.857 127.035 140.335C128.242 143.066 127.445 146.226 125.124 148.141L117.558 148.144ZM63.7254 133.898C61.6228 130.747 60.8548 126.839 61.3758 121.98C61.9627 121.704 62.5701 121.44 63.197 121.191C62.8246 126.524 64.0728 131.264 66.7447 134.961C65.7742 134.529 64.76 134.175 63.7254 133.898ZM82.4186 49.8071C83.5953 53.1761 83.7847 56.5496 83.0083 60.0532C82.5551 60.2349 82.1028 60.4166 81.6459 60.6131C81.1054 60.0477 80.5537 59.5359 80.0002 59.0618C80.0011 56.0129 80.7933 52.9667 82.4186 49.8071ZM90.9154 52.7011C91.8646 52.4991 92.8592 52.3368 93.8873 52.192C93.6635 53.6768 93.54 55.3064 93.5056 57.1076C91.9556 57.3557 90.386 57.6932 88.8184 58.1165C88.7729 56.3965 88.6596 54.7789 88.4785 53.2803C89.3032 53.0626 90.1204 52.8625 90.9154 52.7011ZM109.064 52.6919C109.866 52.8616 110.672 53.0608 111.496 53.2793C111.325 54.7669 111.213 56.3541 111.164 58.0252C109.604 57.6047 108.035 57.2745 106.475 57.0384C106.446 55.2714 106.326 53.6648 106.103 52.1929C107.12 52.334 108.109 52.4936 109.064 52.6919ZM119.978 59.0618C119.427 59.534 118.878 60.0422 118.341 60.6029C117.888 60.3972 117.426 60.2027 116.963 60.0071C116.195 56.5247 116.387 53.1659 117.56 49.8062C119.185 52.9658 119.977 56.012 119.978 59.0618ZM76.2417 117.463V106.756C76.2417 106.587 76.2584 106.42 76.2891 106.257C76.2937 106.243 76.2965 106.228 76.3011 106.214C76.303 106.208 76.3067 106.203 76.3086 106.198C76.342 106.081 76.3838 105.954 76.4265 105.83C76.4265 105.829 76.4265 105.829 76.4265 105.828C76.434 105.806 76.4423 105.784 76.4497 105.759C76.5779 105.481 76.7544 105.227 76.9633 105.02C77.5911 104.397 78.5496 104.158 79.3594 104.391C80.4265 104.68 81.1732 105.653 81.1732 106.757L81.189 109.909C80.9949 110.035 80.8101 110.185 80.6373 110.356C79.9946 110.994 79.6408 111.841 79.6408 112.742V119.696C79.6408 120.205 80.0559 120.618 80.5695 120.618C81.0831 120.618 81.4982 120.205 81.4982 119.696V112.741C81.4982 112.334 81.6589 111.949 81.9505 111.659C82.1047 111.505 82.2793 111.39 82.466 111.319C82.6471 111.246 82.8374 111.21 83.0306 111.21C83.8804 111.21 84.5723 111.897 84.5723 112.741V127.47C84.5723 128.127 84.316 128.744 83.8562 129.201C83.4105 129.637 82.8356 129.88 82.2273 129.911C77.9552 128.502 76.2139 124.882 76.2417 117.467C76.2417 117.466 76.2417 117.466 76.2417 117.465C76.2417 117.464 76.2417 117.464 76.2417 117.463ZM122.779 78.5332C122.779 78.536 122.778 78.5378 122.777 78.5406C122.755 78.6255 122.737 78.7094 122.719 78.7933C121.969 80.4377 119.563 81.7279 117.066 82.7885C116.939 82.2508 116.788 81.7002 116.593 81.1211C116.469 80.7494 116.122 80.4967 115.728 80.4902C115.722 80.4902 115.717 80.4902 115.712 80.4902C115.324 80.4902 114.977 80.73 114.841 81.0925C114.443 82.1586 113.941 83.2173 113.361 84.2484C109.425 85.748 105.742 87.2042 104.842 89.6131C101.698 88.784 98.2783 88.784 95.1346 89.6131C94.2356 87.2033 90.5523 85.748 86.6164 84.2484C86.0359 83.2173 85.5344 82.1595 85.136 81.0934C85.0004 80.7309 84.6531 80.4912 84.2649 80.4912C84.2602 80.4912 84.2547 80.4912 84.2491 80.4912C83.8553 80.4976 83.508 80.7503 83.3835 81.122C83.1885 81.7021 83.038 82.2517 82.9108 82.7894C80.4181 81.7316 78.0156 80.4423 77.2614 78.8016C76.8937 77.0706 76.7293 75.0979 76.7636 73.0671C78.2524 72.3044 79.7625 71.6155 81.2781 70.9865C81.6914 74.6349 83.2684 77.231 86.0963 78.88C86.4325 79.0764 86.8597 79.0432 87.1606 78.7933C88.2602 77.884 90.0359 77.4524 91.7949 77.6663C93.7229 77.8997 95.377 78.8293 96.4524 80.2818C96.6289 80.5207 96.9084 80.6581 97.2009 80.6581C97.2641 80.6581 97.3291 80.6516 97.3932 80.6387C97.7498 80.5631 98.0303 80.2883 98.1083 79.9341C99.5246 73.5457 96.4561 71.9521 93.7489 70.5457C92.5091 69.9019 91.338 69.2942 90.5681 68.2456C90.5291 68.1921 90.4826 68.1469 90.4343 68.1035C93.5734 67.4377 96.7124 67.0854 99.8264 67.0734C99.8849 67.078 99.9434 67.0817 99.9964 67.0817C100.047 67.0817 100.105 67.0771 100.162 67.0734C103.272 67.0854 106.402 67.4414 109.537 68.1063C109.491 68.1487 109.444 68.193 109.406 68.2446C108.636 69.2923 107.465 69.901 106.225 70.5447C103.518 71.9512 100.449 73.5448 101.866 79.9332C101.944 80.2873 102.224 80.5622 102.581 80.6378C102.645 80.6516 102.71 80.6572 102.773 80.6572C103.065 80.6572 103.344 80.5207 103.522 80.2809C104.596 78.8284 106.25 77.8987 108.179 77.6654C109.936 77.4524 111.714 77.884 112.814 78.7924C113.114 79.0423 113.541 79.0755 113.878 78.8791C116.797 77.1757 118.341 74.6404 118.713 70.9828C120.22 71.6062 121.726 72.297 123.228 73.0689C123.261 75.0204 123.112 76.9009 122.779 78.5332ZM114.545 110.356C113.902 110.994 113.548 111.842 113.548 112.741V117.731C110.352 121.954 105.309 124.472 99.9889 124.472C94.6693 124.472 89.6254 121.955 86.4297 117.731V112.741C86.4297 110.885 84.9122 109.374 83.0436 109.367L83.0353 107.707C83.0371 107.684 83.0492 107.664 83.0492 107.64C83.0492 105.458 83.4606 103.344 84.2732 101.354C84.7617 100.148 85.3896 99.0044 86.14 97.953C86.7111 97.1442 87.3696 96.3741 88.094 95.6631C89.4629 94.3221 91.038 93.2311 92.7886 92.4149C93.3774 92.1299 94.0229 91.8735 94.7073 91.6494C98.0702 90.5492 101.906 90.5492 105.271 91.6494C105.954 91.8735 106.6 92.1299 107.2 92.4204C108.939 93.2311 110.514 94.323 111.883 95.664C112.607 96.375 113.266 97.1451 113.839 97.9567C114.587 99.0053 115.214 100.149 115.705 101.358C116.516 103.345 116.928 105.46 116.928 107.642C116.928 107.673 116.943 107.7 116.946 107.732V109.381C116.067 109.383 115.186 109.719 114.545 110.356ZM85.162 85.4519C85.1824 85.487 85.2057 85.5202 85.2298 85.5515C86.6805 88.0158 88.5035 90.0364 90.5551 91.4963C89.449 92.1327 88.4237 92.8908 87.4699 93.7392C84.9141 91.1948 83.9045 88.0158 84.5082 84.2539C84.7134 84.656 84.9326 85.0563 85.162 85.4519ZM83.1931 99.2709C82.8189 98.7793 82.4882 98.3016 82.2133 97.8451C82.0731 97.6118 81.9394 97.372 81.8084 97.1248C82.4845 97.4328 83.1922 97.7067 83.9278 97.9465C83.664 98.3763 83.4207 98.8199 83.1931 99.2709ZM118.168 97.1267C118.037 97.3775 117.903 97.6173 117.766 97.8442C117.492 98.3016 117.16 98.7793 116.786 99.2709C116.557 98.819 116.314 98.3763 116.05 97.9465C116.786 97.7067 117.492 97.4338 118.168 97.1267ZM115.471 84.253C116.076 88.0121 115.066 91.1929 112.509 93.7383C111.554 92.8889 110.528 92.1308 109.425 91.4954C111.475 90.0364 113.297 88.0167 114.748 85.5534C114.772 85.5211 114.796 85.487 114.817 85.451C115.046 85.0563 115.265 84.656 115.471 84.253ZM99.8766 65.2271C98.086 65.1671 96.6837 63.6694 96.6837 61.8147C96.6837 59.9951 98.1176 58.4688 99.8794 58.4116C99.9286 58.4098 99.9499 58.4116 99.9982 58.4033H100.056C101.854 58.4356 103.315 59.9647 103.315 61.8157C103.315 63.6703 101.911 65.168 100.121 65.228L99.8766 65.2271ZM100.014 48.8544C101.417 51.4598 101.912 54.0098 101.542 56.5948C101.058 56.5791 100.576 56.5598 100.086 56.5589C100.084 56.5589 100.081 56.5579 100.078 56.5579C100.073 56.5579 100.003 56.5579 99.9982 56.5579C99.9369 56.5579 99.8673 56.5616 99.7995 56.5681C99.3639 56.569 98.9051 56.5819 98.4315 56.6022C98.0693 54.1822 98.5847 51.6304 100.014 48.8544ZM88.2296 72.0895C86.7956 71.7446 85.5493 70.8979 84.1014 69.8881C85.7183 69.3181 87.3399 68.8257 88.9623 68.4282C88.3893 69.4878 87.9955 70.8601 88.2296 72.0895ZM116.054 69.9619C114.516 70.9994 113.241 71.8054 111.744 72.1162C111.987 70.8897 111.6 69.5164 111.029 68.4503C112.703 68.8616 114.379 69.367 116.054 69.9619ZM117.752 129.91C116.448 129.844 115.406 128.779 115.406 127.469V112.741C115.406 112.334 115.566 111.95 115.858 111.66C116.292 111.23 116.939 111.082 117.531 111.329C118.098 111.556 118.48 112.123 118.48 112.742V119.696C118.48 120.205 118.895 120.618 119.408 120.618C119.922 120.618 120.337 120.205 120.337 119.696V112.741C120.337 111.576 119.745 110.531 118.805 109.924V106.756C118.805 105.652 119.551 104.68 120.633 104.387C120.828 104.33 121.035 104.304 121.267 104.304C121.929 104.304 122.55 104.558 123.016 105.02C123.225 105.228 123.402 105.483 123.531 105.763C123.536 105.778 123.545 105.802 123.551 105.821C123.552 105.824 123.551 105.827 123.552 105.831C123.591 105.946 123.628 106.06 123.661 106.17C123.666 106.198 123.669 106.215 123.69 106.258C123.72 106.421 123.737 106.588 123.737 106.757V117.464C123.737 117.465 123.737 117.465 123.737 117.466C123.737 117.467 123.737 117.467 123.737 117.468C123.765 124.881 122.024 128.501 117.752 129.91ZM123.013 102.829C122.469 102.591 121.88 102.458 121.267 102.458C121.243 102.458 121.221 102.463 121.197 102.463C120.894 99.3742 120.957 96.553 120.995 95.5173C122.014 94.8109 122.926 94.0067 123.725 93.1038C123.155 96.2976 122.764 99.8325 123.013 102.829ZM122.707 64.6248C123.24 62.9832 125.154 61.8811 126.881 61.2273C125.323 63.6657 124.224 66.5579 123.598 69.877C122.843 68.3996 122.14 66.3789 122.707 64.6248ZM77.2717 64.6258C77.841 66.3716 77.1323 68.3987 76.3782 69.8752C75.7514 66.5569 74.6499 63.6629 73.0906 61.2217C74.818 61.8738 76.7358 62.9759 77.2717 64.6258ZM78.9842 95.5173C79.0232 96.5521 79.0854 99.3705 78.7817 102.463C78.7585 102.463 78.7362 102.458 78.7121 102.458C78.0991 102.458 77.5094 102.591 76.9661 102.829C77.215 99.8325 76.8231 96.2966 76.2538 93.1047C77.0525 94.0067 77.9645 94.8118 78.9842 95.5173ZM80.4906 131.207C80.0615 131.648 79.6083 132.079 79.1347 132.497C74.1549 129.632 73.033 123.583 73.0553 118.645C73.4825 118.586 73.9292 118.533 74.3908 118.484C74.4753 123.642 75.4514 128.901 80.4906 131.207ZM138.608 121.983C139.319 128.631 137.6 133.584 133.36 137.103C131.597 137.119 129.762 137.666 128.221 138.616C128.075 138.373 127.924 138.135 127.758 137.91C127.625 137.734 127.482 137.569 127.34 137.404C133.319 133.371 136.121 127.786 135.669 120.767C136.707 121.138 137.672 121.541 138.608 121.983ZM126.924 118.645C126.947 123.584 125.824 129.632 120.844 132.497C120.371 132.079 119.916 131.648 119.488 131.207C124.528 128.902 125.504 123.642 125.588 118.484C126.049 118.532 126.495 118.586 126.924 118.645ZM131.61 111.043C130.386 112.329 128.84 112.953 126.885 112.953C126.425 112.953 125.999 112.872 125.594 112.714V109.009C125.998 109.321 126.442 109.569 126.933 109.738C127.546 109.95 128.149 110.055 128.735 110.055C129.564 110.055 130.364 109.845 131.129 109.429C132.213 108.836 133.107 107.869 133.83 106.791C133.399 108.338 132.712 109.887 131.61 111.043ZM131.764 68.1118C132.162 71.9622 131.399 75.3727 129.449 78.501C129.207 78.8874 129.285 79.3909 129.634 79.687C129.98 79.983 130.494 79.983 130.842 79.687C131.7 78.9575 133.48 78.5849 134.845 78.6328C132.501 83.6167 125.974 98.2822 127.81 103.428C128.112 104.278 128.624 104.877 129.329 105.209C130.429 105.728 131.489 105.799 132.491 105.471C131.883 106.45 131.133 107.323 130.236 107.813C129.395 108.271 128.514 108.331 127.543 107.997C126.605 107.673 125.921 106.911 125.452 105.668C125.414 105.508 125.362 105.35 125.309 105.229C125.306 105.218 125.301 105.207 125.298 105.197C125.297 105.193 125.298 105.189 125.297 105.185C123.855 100.362 125.85 91.4475 126.774 87.8387C126.775 87.835 126.777 87.8295 126.778 87.8258C127.044 87.0705 127.253 86.3078 127.415 85.5036C127.603 84.6081 127.738 83.6812 127.813 82.7507C127.846 82.344 127.605 81.964 127.222 81.8164C126.836 81.6707 126.403 81.7906 126.152 82.1143C125.246 83.281 123.829 84.3803 122.415 85.1928C123.682 83.2736 124.679 81.015 124.532 79.2037C124.557 79.1004 124.582 78.9971 124.604 78.8948C124.604 78.8938 124.604 78.892 124.605 78.8901C125.589 74.1277 127.938 70.589 131.764 68.1118ZM108.347 50.6851C107.503 50.531 106.637 50.3955 105.74 50.2802C105.102 47.389 104.049 45.0566 102.538 43.2407C104.367 43.5994 105.884 44.2764 106.946 44.8786C107.231 45.0409 107.489 45.1949 107.708 45.3425C108.109 45.609 108.347 46.0434 108.347 46.5045V50.6851ZM99.9889 35.6414C101.939 35.6414 102.708 36.7886 103.013 37.7229C102.085 37.5818 101.078 37.5043 99.9889 37.5043C98.8931 37.5043 97.8817 37.5827 96.9548 37.7238C97.252 36.7905 98.0173 35.6414 99.9889 35.6414ZM92.2741 45.3406C92.4886 45.1949 92.7478 45.0418 93.0292 44.8804C94.0935 44.2764 95.6138 43.5985 97.4452 43.2398C95.9444 45.0501 94.8922 47.3834 94.2476 50.2802C93.3403 50.3973 92.4701 50.5357 91.6305 50.6906V46.5054C91.6305 46.0443 91.8692 45.6099 92.2741 45.3406ZM70.6509 105.209C71.3557 104.877 71.8675 104.278 72.1702 103.428C74.0054 98.2822 67.4784 83.6167 65.1343 78.6328C66.4967 78.584 68.2798 78.9575 69.138 79.687C69.4862 79.9821 69.9998 79.983 70.3462 79.687C70.6945 79.3909 70.7725 78.8874 70.531 78.501C68.5798 75.3727 67.8173 71.9622 68.2158 68.1118C72.1294 70.6443 74.5022 74.2863 75.4514 79.2065C75.4514 79.2074 75.4514 79.2074 75.4514 79.2083C75.3093 81.0205 76.3012 83.2745 77.567 85.1909C76.1526 84.3784 74.7344 83.2791 73.8308 82.1125C73.58 81.7888 73.1463 81.6698 72.7609 81.8146C72.3773 81.9622 72.1368 82.3421 72.1693 82.7488C72.2445 83.6803 72.3792 84.6062 72.5659 85.4934C72.7284 86.3032 72.9383 87.064 73.203 87.8184C73.2048 87.8249 73.2067 87.8304 73.2085 87.8369C74.1326 91.4456 76.1266 100.359 74.6843 105.183C74.6815 105.192 74.6843 105.2 74.6824 105.208C74.6796 105.216 74.6778 105.224 74.675 105.231C74.6731 105.237 74.6675 105.241 74.6657 105.247C74.6388 105.328 74.6155 105.405 74.5905 105.483C74.5719 105.544 74.544 105.605 74.5292 105.666C74.0602 106.91 73.3766 107.673 72.4396 107.996C71.4663 108.33 70.5849 108.271 69.7454 107.813C68.8482 107.323 68.0997 106.45 67.4904 105.471C68.4907 105.799 69.5503 105.728 70.6509 105.209ZM73.0934 112.953C71.1384 112.953 69.5921 112.328 68.3681 111.043C67.2657 109.887 66.5784 108.338 66.1466 106.792C66.8701 107.87 67.7635 108.838 68.8482 109.429C69.6125 109.846 70.4131 110.056 71.2415 110.056C71.8294 110.056 72.4321 109.951 73.0451 109.739C73.5364 109.57 73.9803 109.322 74.3834 109.01V112.714C73.9794 112.872 73.5531 112.953 73.0934 112.953ZM46.7977 144.447C46.7968 145.468 46.9222 146.495 47.2064 147.515C47.2667 147.734 47.3494 147.942 47.4256 148.155L44.1695 148.156C44.7425 146.511 45.6136 145.285 46.7977 144.447ZM64.6876 148.152C64.8222 147.175 64.7637 146.164 64.4879 145.171C63.8619 142.923 62.0491 141.149 59.7552 140.541C59.7357 140.537 59.7162 140.532 59.6957 140.528C58.7438 140.279 57.7501 140.245 56.8111 140.433C56.7201 140.442 56.6449 140.459 56.5901 140.473C56.0914 140.575 55.7673 141.057 55.8657 141.554C55.9642 142.054 56.4536 142.38 56.956 142.282C56.9616 142.281 56.9922 142.273 57.0182 142.268C57.0554 142.264 57.0916 142.259 57.1278 142.251C57.8151 142.105 58.5534 142.13 59.2639 142.322C59.2834 142.328 59.3038 142.332 59.3242 142.336C60.9616 142.787 62.2516 144.058 62.6983 145.662C62.9304 146.499 62.9629 147.347 62.8116 148.153L49.4279 148.155C49.2588 147.791 49.1075 147.418 48.9988 147.025C48.6227 145.673 48.5428 144.313 48.761 142.976C49.1446 140.538 50.4559 138.408 52.461 136.973C53.4743 136.235 54.6231 135.709 55.8741 135.413C57.9971 134.919 60.4285 134.978 62.9063 135.585C65.6284 136.255 68.2009 137.558 70.1558 139.26C70.5691 139.616 70.9722 140.021 71.365 140.451C71.3446 141.229 71.4365 142.011 71.6539 142.778C72.4981 145.775 75.2786 147.87 78.4168 147.87C78.9452 147.87 79.4662 147.812 79.9659 147.697C81.4165 147.361 82.6257 146.486 83.3733 145.237C84.1274 143.976 84.3215 142.486 83.9194 141.039C83.2414 138.601 80.6698 137.084 78.1976 137.656C77.6979 137.771 77.3877 138.267 77.5038 138.763C77.6199 139.26 78.1196 139.568 78.6183 139.453C80.1423 139.103 81.7137 140.034 82.1288 141.53C82.3944 142.488 82.2691 143.47 81.7759 144.296C81.2893 145.11 80.4962 145.68 79.5461 145.902C79.1857 145.984 78.8059 146.026 78.4168 146.026C76.1089 146.026 74.0629 144.487 73.4426 142.281C73.2457 141.585 73.1751 140.878 73.2345 140.149C73.2503 139.832 73.2949 139.528 73.3776 139.217C73.8921 137.029 75.612 135.342 77.8688 134.814C78.3239 134.707 78.7845 134.641 79.2442 134.616C83.2684 134.363 86.9479 136.988 88.0252 140.841C88.0299 140.857 88.042 140.868 88.0466 140.884C88.067 140.944 88.1005 140.996 88.132 141.051C88.1618 141.101 88.1868 141.153 88.224 141.195C88.2621 141.239 88.3085 141.27 88.354 141.305C88.4023 141.343 88.4469 141.383 88.5017 141.41C88.55 141.435 88.6029 141.445 88.6558 141.461C88.7199 141.48 88.7812 141.5 88.849 141.505C88.8648 141.506 88.8778 141.515 88.8936 141.515C88.94 141.517 88.9827 141.498 89.0283 141.492C89.0756 141.487 89.1211 141.495 89.1685 141.482C89.1843 141.478 89.1954 141.466 89.2103 141.461C89.2576 141.444 89.2976 141.418 89.3422 141.395C89.41 141.359 89.4768 141.324 89.5326 141.276C89.5558 141.255 89.5716 141.229 89.5929 141.205C89.6514 141.142 89.7062 141.078 89.7443 141.001C89.7647 140.961 89.7722 140.917 89.787 140.874C89.8102 140.805 89.8325 140.738 89.8381 140.664C89.839 140.648 89.8483 140.636 89.8492 140.62C89.9356 137.56 91.1922 134.772 93.3895 132.771C95.7577 130.613 98.9534 129.525 102.407 129.729C106.061 129.94 109.526 132.716 111.031 136.638C111.562 138.002 111.81 139.381 111.767 140.742C111.642 144.889 108.242 148.138 104.021 148.147H103.988C102.689 148.143 101.405 147.562 100.374 146.509C99.0909 145.199 98.3535 143.36 98.4036 141.592C98.4399 140.416 98.933 139.34 99.7921 138.56C100.653 137.778 101.778 137.391 102.974 137.457C103.469 137.494 103.925 137.099 103.955 136.591C103.986 136.082 103.595 135.645 103.083 135.616C101.392 135.513 99.7744 136.078 98.5392 137.198C97.3078 138.316 96.5991 139.856 96.5462 141.537C96.484 143.796 97.4173 146.135 99.0426 147.795C99.1652 147.919 99.2933 148.033 99.4206 148.148L64.6876 148.152Z" fill="black"/>
</svg>
