<svg width="195" height="195" viewBox="0 0 195 195" fill="none" xmlns="http://www.w3.org/2000/svg">
<rect x="0.5" y="0.898438" width="194" height="194" rx="97" fill="#FFDD55"/>
<path d="M103.433 86.2891C104.538 86.2891 105.433 85.3936 105.433 84.2891C105.433 83.1845 104.538 82.2891 103.433 82.2891C102.329 82.2891 101.433 83.1845 101.433 84.2891C101.433 85.3936 102.329 86.2891 103.433 86.2891Z" fill="black"/>
<path d="M93.4331 74.2894C94.2631 74.2894 94.9331 73.6194 94.9331 72.7894C94.9331 71.9694 94.2631 67.1094 93.4331 67.1094C92.6031 67.1094 91.9331 71.9694 91.9331 72.7894C91.9331 73.6194 92.6031 74.2894 93.4331 74.2894Z" fill="black"/>
<path d="M93.4331 78.7891C94.2615 78.7891 94.9331 78.1175 94.9331 77.2891C94.9331 76.4606 94.2615 75.7891 93.4331 75.7891C92.6047 75.7891 91.9331 76.4606 91.9331 77.2891C91.9331 78.1175 92.6047 78.7891 93.4331 78.7891Z" fill="black"/>
<path d="M83.4331 86.2891C84.5377 86.2891 85.4331 85.3936 85.4331 84.2891C85.4331 83.1845 84.5377 82.2891 83.4331 82.2891C82.3285 82.2891 81.4331 83.1845 81.4331 84.2891C81.4331 85.3936 82.3285 86.2891 83.4331 86.2891Z" fill="black"/>
<path d="M96.1611 90.2969C94.3271 90.8169 92.5401 90.8169 90.7061 90.2969C90.1791 90.1439 89.6231 90.4539 89.4721 90.9859C89.3221 91.5169 89.6291 92.0699 90.1611 92.2199C91.2551 92.5309 92.3551 92.6879 93.4331 92.6879C94.5111 92.6879 95.6121 92.5309 96.7051 92.2199C97.2371 92.0699 97.5451 91.5169 97.3941 90.9859C97.2441 90.4549 96.6881 90.1449 96.1611 90.2969Z" fill="black"/>
<path d="M86.8163 78.1676C86.9993 78.3116 87.2163 78.3806 87.4323 78.3806C87.7293 78.3806 88.0233 78.2496 88.2203 77.9976C88.5613 77.5626 88.4853 76.9346 88.0503 76.5936C84.7323 73.9896 81.2243 73.9896 77.9053 76.5936C77.4703 76.9346 77.3943 77.5636 77.7353 77.9976C78.0763 78.4316 78.7053 78.5086 79.1393 78.1676C81.7593 76.1126 84.1973 76.1126 86.8163 78.1676Z" fill="black"/>
<path d="M100.05 78.1676C102.669 76.1126 105.107 76.1126 107.726 78.1676C107.909 78.3116 108.126 78.3806 108.342 78.3806C108.639 78.3806 108.933 78.2496 109.13 77.9976C109.471 77.5626 109.395 76.9346 108.96 76.5936C105.642 73.9896 102.134 73.9896 98.8154 76.5936C98.3804 76.9346 98.3044 77.5636 98.6454 77.9976C98.9864 78.4316 99.6164 78.5076 100.05 78.1676Z" fill="black"/>
<path d="M89.3804 88.7234C89.7054 88.2594 90.3104 87.3974 90.5684 87.3824C90.5744 87.3824 90.8044 87.3924 91.2984 87.9584C91.6624 88.3744 92.2934 88.4164 92.7094 88.0554C93.1254 87.6924 93.1684 87.0604 92.8064 86.6444C92.0314 85.7554 91.2884 85.3464 90.4614 85.3854C89.2304 85.4504 88.4734 86.5314 87.7414 87.5754C86.5324 89.3014 86.0224 89.7084 84.9634 89.0954C84.4864 88.8174 83.8734 88.9814 83.5974 89.4594C83.3204 89.9374 83.4834 90.5494 83.9614 90.8254C84.6384 91.2184 85.2464 91.3794 85.7954 91.3794C87.5194 91.3804 88.6394 89.7814 89.3804 88.7234Z" fill="black"/>
<path d="M94.0591 86.6454C93.6971 87.0614 93.7401 87.6934 94.1561 88.0564C94.5721 88.4184 95.2031 88.3764 95.5671 87.9594C96.0611 87.3934 96.2921 87.3834 96.2971 87.3834C96.5561 87.3984 97.1601 88.2604 97.4851 88.7244C98.2261 89.7824 99.3461 91.3814 101.069 91.3804C101.617 91.3804 102.226 91.2194 102.903 90.8264C103.382 90.5504 103.545 89.9374 103.267 89.4604C102.991 88.9814 102.378 88.8184 101.901 89.0964C100.841 89.7094 100.332 89.3024 99.1231 87.5764C98.3921 86.5314 97.6351 85.4514 96.4031 85.3864C95.5811 85.3394 94.8351 85.7564 94.0591 86.6454Z" fill="black"/>
<path d="M143.097 128.703C143.222 128.942 143.44 129.121 143.699 129.198C143.792 129.225 143.887 129.239 143.983 129.239C144.153 129.239 144.323 129.195 144.473 129.11C144.756 128.951 151.411 125.138 151.433 119.343C151.454 113.402 149.967 108.952 148.773 105.377C147.738 102.279 146.92 99.8329 147.357 97.4809C147.441 97.0279 147.204 96.5749 146.784 96.3859C146.364 96.1969 145.868 96.3199 145.585 96.6849C145.487 96.8099 143.198 99.7909 142.897 103.424C142.788 104.726 143.197 106.885 143.67 109.385C144.303 112.72 145.481 118.928 143.968 119.682C143.771 119.781 143.492 119.861 143.075 119.605C142.309 119.13 141.663 117.854 141.663 116.818V102.618C141.663 102.513 141.646 102.408 141.614 102.308L138.384 92.3879C138.379 92.3739 138.368 92.3649 138.363 92.3509C138.354 92.3259 138.345 92.3019 138.334 92.2779C138.311 92.2279 138.276 92.1879 138.245 92.1429C138.216 92.1009 138.194 92.0569 138.16 92.0199C138.144 92.0029 138.128 91.9869 138.111 91.9709C138.073 91.9359 138.028 91.9119 137.984 91.8829C137.94 91.8529 137.901 91.8189 137.852 91.7969C137.828 91.7859 137.804 91.7769 137.779 91.7679C137.765 91.7629 137.756 91.7519 137.742 91.7469C137.706 91.7349 137.669 91.7419 137.633 91.7339C137.579 91.7229 137.529 91.7079 137.473 91.7059C137.459 91.7049 137.447 91.6979 137.432 91.6979C137.417 91.6979 137.405 91.7059 137.39 91.7069C137.336 91.7089 137.288 91.7229 137.236 91.7339C137.198 91.7419 137.16 91.7349 137.123 91.7469C137.109 91.7519 137.099 91.7629 137.086 91.7679C137.06 91.7779 137.036 91.7869 137.011 91.7979C136.964 91.8199 136.926 91.8529 136.883 91.8819C136.839 91.9119 136.792 91.9349 136.754 91.9709C136.736 91.9869 136.721 92.0039 136.704 92.0209C136.67 92.0569 136.648 92.1009 136.62 92.1419C136.589 92.1869 136.554 92.2279 136.531 92.2779C136.52 92.3019 136.512 92.3259 136.502 92.3499C136.497 92.3639 136.485 92.3729 136.481 92.3869L133.251 102.307C133.219 102.407 133.202 102.511 133.202 102.617V116.817C133.202 117.853 132.556 119.13 131.79 119.604C131.376 119.858 131.096 119.78 130.898 119.682C129.384 118.927 130.562 112.719 131.195 109.384C131.669 106.884 132.079 104.725 131.968 103.424C131.667 99.7899 129.378 96.8089 129.28 96.6839C128.998 96.3189 128.499 96.1959 128.081 96.3849C127.66 96.5739 127.424 97.0279 127.508 97.4809C127.666 98.3249 127.668 99.2259 127.514 100.237C127.512 100.251 127.51 100.264 127.508 100.279C127.426 100.783 127.317 101.297 127.174 101.846C127.17 101.862 127.157 101.923 127.15 101.958C126.683 103.429 125.78 104.648 124.899 104.994C124.454 105.17 124.028 105.125 123.558 104.859C122.02 103.98 123.715 100.567 125.355 97.2659C126.841 94.2759 128.377 91.1839 128.491 88.4699C128.665 84.4219 127.813 81.6919 125.96 80.3549C124.756 79.4859 123.426 79.4279 122.5 79.5379C121.283 72.1489 122.237 69.5979 126.873 66.9879C127.157 66.8289 127.346 66.5399 127.378 66.2159C127.41 65.8909 127.281 65.5709 127.034 65.3589C125.508 64.0479 122.315 63.5669 119.547 64.0949C120.21 59.7049 119.429 55.2409 117.218 50.8019C117.041 50.4479 116.656 50.2219 116.28 50.2479C115.884 50.2659 115.537 50.5129 115.392 50.8809C114.734 52.5529 113.832 53.6779 112.656 54.2869C112.59 52.4569 112.088 49.4969 109.66 48.3779C107.639 47.4479 105.75 48.4949 104.433 49.6589V43.9489C104.433 43.5409 104.185 43.1739 103.805 43.0209C103.468 42.8849 103.091 42.9549 102.812 43.1789C102.356 41.2999 101.132 38.7239 97.8783 37.4539C98.1543 36.8989 98.4033 36.2139 98.4033 35.5189C98.4033 34.1269 96.0243 32.0739 94.0283 30.5949C93.6743 30.3329 93.1923 30.3329 92.8393 30.5949C90.8433 32.0739 88.4643 34.1269 88.4643 35.5189C88.4643 36.2139 88.7133 36.8999 88.9893 37.4549C85.7333 38.7269 84.5093 41.3049 84.0543 43.1789C83.7753 42.9549 83.3993 42.8859 83.0623 43.0219C82.6823 43.1739 82.4343 43.5419 82.4343 43.9499V49.6629C81.1173 48.4999 79.2283 47.4529 77.2053 48.3809C74.7783 49.4989 74.2773 52.4589 74.2103 54.2879C73.0343 53.6799 72.1333 52.5549 71.4753 50.8829C71.3303 50.5149 70.9833 50.2679 70.5873 50.2499C70.2183 50.2129 69.8253 50.4489 69.6493 50.8039C67.4383 55.2429 66.6573 59.7069 67.3203 64.0969C64.5513 63.5689 61.3593 64.0499 59.8333 65.3609C59.5853 65.5739 59.4573 65.8929 59.4893 66.2179C59.5213 66.5419 59.7103 66.8309 59.9943 66.9899C64.6303 69.5989 65.5843 72.1509 64.3673 79.5399C63.4433 79.4279 62.1113 79.4879 60.9073 80.3569C59.0533 81.6939 58.2023 84.4239 58.3763 88.4709C58.4893 91.1859 60.0253 94.2779 61.5123 97.2679C63.1523 100.569 64.8473 103.982 63.3093 104.861C62.7463 105.183 62.2303 105.189 61.6953 104.876C60.4913 104.178 59.4353 101.997 59.4353 100.209C59.4353 99.7249 59.0883 99.3109 58.6123 99.2249C58.1393 99.1359 57.6663 99.4069 57.4983 99.8609C55.7103 104.669 56.3443 108.838 59.2383 111.299C60.6963 112.538 62.5523 113.171 64.4623 113.171C65.5663 113.171 66.6873 112.955 67.7583 112.527C68.4743 114.531 69.8453 115.842 71.7903 116.328C72.3223 116.462 72.8473 116.527 73.3563 116.527C74.7983 116.527 76.1273 116.001 77.1983 114.981C78.4673 113.775 79.2863 111.905 79.4183 110.12C81.6503 111.801 84.0383 113.118 86.4333 113.99V120.569C85.3423 120.94 84.2213 121.366 83.0693 121.877C80.5463 123.023 78.1203 124.429 75.8543 126.059C74.7813 126.84 73.7473 127.659 72.7783 128.492C66.7243 133.74 61.9383 140.751 58.5533 149.329C57.8353 151.139 57.1773 153.048 56.5903 155.002C56.5863 155.01 56.5853 155.019 56.5823 155.028C56.5733 155.056 56.5633 155.084 56.5553 155.112C56.5463 155.144 56.5533 155.175 56.5463 155.207C56.5333 155.271 56.5083 155.33 56.5083 155.398C56.5083 155.423 56.5203 155.444 56.5223 155.468C56.5263 155.519 56.5413 155.565 56.5523 155.614C56.5703 155.692 56.5873 155.768 56.6223 155.839C56.6453 155.885 56.6773 155.922 56.7073 155.964C56.7513 156.026 56.7923 156.086 56.8483 156.136C56.8903 156.174 56.9393 156.199 56.9883 156.23C57.0503 156.269 57.1103 156.307 57.1803 156.332C57.1973 156.338 57.2093 156.352 57.2273 156.357C57.3233 156.385 57.4193 156.399 57.5133 156.399H135.843H141.153C143.474 156.399 145.363 154.51 145.363 152.189C145.363 151.064 144.925 150.006 144.13 149.21C144.004 149.084 143.858 148.981 143.717 148.873C144.568 148.1 145.113 146.997 145.113 145.759C145.113 144.633 144.67 143.576 143.878 142.798C143.44 142.352 142.908 142.024 142.354 141.819V138.73L145.386 135.571C145.424 135.532 145.441 135.482 145.471 135.439C145.513 135.379 145.561 135.324 145.589 135.255C145.635 135.141 145.658 135.022 145.66 134.901C145.66 134.893 145.665 134.886 145.665 134.878C145.665 134.749 145.638 134.621 145.589 134.5C145.561 134.432 145.513 134.377 145.472 134.318C145.442 134.274 145.424 134.224 145.386 134.185L142.355 131.035V127.526C142.582 127.802 142.822 128.178 143.097 128.703ZM131.633 152.189C131.633 152.695 131.724 153.186 131.9 153.655C131.577 154.183 131.151 154.399 130.402 154.399C130.139 154.399 129.905 154.353 129.671 154.253C128.71 153.86 128.112 152.724 128.112 151.288C128.112 150.804 128.177 150.345 128.313 149.906C128.623 148.833 129.269 148.034 129.976 147.776C130.166 148.125 130.399 148.449 130.68 148.729C131.168 149.225 131.764 149.565 132.41 149.767C131.925 150.454 131.633 151.287 131.633 152.189ZM93.4673 55.3939C93.2093 55.2939 92.5633 54.2249 92.5633 52.2889C92.5633 50.3589 93.2093 49.2939 93.3993 49.1939C93.6573 49.2939 94.3033 50.3589 94.3033 52.2889C94.3033 54.2249 93.6573 55.2949 93.4673 55.3939ZM65.8913 93.1249C64.7833 90.1119 65.7583 86.9129 68.0273 85.7519C68.5083 90.0119 69.2753 93.9839 70.2423 97.1879C68.4043 96.8319 66.6923 95.2979 65.8913 93.1249ZM70.0123 77.8959C70.0853 76.3469 70.4963 74.8129 71.1993 73.4619C72.1913 71.5699 73.4273 69.8629 74.8853 68.3649C74.9473 75.8719 73.1743 81.0009 69.8873 82.8719C69.8963 81.3809 69.9243 79.7169 70.0123 77.8959ZM115.667 73.4609C116.37 74.8139 116.781 76.3479 116.855 77.8979C116.943 79.7179 116.971 81.3819 116.98 82.8739C113.693 81.0029 111.92 75.8739 111.982 68.3669C113.44 69.8639 114.676 71.5699 115.667 73.4609ZM118.839 85.7539C121.112 86.9259 122.081 90.1179 120.975 93.1239C120.174 95.2979 118.462 96.8339 116.624 97.1879C117.591 93.9839 118.358 90.0129 118.839 85.7539ZM114.29 102.804C114.353 102.7 114.414 102.58 114.476 102.47C114.489 105.734 114.06 108.812 112.989 109.092C112.484 109.226 112.058 109.184 111.688 108.966C111.117 108.633 110.735 107.93 110.538 107.439C112.073 105.93 113.373 104.341 114.29 102.804ZM110.664 110.685C111.497 111.177 112.476 111.295 113.496 111.027C116.031 110.365 116.533 106.07 116.503 102.55C117.411 105.071 118.025 108.361 117.493 110.919C117.099 112.863 116.149 113.998 114.591 114.389C113.202 114.736 112.009 114.448 111.047 113.533C109.909 112.452 109.405 110.811 109.427 109.544C109.742 109.969 110.148 110.38 110.664 110.685ZM102.433 46.4499V51.2889H99.6343C99.5933 50.7079 99.5193 50.1489 99.4093 49.6109L102.433 46.4499ZM87.2323 51.2889H84.4333V46.4499L87.4583 49.6119C87.3473 50.1509 87.2733 50.7099 87.2323 51.2889ZM72.3913 102.471C72.4523 102.579 72.5133 102.698 72.5753 102.801C73.4963 104.344 74.7993 105.937 76.3293 107.44C76.1313 107.932 75.7503 108.633 75.1803 108.966C74.8083 109.185 74.3833 109.225 73.8773 109.091C72.8073 108.812 72.3783 105.734 72.3913 102.471ZM78.1973 106.479C76.5923 104.973 75.2043 103.303 74.2903 101.773C73.6933 100.781 73.1213 99.4909 72.5903 97.9359C72.5843 97.9189 72.5763 97.9019 72.5693 97.8849C72.5633 97.8689 72.5573 97.8539 72.5503 97.8389C71.3963 94.4659 70.4873 89.9549 69.9633 85.0599C74.7673 83.0929 77.2503 76.4569 76.8403 66.6089C78.6183 65.1889 80.6023 64.0359 82.7643 63.2019C85.9263 61.9789 89.5163 61.3589 93.4343 61.3589C97.3523 61.3589 100.942 61.9789 104.104 63.2019C106.266 64.0369 108.251 65.1899 110.028 66.6089C109.617 76.4569 112.101 83.0929 116.905 85.0609C116.38 89.9539 115.473 94.4639 114.319 97.8349C114.315 97.8429 114.313 97.8509 114.309 97.8589C114.306 97.8669 114.303 97.8739 114.3 97.8809C114.292 97.8989 114.284 97.9179 114.278 97.9359C113.747 99.4909 113.174 100.781 112.576 101.776C111.664 103.303 110.276 104.973 108.656 106.493C108.292 106.847 107.908 107.183 107.519 107.515C104.902 109.726 101.998 111.394 99.1213 112.339C95.2993 113.599 91.5723 113.6 87.7463 112.338C84.8703 111.394 81.9673 109.726 79.3533 107.518C78.9603 107.183 78.5763 106.847 78.1973 106.479ZM91.0773 127.682C91.6903 126.203 92.5763 125.312 93.4643 125.299C94.3253 125.299 95.2363 126.204 95.8403 127.661C95.8413 127.663 95.8413 127.665 95.8423 127.666C96.3403 128.85 96.6043 130.279 96.6043 131.799C96.6043 132.684 96.5063 133.542 96.3283 134.358C96.2743 134.48 96.2363 134.61 96.2353 134.752C95.6873 136.848 94.5693 138.299 93.4643 138.299C92.3183 138.299 91.1483 136.743 90.6173 134.521C90.4163 133.658 90.3133 132.742 90.3133 131.799C90.3133 130.286 90.5763 128.865 91.0773 127.682ZM93.4333 142.289C92.8803 142.289 92.4333 142.736 92.4333 143.289V150.391C89.0423 149.727 86.4213 145.63 84.6233 138.173C87.7453 139.578 90.7123 140.3 93.4633 140.3C96.2093 140.3 99.1823 139.573 102.319 138.158C101.142 143.117 98.7933 149.538 94.4333 150.4V143.29C94.4333 142.736 93.9863 142.289 93.4333 142.289ZM98.5213 133.286C98.5713 132.797 98.6033 132.302 98.6033 131.8C98.6033 130.397 98.4003 129.054 98.0243 127.847C100.637 126.695 102.708 124.909 103.635 124.027C105.419 124.871 107.144 125.856 108.789 126.967C107.025 128.468 102.962 131.645 98.5213 133.286ZM93.4333 115.289C95.0793 115.289 96.7563 115.057 98.4333 114.618V120.85C96.7503 122.461 95.0783 123.292 93.4573 123.3C93.4533 123.3 93.4493 123.302 93.4453 123.303C93.4413 123.303 93.4373 123.3 93.4333 123.3C91.8053 123.3 90.1253 122.47 88.4333 120.851V114.618C90.1113 115.057 91.7873 115.289 93.4333 115.289ZM83.2743 124C84.2013 124.898 86.2723 126.713 88.8903 127.866C88.5153 129.065 88.3133 130.402 88.3133 131.799C88.3133 132.309 88.3453 132.812 88.3973 133.308C83.9323 131.673 79.8433 128.476 78.0693 126.969C79.7323 125.85 81.4763 124.855 83.2743 124ZM111.89 131.993C112.536 131.448 113.065 130.977 113.442 130.629C118.672 135.347 122.883 141.502 125.98 148.953L118.433 150.915V148.229C118.433 147.676 117.986 147.229 117.433 147.229C116.88 147.229 116.433 147.676 116.433 148.229V154.399H104.496C107.593 149.352 110.077 141.832 111.89 131.993ZM118.433 152.982L126.135 150.98C126.13 151.084 126.113 151.184 126.113 151.289C126.113 152.479 126.416 153.546 126.945 154.399H118.433V152.982ZM129.453 145.759C129.453 145.79 129.459 145.818 129.459 145.848C128.697 146.086 127.998 146.579 127.441 147.281C124.126 139.632 119.65 133.31 114.091 128.505C113.051 127.599 112.009 126.774 111.001 126.059C108.762 124.438 106.355 123.041 103.845 121.908C102.682 121.382 101.543 120.947 100.434 120.57V113.992C102.829 113.12 105.216 111.802 107.449 110.121C107.581 111.906 108.4 113.776 109.669 114.982C110.74 116.002 112.068 116.528 113.511 116.528C114.021 116.528 114.545 116.463 115.077 116.329C117.024 115.842 118.395 114.53 119.11 112.527C120.168 112.949 121.284 113.166 122.393 113.166C122.932 113.166 123.469 113.111 123.996 113.01C123.617 115.109 123.427 117.196 123.434 119.344C123.455 125.139 130.111 128.951 130.394 129.111C130.544 129.196 130.714 129.24 130.884 129.24C130.98 129.24 131.075 129.226 131.168 129.199C131.427 129.122 131.645 128.943 131.77 128.704C132.043 128.182 132.283 127.81 132.514 127.541V131.058L129.689 134.214C129.646 134.262 129.624 134.321 129.591 134.375C129.563 134.421 129.529 134.46 129.509 134.511C129.461 134.63 129.434 134.755 129.434 134.881C129.434 134.882 129.434 134.882 129.434 134.883C129.434 135.008 129.461 135.133 129.508 135.251C129.528 135.302 129.563 135.342 129.591 135.388C129.623 135.441 129.645 135.499 129.687 135.547L132.513 138.712V141.721C130.739 142.214 129.453 143.832 129.453 145.759ZM134.513 130.439V126.943C135.196 128.041 136.268 128.719 137.433 128.719C138.597 128.719 139.666 128.041 140.353 126.941V130.439H134.513ZM134.513 139.329H140.353V141.55H134.513V139.329ZM132.671 133.879L133.96 132.439H140.927L142.313 133.879H132.671ZM142.023 121.306C142.936 121.87 143.943 121.931 144.86 121.473C147.728 120.044 146.665 114.436 145.636 109.013C145.207 106.755 144.803 104.622 144.889 103.592C144.963 102.707 145.185 101.859 145.464 101.098C145.756 102.661 146.294 104.272 146.875 106.011C148.084 109.626 149.453 113.724 149.433 119.335C149.42 122.89 145.954 125.704 144.323 126.833C143.687 125.865 142.913 125.186 141.748 124.89C141.742 124.887 141.735 124.886 141.728 124.884C141.67 124.869 141.623 124.843 141.562 124.831C141.407 124.798 141.234 124.781 141.066 124.759C141.085 124.572 141.113 124.387 141.113 124.199C141.113 122.135 139.975 120.41 138.433 119.871V98.9999L139.663 102.778V116.819C139.664 118.544 140.678 120.472 142.023 121.306ZM129.398 101.087C129.678 101.851 129.903 102.705 129.977 103.594C130.063 104.623 129.659 106.756 129.23 109.014C128.202 114.437 127.138 120.045 130.007 121.475C130.923 121.93 131.931 121.871 132.843 121.307C134.188 120.473 135.202 118.544 135.202 116.82V102.778L136.432 98.9999V119.871C134.891 120.41 133.752 122.136 133.752 124.199C133.752 124.402 133.782 124.598 133.803 124.796C133.708 124.808 133.616 124.822 133.528 124.838C133.522 124.838 133.517 124.835 133.511 124.835C133.35 124.835 133.204 124.884 133.069 124.954C131.926 125.244 131.163 125.899 130.542 126.836C128.911 125.713 125.444 122.905 125.431 119.337C125.422 116.821 125.69 114.396 126.246 111.924C126.262 111.881 126.275 111.836 126.286 111.79C126.772 109.641 127.42 107.7 127.991 105.987C128.394 104.781 128.772 103.64 129.063 102.544C129.063 102.542 129.064 102.541 129.065 102.539C129.065 102.538 129.065 102.538 129.065 102.537C129.068 102.524 129.073 102.51 129.077 102.498C129.093 102.439 129.108 102.365 129.109 102.351C129.111 102.342 129.113 102.334 129.115 102.324C129.117 102.318 129.121 102.314 129.123 102.309L129.165 102.167C129.173 102.137 129.165 102.109 129.171 102.08C129.255 101.742 129.336 101.408 129.398 101.087ZM90.7443 38.9899C92.3593 38.5919 94.5053 38.5909 96.1263 38.9909C100.46 40.0479 101.011 43.7649 101.076 44.9759L98.7633 47.3939C97.6563 44.6539 95.6823 42.9489 93.4343 42.9489C91.1843 42.9489 89.2073 44.6569 88.1043 47.3929L85.7903 44.9749C85.8503 43.8039 86.3853 40.0529 90.7443 38.9899ZM75.8203 113.533C74.8583 114.448 73.6653 114.736 72.2763 114.389C70.7173 113.998 69.7673 112.864 69.3733 110.915C68.8423 108.358 69.4563 105.07 70.3643 102.55C70.3343 106.07 70.8363 110.364 73.3693 111.026C74.3903 111.296 75.3693 111.177 76.2033 110.685C76.7193 110.38 77.1253 109.969 77.4403 109.543C77.4613 110.811 76.9583 112.452 75.8203 113.533ZM73.4263 130.618C73.8413 130.999 74.4343 131.524 75.1703 132.132C77.0743 141.901 79.6253 149.373 82.7633 154.399H70.4333V148.229C70.4333 147.676 69.9863 147.229 69.4333 147.229C68.8803 147.229 68.4333 147.676 68.4333 148.229V150.925L60.8603 149.015C63.9623 141.54 68.1843 135.359 73.4263 130.618ZM60.1093 150.888L68.4333 152.988V154.399H58.8853C59.2683 153.2 59.6753 152.028 60.1093 150.888ZM141.153 149.979C141.735 149.979 142.305 150.215 142.716 150.625C143.133 151.042 143.362 151.598 143.362 152.188C143.362 153.407 142.371 154.398 141.152 154.398H135.842C135.259 154.398 134.701 154.166 134.279 153.751C134.133 153.605 134 153.423 133.894 153.228C133.72 152.902 133.632 152.552 133.632 152.189C133.632 150.97 134.623 149.979 135.842 149.979H141.153ZM143.113 145.759C143.113 146.983 142.117 147.979 140.893 147.979H135.843H133.663C133.072 147.979 132.518 147.748 132.1 147.322C131.833 147.055 131.648 146.738 131.535 146.341C131.48 146.173 131.453 145.978 131.453 145.76C131.453 144.594 132.396 143.607 133.555 143.559C133.606 143.557 133.615 143.56 133.664 143.55H140.893C140.985 143.55 141.07 143.553 141.226 143.582C141.688 143.641 142.111 143.854 142.462 144.212C142.881 144.624 143.113 145.173 143.113 145.759Z" fill="black"/>
</svg>
