<svg width="86" height="93" viewBox="0 0 86 93" fill="none" xmlns="http://www.w3.org/2000/svg">
<path d="M64.8366 76.2502L60.5332 71.9673L58.7852 73.707L64.8366 79.7308L74.0257 70.5844L72.2776 68.8447L64.8366 76.2502Z" fill="black"/>
<path d="M21.0323 42.7188H19.2467C18.2366 42.7188 17.418 43.4497 17.418 44.3517C17.418 45.2536 18.2366 45.9846 19.2467 45.9846H21.0323C22.0424 45.9846 22.861 45.2536 22.861 44.3517C22.861 43.4497 22.0424 42.7188 21.0323 42.7188Z" fill="black"/>
<path d="M21.0325 57.959H19.2469C18.2368 57.959 17.4182 58.9336 17.4182 60.1362C17.4182 61.3388 18.2368 62.3134 19.2469 62.3134H21.0325C22.0426 62.3134 22.8613 61.3388 22.8613 60.1362C22.8613 58.9336 22.0426 57.959 21.0325 57.959Z" fill="black"/>
<path d="M21.0325 74.2881H19.2469C18.2368 74.2881 17.4182 75.2627 17.4182 76.4653C17.4182 77.6679 18.2368 78.6425 19.2469 78.6425H21.0325C22.0426 78.6425 22.8613 77.6679 22.8613 76.4653C22.8613 75.2641 22.0426 74.2881 21.0325 74.2881Z" fill="black"/>
<path d="M43.5276 42.7188H41.3849C40.1728 42.7188 39.1904 43.4497 39.1904 44.3517C39.1904 45.2536 40.1728 45.9846 41.3849 45.9846H43.5276C44.7397 45.9846 45.7221 45.2536 45.7221 44.3517C45.7221 43.4497 44.7397 42.7188 43.5276 42.7188Z" fill="black"/>
<path d="M43.5276 57.959H41.3849C40.1728 57.959 39.1904 58.9336 39.1904 60.1362C39.1904 61.3388 40.1728 62.3134 41.3849 62.3134H43.5276C44.7397 62.3134 45.7221 61.3388 45.7221 60.1362C45.7221 58.9336 44.7397 57.959 43.5276 57.959Z" fill="black"/>
<path d="M43.5276 74.2881H41.3849C40.1728 74.2881 39.1904 75.2627 39.1904 76.4653C39.1904 77.6679 40.1728 78.6425 41.3849 78.6425H43.5276C44.7397 78.6425 45.7221 77.6679 45.7221 76.4653C45.7221 75.2641 44.7397 74.2881 43.5276 74.2881Z" fill="black"/>
<path d="M63.88 45.9846H65.6656C66.6757 45.9846 67.4943 45.2536 67.4943 44.3517C67.4943 43.4497 66.6757 42.7188 65.6656 42.7188H63.88C62.8699 42.7188 62.0513 43.4497 62.0513 44.3517C62.0501 45.2536 62.8699 45.9846 63.88 45.9846Z" fill="black"/>
<path d="M63.8797 62.3134H65.6654C66.6755 62.3134 67.4941 61.3388 67.4941 60.1362C67.4941 58.9336 66.6755 57.959 65.6654 57.959H63.8797C62.8696 57.959 62.051 58.9336 62.051 60.1362C62.0498 61.3388 62.8696 62.3134 63.8797 62.3134Z" fill="black"/>
<path d="M77.6334 7.0623V3.51731C77.6334 1.72319 76.1696 0.262695 74.3713 0.262695H71.674C69.8757 0.262695 68.4119 1.72319 68.4119 3.51731V6.99187H47.3939V3.51731C47.3939 1.72319 45.9301 0.262695 44.1318 0.262695H41.4332C39.635 0.262695 38.1711 1.72319 38.1711 3.51731V6.99187H17.1544V3.51731C17.1544 1.72319 15.6906 0.262695 13.8923 0.262695H11.1949C9.3967 0.262695 7.93283 1.72319 7.93283 3.51731V7.12531C3.4013 7.8605 0.000488281 11.744 0.000488281 16.4505V83.3357C0.000488281 88.5512 4.25336 92.7943 9.48091 92.7943H76.5201C81.7476 92.7943 86.0005 88.55 86.0005 83.3357V16.4505C86.0017 11.6118 82.3383 7.61462 77.6334 7.0623ZM70.8888 3.51731C70.8888 3.08484 71.2405 2.73393 71.674 2.73393H74.3713C74.8048 2.73393 75.1565 3.08484 75.1565 3.51731V12.9377C75.1565 13.3701 74.8048 13.721 74.3713 13.721H71.674C71.2405 13.721 70.8888 13.3701 70.8888 12.9377V3.51731ZM40.6493 3.51731C40.6493 3.08484 41.001 2.73393 41.4345 2.73393H44.1331C44.5665 2.73393 44.9182 3.08484 44.9182 3.51731V12.9377C44.9182 13.3701 44.5665 13.721 44.1331 13.721H41.4345C41.001 13.721 40.6493 13.3701 40.6493 12.9377V3.51731ZM10.411 3.51731C10.411 3.08484 10.7627 2.73393 11.1962 2.73393H13.8935C14.327 2.73393 14.6787 3.08484 14.6787 3.51731V12.9377C14.6787 13.3701 14.327 13.721 13.8935 13.721H11.1962C10.7627 13.721 10.411 13.3701 10.411 12.9377V3.51731ZM7.93407 9.64103V12.9389C7.93407 14.733 9.39793 16.1935 11.1962 16.1935H13.8935C15.6918 16.1935 17.1557 14.733 17.1557 12.9389V9.4631H38.1736V12.9389C38.1736 14.733 39.6374 16.1935 41.4357 16.1935H44.1343C45.9325 16.1935 47.3964 14.733 47.3964 12.9389V9.4631H68.4143V12.9389C68.4143 14.733 69.8782 16.1935 71.6764 16.1935H74.3738C76.1721 16.1935 77.6359 14.733 77.6359 12.9389V9.55948C80.9699 10.0945 83.5273 12.976 83.5273 16.4505V28.4755H2.47741V16.4505C2.47741 13.1156 4.78962 10.3404 7.93407 9.64103ZM76.5201 90.3231H9.48215C5.62063 90.3231 2.47865 87.1883 2.47865 83.3357V30.948H83.5248V83.3357C83.5248 87.1883 80.3828 90.3231 76.5201 90.3231Z" fill="black"/>
</svg>
