<svg width="108" height="126" viewBox="0 0 108 126" fill="none" xmlns="http://www.w3.org/2000/svg">
<path fill-rule="evenodd" clip-rule="evenodd" d="M54.0033 109.421C28.4034 109.421 7.56543 88.5827 7.56543 62.9828C7.56543 37.3893 28.4034 16.5449 54.0033 16.5449C79.5968 16.5449 100.441 37.3829 100.441 62.9828C100.441 88.5763 79.6032 109.421 54.0033 109.421ZM54.0033 19.7617C30.1469 19.7617 10.7518 39.1632 10.7518 63.0132C10.7518 86.8696 30.1533 106.265 54.0033 106.265C77.8597 106.265 97.2548 86.8632 97.2548 63.0132C97.2548 39.1568 77.8597 19.7617 54.0033 19.7617Z" fill="black"/>
<path fill-rule="evenodd" clip-rule="evenodd" d="M97.4556 53.4344H97.3244C96.6558 53.3656 96.0872 52.897 95.9185 52.2284C93.9753 44.5929 89.92 37.6196 84.2589 32.0591C83.7902 31.5905 83.659 30.8532 83.9215 30.2533C84.1901 29.6535 84.8275 29.2786 85.4961 29.3161L106.504 31.1218C107.003 31.1531 107.478 31.4593 107.741 31.9279C108.009 32.3653 108.009 32.9339 107.809 33.4025L98.8617 52.4985C98.6305 53.0983 98.0617 53.4344 97.4556 53.4344ZM89.3452 32.8955C93.0318 37.182 95.881 42.1119 97.7555 47.4356L103.954 34.1701L89.3452 32.8955Z" fill="black"/>
<path fill-rule="evenodd" clip-rule="evenodd" d="M85.3627 96.6539C84.7629 96.6539 84.188 96.2852 83.9194 95.7166C83.6507 95.1167 83.7881 94.3794 84.2568 93.9108C89.9179 88.3496 93.973 81.3828 95.9164 73.7415C96.0851 73.1042 96.6537 72.6043 97.3223 72.5355C97.9909 72.4668 98.6282 72.8355 98.8969 73.4416L107.845 92.5375C108.076 93.0062 108.045 93.5436 107.776 94.0122C107.507 94.4496 107.039 94.7495 106.539 94.8182L85.5313 96.624C85.4626 96.624 85.394 96.6539 85.3627 96.6539ZM97.7596 78.564C95.885 83.8564 93.0358 88.7802 89.3492 93.104L103.958 91.8294L97.7596 78.564Z" fill="black"/>
<path fill-rule="evenodd" clip-rule="evenodd" d="M41.9379 21.405C41.438 21.405 40.9319 21.1738 40.632 20.7364C40.2321 20.199 40.2321 19.4617 40.632 18.8932L52.6915 1.60315C52.9914 1.16576 53.46 0.93457 53.9974 0.93457C54.5348 0.93457 55.0034 1.20325 55.3033 1.60315L67.3628 18.8932C67.7315 19.4306 67.7315 20.1679 67.3628 20.7364C66.9629 21.2738 66.2881 21.5425 65.6196 21.3362C61.833 20.299 57.9153 19.7616 53.9913 19.7616C50.0674 19.7616 46.1183 20.299 42.3631 21.3362C42.2006 21.3675 42.0631 21.405 41.9319 21.405L41.9379 21.405ZM53.9974 16.5812C56.8092 16.5812 59.6272 16.8499 62.4077 17.3498L53.9974 5.32164L45.587 17.3498C48.3676 16.8124 51.1856 16.5812 53.9974 16.5812Z" fill="black"/>
<path fill-rule="evenodd" clip-rule="evenodd" d="M54.0033 125.066C53.4659 125.066 52.9973 124.797 52.6973 124.397L40.6378 107.107C40.2692 106.57 40.2692 105.833 40.6378 105.264C41.0377 104.727 41.7126 104.458 42.3811 104.664C46.1676 105.701 50.0854 106.239 54.0093 106.239C57.9646 106.239 61.8824 105.701 65.6376 104.664C66.2749 104.495 66.9748 104.733 67.3808 105.264C67.7807 105.801 67.7807 106.539 67.3808 107.107L55.3213 124.397C55.0151 124.797 54.5465 125.066 54.0092 125.066H54.0033ZM45.5929 108.683L54.0033 120.711L62.4136 108.683C56.8838 109.689 51.1233 109.689 45.5929 108.683Z" fill="black"/>
<path fill-rule="evenodd" clip-rule="evenodd" d="M22.6436 96.6532H22.5124L1.50489 94.8474C1.00501 94.8162 0.530123 94.51 0.267694 94.0414C-0.000990517 93.604 -0.0009901 93.0354 0.198961 92.5667L9.14678 73.4708C9.4467 72.8709 10.084 72.496 10.7214 72.5647C11.39 72.6335 11.9586 73.1021 12.1273 73.7707C14.0705 81.4062 18.1258 88.3795 23.7869 93.94C24.2555 94.4086 24.3868 95.1459 24.1243 95.7458C23.8494 96.2831 23.2809 96.6532 22.6436 96.6532ZM4.04829 91.8295L18.6571 93.1041C14.9705 88.8177 12.1213 83.8877 10.2467 78.5641L4.04829 91.8295Z" fill="black"/>
<path fill-rule="evenodd" clip-rule="evenodd" d="M10.5462 53.4346C9.94631 53.4346 9.37145 53.0659 9.10278 52.5285L0.154957 33.4325C-0.0762331 32.9639 -0.0449918 32.4265 0.223689 31.9579C0.492373 31.5205 0.961006 31.2206 1.46088 31.1519L22.4684 29.3461C23.137 29.2773 23.7743 29.646 24.043 30.2833C24.3117 30.8832 24.1742 31.6205 23.7056 32.0891C18.0444 37.6503 13.9893 44.6172 12.0459 52.2584C11.8772 52.8958 11.3086 53.3956 10.64 53.4644C10.6463 53.4331 10.6086 53.4346 10.5462 53.4346ZM4.0478 34.1706L10.2462 47.4361C12.1208 42.1436 14.97 37.2199 18.6566 32.8961L4.0478 34.1706Z" fill="black"/>
</svg>
